/* XPM */
static char *emms_xpm[] = {
/* width height num_colors chars_per_pixel */
"    18    18      256            2",
/* colors */
"`` c #ffffff",
"`. c #a8b7d6",
"`# c #7197bc",
"`a c #4f8ab4",
"`b c #2f7caa",
"`c c #247fac",
"`d c #1a7cab",
"`e c #1276a7",
"`f c #1f7db1",
"`g c #2d86be",
"`h c #3387c3",
"`i c #4d8cbf",
"`j c #7190ac",
"`k c #6c97c4",
"`l c #3c84bf",
"`m c #2689cd",
"`n c #2ea6f2",
"`o c #2ab2ff",
"`p c #25b4ff",
"`q c #19abfe",
"`r c #14a4fd",
"`s c #14a4ff",
"`t c #17a8ff",
"`u c #32a2f8",
"`v c #47779f",
"`w c #4e82b1",
"`x c #2074b2",
"`y c #1a86cf",
"`z c #0075c3",
"`A c #008bdb",
"`B c #0996e5",
"`C c #0f9eed",
"`D c #0c9af0",
"`E c #099af7",
"`F c #0a9eff",
"`G c #1086de",
"`H c #5788b3",
"`I c #618cac",
"`J c #206697",
"`K c #1c77b0",
"`L c #349bd5",
"`M c #3da7db",
"`N c #409fcb",
"`O c #48a2c7",
"`P c #429ac2",
"`Q c #419ccb",
"`R c #41a3e0",
"`S c #2b7cb4",
"`T c #52799a",
"`U c #7fa0b3",
"`V c #4680a5",
"`W c #7ec7f2",
"`X c #72c1ea",
"`Y c #80c9e9",
"`Z c #88c1d2",
"`0 c #a1d0d8",
"`1 c #a8d3dc",
"`2 c #afdeee",
"`3 c #b1ecff",
"`4 c #80b6d8",
"`5 c #4d6d86",
"`6 c #7b919c",
"`7 c #4b7993",
"`8 c #98bcd2",
".` c #567288",
".. c #8ca0a9",
".# c #496f86",
".a c #a1bed0",
".b c #4f6a7f",
".c c #7c96a5",
".d c #5a7f9a",
".e c #a5c1d6",
".f c #536d84",
".g c #6f8ea3",
".h c #5e7e97",
".i c #fffdf8",
".j c #94b3c8",
".k c #506a81",
".l c #7595ac",
".m c #5c7287",
".n c #9ec1d7",
".o c #4d687d",
".p c #edffff",
".q c #d2f7ff",
".r c #d1ffff",
".s c #769fbd",
".t c #556e82",
".u c #a8d3f5",
".v c #8bc5eb",
".w c #73a9cd",
".x c #46667f",
".y c #f8feff",
".z c #d4f7ff",
".A c #95cff7",
".B c #67aad7",
".C c #4782aa",
".D c #476b85",
".E c #1f6ba9",
".F c #4daef5",
".G c #2191db",
".H c #004d8a",
".I c #386385",
".J c #8fa9c4",
".K c #5c9acb",
".L c #4298d5",
".M c #1674b4",
".N c #04558a",
".O c #31607e",
".P c #155793",
".Q c #1175c1",
".R c #017acd",
".S c #0073c5",
".T c #005b9c",
".U c #426e91",
".V c #1b588e",
".W c #0368b6",
".X c #128ee6",
".Y c #0d8de4",
".Z c #005ea2",
".0 c #3f7b9f",
".1 c #003c6f",
".2 c #1675b9",
".3 c #1a8cd3",
".4 c #1791d0",
".5 c #2c8ebf",
".6 c #7fa8c4",
".7 c #1d5c91",
".8 c #38a0e7",
"#` c #2da8f8",
"#. c #38adfc",
"## c #2886c4",
"#a c #7db0cf",
"#b c #6f9bc0",
"#c c #397fb0",
"#d c #4fa2d4",
"#e c #4499c2",
"#f c #498bab",
"#g c #ceebfd",
"#h c #b5d5ec",
"#i c #65acca",
"#j c #4092b7",
"#k c #5792be",
"#l c #8ab0d5",
"#m c #d0e1f1",
"#n c #c0d9ef",
"#o c #a4c0d5",
"#p c #b3cdda",
"#q c #d9edf4",
"#r c #f6ffff",
"#s c #000000",
"#t c #000000",
"#u c #000000",
"#v c #000000",
"#w c #000000",
"#x c #000000",
"#y c #000000",
"#z c #000000",
"#A c #000000",
"#B c #000000",
"#C c #000000",
"#D c #000000",
"#E c #000000",
"#F c #000000",
"#G c #000000",
"#H c #000000",
"#I c #000000",
"#J c #000000",
"#K c #000000",
"#L c #000000",
"#M c #000000",
"#N c #000000",
"#O c #000000",
"#P c #000000",
"#Q c #000000",
"#R c #000000",
"#S c #000000",
"#T c #000000",
"#U c #000000",
"#V c #000000",
"#W c #000000",
"#X c #000000",
"#Y c #000000",
"#Z c #000000",
"#0 c #000000",
"#1 c #000000",
"#2 c #000000",
"#3 c #000000",
"#4 c #000000",
"#5 c #000000",
"#6 c #000000",
"#7 c #000000",
"#8 c #000000",
"a` c #000000",
"a. c #000000",
"a# c #000000",
"aa c #000000",
"ab c #000000",
"ac c #000000",
"ad c #000000",
"ae c #000000",
"af c #000000",
"ag c #000000",
"ah c #000000",
"ai c #000000",
"aj c #000000",
"ak c #000000",
"al c #000000",
"am c #000000",
"an c #000000",
"ao c #000000",
"ap c #000000",
"aq c #000000",
"ar c #000000",
"as c #000000",
"at c #000000",
"au c #000000",
"av c #000000",
"aw c #000000",
"ax c #000000",
"ay c #000000",
"az c #000000",
"aA c #000000",
"aB c #000000",
"aC c #000000",
"aD c #000000",
"aE c #000000",
"aF c #000000",
"aG c #000000",
"aH c #000000",
"aI c #000000",
"aJ c #000000",
"aK c #000000",
"aL c #000000",
"aM c #000000",
"aN c #000000",
"aO c #000000",
"aP c #000000",
"aQ c #000000",
"aR c #000000",
"aS c #000000",
"aT c #000000",
"aU c #000000",
"aV c #000000",
"aW c #000000",
"aX c #000000",
"aY c #000000",
"aZ c #000000",
"a0 c #000000",
"a1 c #000000",
"a2 c #000000",
"a3 c #000000",
"a4 c #000000",
"a5 c #000000",
"a6 c #000000",
"a7 c #000000",
"a8 c #000000",
/* pixels */
"````````````````````````````````````",
"```````````.`#`a`b`c`d`e`f`g`h`i`j``",
"```````````k`l`m`n`o`p`q`r`s`t`u`v``",
"```````````w`x`y`z`A`B`C`D`E`F`G`H``",
"```````````I`J`K`L`M`N`O`P`Q`R`S`T``",
"```````````U`V`W`X`Y`Z`0`1`2`3`4`5``",
"```````````6`7`````````````````8.```",
"``````````...#````````````````.a.b``",
"``````````.c.d````````````````.e.f``",
"``````````.g.h``````````.i````.j.k``",
"``````````.l.m````````````````.n.o``",
"````.p.q.r.s.t````````````.u.v.w.x``",
"``.y.z.A.B.C.D``````````.E.F.G.H.I``",
"``.J.K.L.M.N.O````````.P.Q.R.S.T.U``",
"``.V.W.X.Y.Z.0````````.1.2.3.4.5.6``",
"``.7.8#`#.###a````````#b#c#d#e#f#g``",
"``#h#i#j#k#l#m``````````#n#o#p#q#r``",
"````````````````````````````````````"
};
