/* XPM */
static char *sourcepair_xpm[] = {
/* width height num_colors chars_per_pixel */
"    18    18      256            2",
/* colors */
"`` c #ffffff",
"`. c #545454",
"`# c #646464",
"`a c #6a6a6a",
"`b c #515151",
"`c c #9c9c9c",
"`d c #adadad",
"`e c #aeaeae",
"`f c #8f8f8f",
"`g c #7373b7",
"`h c #b8b8df",
"`i c #9e9e9e",
"`j c #616161",
"`k c #656565",
"`l c #909090",
"`m c #8888c8",
"`n c #00007f",
"`o c #000085",
"`p c #00007e",
"`q c #000080",
"`r c #00007c",
"`s c #9999d0",
"`t c #999999",
"`u c #ababab",
"`v c #acacac",
"`w c #8d8d8d",
"`x c #e0e0ef",
"`y c #3d3da7",
"`z c #6f6fbe",
"`A c #5d5db5",
"`B c #a5a5d5",
"`C c #757575",
"`D c #838383",
"`E c #868686",
"`F c #696969",
"`G c #e2e2ec",
"`H c #e1e1f1",
"`I c #f8f8fb",
"`J c #acacd8",
"`K c #d7d7d7",
"`L c #dcdcdc",
"`M c #dfdfdf",
"`N c #d8d8d8",
"`O c #7f7fc4",
"`P c #000086",
"`Q c #5f5fb6",
"`R c #f7f7fb",
"`S c #3a3aa4",
"`T c #000082",
"`U c #121290",
"`V c #fcfcfe",
"`W c #676bbf",
"`X c #e3c1c1",
"`Y c #f3e4e4",
"`Z c #f0dfdf",
"`0 c #edd7d6",
"`1 c #fae0d8",
"`2 c #edd7d7",
"`3 c #ecd6d6",
"`4 c #ead1d1",
"`5 c #9f2626",
"`6 c #e4c5c5",
"`7 c #930e0e",
"`8 c #bc6a6a",
".` c #991919",
".. c #910a0a",
".# c #c98484",
".a c #c47d7d",
".b c #981717",
".c c #c27979",
".d c #d89894",
".e c #cc9191",
".f c #c17575",
".g c #d7a1a1",
".h c #870000",
".i c #d7a8a8",
".j c #d69f9f",
".k c #840000",
".l c #c67373",
".m c #cb8e8e",
".n c #d09797",
".o c #ab4242",
".p c #ac4747",
".q c #e1bcbc",
".r c #d29e9e",
".s c #ae4242",
".t c #deaeae",
".u c #c87876",
".v c #cf9797",
".w c #dcb2b2",
".x c #c88484",
".y c #d09191",
".z c #cb8c8c",
".A c #d19393",
".B c #fffefb",
".C c #930807",
".D c #ead2d1",
".E c #ac3738",
".F c #cb8d8d",
".G c #cc8b8b",
".H c #c98989",
".I c #cc8989",
".J c #fffdfc",
".K c #bf7171",
".L c #d39d9d",
".M c #d19999",
".N c #d29b9b",
".O c #000000",
".P c #000000",
".Q c #000000",
".R c #000000",
".S c #000000",
".T c #000000",
".U c #000000",
".V c #000000",
".W c #000000",
".X c #000000",
".Y c #000000",
".Z c #000000",
".0 c #000000",
".1 c #000000",
".2 c #000000",
".3 c #000000",
".4 c #000000",
".5 c #000000",
".6 c #000000",
".7 c #000000",
".8 c #000000",
"#` c #000000",
"#. c #000000",
"## c #000000",
"#a c #000000",
"#b c #000000",
"#c c #000000",
"#d c #000000",
"#e c #000000",
"#f c #000000",
"#g c #000000",
"#h c #000000",
"#i c #000000",
"#j c #000000",
"#k c #000000",
"#l c #000000",
"#m c #000000",
"#n c #000000",
"#o c #000000",
"#p c #000000",
"#q c #000000",
"#r c #000000",
"#s c #000000",
"#t c #000000",
"#u c #000000",
"#v c #000000",
"#w c #000000",
"#x c #000000",
"#y c #000000",
"#z c #000000",
"#A c #000000",
"#B c #000000",
"#C c #000000",
"#D c #000000",
"#E c #000000",
"#F c #000000",
"#G c #000000",
"#H c #000000",
"#I c #000000",
"#J c #000000",
"#K c #000000",
"#L c #000000",
"#M c #000000",
"#N c #000000",
"#O c #000000",
"#P c #000000",
"#Q c #000000",
"#R c #000000",
"#S c #000000",
"#T c #000000",
"#U c #000000",
"#V c #000000",
"#W c #000000",
"#X c #000000",
"#Y c #000000",
"#Z c #000000",
"#0 c #000000",
"#1 c #000000",
"#2 c #000000",
"#3 c #000000",
"#4 c #000000",
"#5 c #000000",
"#6 c #000000",
"#7 c #000000",
"#8 c #000000",
"a` c #000000",
"a. c #000000",
"a# c #000000",
"aa c #000000",
"ab c #000000",
"ac c #000000",
"ad c #000000",
"ae c #000000",
"af c #000000",
"ag c #000000",
"ah c #000000",
"ai c #000000",
"aj c #000000",
"ak c #000000",
"al c #000000",
"am c #000000",
"an c #000000",
"ao c #000000",
"ap c #000000",
"aq c #000000",
"ar c #000000",
"as c #000000",
"at c #000000",
"au c #000000",
"av c #000000",
"aw c #000000",
"ax c #000000",
"ay c #000000",
"az c #000000",
"aA c #000000",
"aB c #000000",
"aC c #000000",
"aD c #000000",
"aE c #000000",
"aF c #000000",
"aG c #000000",
"aH c #000000",
"aI c #000000",
"aJ c #000000",
"aK c #000000",
"aL c #000000",
"aM c #000000",
"aN c #000000",
"aO c #000000",
"aP c #000000",
"aQ c #000000",
"aR c #000000",
"aS c #000000",
"aT c #000000",
"aU c #000000",
"aV c #000000",
"aW c #000000",
"aX c #000000",
"aY c #000000",
"aZ c #000000",
"a0 c #000000",
"a1 c #000000",
"a2 c #000000",
"a3 c #000000",
"a4 c #000000",
"a5 c #000000",
"a6 c #000000",
"a7 c #000000",
"a8 c #000000",
/* pixels */
"````````````````````````````````````",
"````````````````````````````````````",
"```.`#`a`b``````````````````````````",
"```c`d`e`f`````g`h``````````````````",
"```i`j`k`l```m`n`o`p`q`r`s``````````",
"```t`u`v`w```x`n`y`z`A`o`B``````````",
"```C`D`E`F`````G`H```I`n`J``````````",
"```K`L`M`N```````````O`P`Q`R````````",
"`````````````````````S`T`U`V````````",
"```````````````````````W````````````",
"```````````````X`Y`Z`0`1```2`3`4````",
"`````````````5`6`7`8.`...#.a.b...c``",
"``````````.d.e````.f.g``.h.i.j``.k``",
"``````````.l.m````.n.o.p.q.r.s.p.t``",
"``````````.u.v``.w.x.y````.z.A``````",
"``````````.B.C.D.E.F.G````.H.I``````",
"````````````.J.K``.L.M````.N.N``````",
"````````````````````````````````````"
};
