/* XPM */
static char *flymake-err-menu_xpm[] = {
/* width height num_colors chars_per_pixel */
"    18    18      256            2",
/* colors */
"`` c #ffffff",
"`. c #096400",
"`# c #f2f3f0",
"`a c #f2f2f1",
"`b c #1ed608",
"`c c #d2f7ce",
"`d c #1ed509",
"`e c #f2f3f1",
"`f c #3dde14",
"`g c #aaf197",
"`h c #aaf098",
"`i c #a9f198",
"`j c #3ddd14",
"`k c #5fe720",
"`l c #85ec55",
"`m c #86ed55",
"`n c #85ed55",
"`o c #09d001",
"`p c #7eee2b",
"`q c #c80000",
"`r c #de6666",
"`s c #ebe766",
"`t c #ddd700",
"`u c #e85d5d",
"`v c #ea5d5d",
"`w c #f19e9e",
"`x c #fffa9d",
"`y c #fff75c",
"`z c #fff65d",
"`A c #ef0000",
"`B c #f56666",
"`C c #fff86b",
"`D c #fff609",
"`E c #fff409",
"`F c #fff40a",
"`G c #e50000",
"`H c #ef6666",
"`I c #f5f466",
"`J c #efec00",
"`K c #c90000",
"`L c #df6666",
"`M c #f7fef2",
"`N c #6ae924",
"`O c #e8fcde",
"`P c #c4f6a8",
"`Q c #6bea24",
"`R c #4ee21a",
"`S c #d1f7c4",
"`T c #aff298",
"`U c #66e639",
"`V c #32db10",
"`W c #b2f1a5",
"`X c #b1f1a4",
"`Y c #60e345",
"`Z c #32db0f",
"`0 c #000000",
"`1 c #000000",
"`2 c #000000",
"`3 c #000000",
"`4 c #000000",
"`5 c #000000",
"`6 c #000000",
"`7 c #000000",
"`8 c #000000",
".` c #000000",
".. c #000000",
".# c #000000",
".a c #000000",
".b c #000000",
".c c #000000",
".d c #000000",
".e c #000000",
".f c #000000",
".g c #000000",
".h c #000000",
".i c #000000",
".j c #000000",
".k c #000000",
".l c #000000",
".m c #000000",
".n c #000000",
".o c #000000",
".p c #000000",
".q c #000000",
".r c #000000",
".s c #000000",
".t c #000000",
".u c #000000",
".v c #000000",
".w c #000000",
".x c #000000",
".y c #000000",
".z c #000000",
".A c #000000",
".B c #000000",
".C c #000000",
".D c #000000",
".E c #000000",
".F c #000000",
".G c #000000",
".H c #000000",
".I c #000000",
".J c #000000",
".K c #000000",
".L c #000000",
".M c #000000",
".N c #000000",
".O c #000000",
".P c #000000",
".Q c #000000",
".R c #000000",
".S c #000000",
".T c #000000",
".U c #000000",
".V c #000000",
".W c #000000",
".X c #000000",
".Y c #000000",
".Z c #000000",
".0 c #000000",
".1 c #000000",
".2 c #000000",
".3 c #000000",
".4 c #000000",
".5 c #000000",
".6 c #000000",
".7 c #000000",
".8 c #000000",
"#` c #000000",
"#. c #000000",
"## c #000000",
"#a c #000000",
"#b c #000000",
"#c c #000000",
"#d c #000000",
"#e c #000000",
"#f c #000000",
"#g c #000000",
"#h c #000000",
"#i c #000000",
"#j c #000000",
"#k c #000000",
"#l c #000000",
"#m c #000000",
"#n c #000000",
"#o c #000000",
"#p c #000000",
"#q c #000000",
"#r c #000000",
"#s c #000000",
"#t c #000000",
"#u c #000000",
"#v c #000000",
"#w c #000000",
"#x c #000000",
"#y c #000000",
"#z c #000000",
"#A c #000000",
"#B c #000000",
"#C c #000000",
"#D c #000000",
"#E c #000000",
"#F c #000000",
"#G c #000000",
"#H c #000000",
"#I c #000000",
"#J c #000000",
"#K c #000000",
"#L c #000000",
"#M c #000000",
"#N c #000000",
"#O c #000000",
"#P c #000000",
"#Q c #000000",
"#R c #000000",
"#S c #000000",
"#T c #000000",
"#U c #000000",
"#V c #000000",
"#W c #000000",
"#X c #000000",
"#Y c #000000",
"#Z c #000000",
"#0 c #000000",
"#1 c #000000",
"#2 c #000000",
"#3 c #000000",
"#4 c #000000",
"#5 c #000000",
"#6 c #000000",
"#7 c #000000",
"#8 c #000000",
"a` c #000000",
"a. c #000000",
"a# c #000000",
"aa c #000000",
"ab c #000000",
"ac c #000000",
"ad c #000000",
"ae c #000000",
"af c #000000",
"ag c #000000",
"ah c #000000",
"ai c #000000",
"aj c #000000",
"ak c #000000",
"al c #000000",
"am c #000000",
"an c #000000",
"ao c #000000",
"ap c #000000",
"aq c #000000",
"ar c #000000",
"as c #000000",
"at c #000000",
"au c #000000",
"av c #000000",
"aw c #000000",
"ax c #000000",
"ay c #000000",
"az c #000000",
"aA c #000000",
"aB c #000000",
"aC c #000000",
"aD c #000000",
"aE c #000000",
"aF c #000000",
"aG c #000000",
"aH c #000000",
"aI c #000000",
"aJ c #000000",
"aK c #000000",
"aL c #000000",
"aM c #000000",
"aN c #000000",
"aO c #000000",
"aP c #000000",
"aQ c #000000",
"aR c #000000",
"aS c #000000",
"aT c #000000",
"aU c #000000",
"aV c #000000",
"aW c #000000",
"aX c #000000",
"aY c #000000",
"aZ c #000000",
"a0 c #000000",
"a1 c #000000",
"a2 c #000000",
"a3 c #000000",
"a4 c #000000",
"a5 c #000000",
"a6 c #000000",
"a7 c #000000",
"a8 c #000000",
/* pixels */
"````````````````````````````````````",
"````````````````````````````````````",
"```````.`.`.`.`.`.`.`.`.`.`.`.```#``",
"```a```.`b`c`c`c`c`c`c`c`c`d`.```e``",
"`````````.`f`g`h`h`i`h`h`j`.````````",
"```````````.`k`l`m`l`n`k`.``````````",
"`````````````.`o`p`p`o`.````````````",
"```q`q`q`q`q`r`.`o`o`.`s`t`t`t`t`t``",
"```u`u`u`v`u`u`w`.`.`x`y`y`y`y`z`z``",
"```A`A`A`A`A`A`A`B`C`D`E`F`D`D`D`F``",
"```G`G`G`G`G`G`H`.`.`I`J`J`J`J`J`J``",
"```K`K`K`K`K`L`.`o`o`.`s`t`t`t`t`t``",
"`````````````.`o`M`M`o`.````````````",
"```````````.`N`O`O`O`P`Q`.``````````",
"`````````.`R`S`S`S`T`U`R`R`.````````",
"```````.`V`W`W`W`X`Y`V`Z`Z`Z`.``````",
"```````.`.`.`.`.`.`.`.`.`.`.`.``````",
"````````````````````````````````````"
};
