/* XPM */
static char *folding_xpm[] = {
/* width height num_colors chars_per_pixel */
"    18    18      256            2",
/* colors */
"`` c #ffffff",
"`. c #f1f4f6",
"`# c #ccd5df",
"`a c #a2adbc",
"`b c #8b99ad",
"`c c #eef2f4",
"`d c #adbbca",
"`e c #b3c2d0",
"`f c #d6e0e7",
"`g c #e9f6fb",
"`h c #bfcbd7",
"`i c #deeef8",
"`j c #242c43",
"`k c #8ea3b8",
"`l c #b9d4e4",
"`m c #cae7f6",
"`n c #768ca6",
"`o c #a8d4ed",
"`p c #899fb4",
"`q c #adcadd",
"`r c #beddef",
"`s c #b5c3d3",
"`t c #a2b4c6",
"`u c #c9e1ee",
"`v c #e3eef7",
"`w c #bdd1dd",
"`x c #cee5ed",
"`y c #e8eef1",
"`z c #e0e4ea",
"`A c #c4cdd8",
"`B c #b5becb",
"`C c #bbc6d3",
"`D c #93a4b5",
"`E c #8492a7",
"`F c #d0dae4",
"`G c #eff7fe",
"`H c #eaf7fc",
"`I c #d5e4ed",
"`J c #8b96ab",
"`K c #d7ebf6",
"`L c #d8ecf6",
"`M c #c2d1dd",
"`N c #e0e8ee",
"`O c #c6d3dd",
"`P c #000000",
"`Q c #000000",
"`R c #000000",
"`S c #000000",
"`T c #000000",
"`U c #000000",
"`V c #000000",
"`W c #000000",
"`X c #000000",
"`Y c #000000",
"`Z c #000000",
"`0 c #000000",
"`1 c #000000",
"`2 c #000000",
"`3 c #000000",
"`4 c #000000",
"`5 c #000000",
"`6 c #000000",
"`7 c #000000",
"`8 c #000000",
".` c #000000",
".. c #000000",
".# c #000000",
".a c #000000",
".b c #000000",
".c c #000000",
".d c #000000",
".e c #000000",
".f c #000000",
".g c #000000",
".h c #000000",
".i c #000000",
".j c #000000",
".k c #000000",
".l c #000000",
".m c #000000",
".n c #000000",
".o c #000000",
".p c #000000",
".q c #000000",
".r c #000000",
".s c #000000",
".t c #000000",
".u c #000000",
".v c #000000",
".w c #000000",
".x c #000000",
".y c #000000",
".z c #000000",
".A c #000000",
".B c #000000",
".C c #000000",
".D c #000000",
".E c #000000",
".F c #000000",
".G c #000000",
".H c #000000",
".I c #000000",
".J c #000000",
".K c #000000",
".L c #000000",
".M c #000000",
".N c #000000",
".O c #000000",
".P c #000000",
".Q c #000000",
".R c #000000",
".S c #000000",
".T c #000000",
".U c #000000",
".V c #000000",
".W c #000000",
".X c #000000",
".Y c #000000",
".Z c #000000",
".0 c #000000",
".1 c #000000",
".2 c #000000",
".3 c #000000",
".4 c #000000",
".5 c #000000",
".6 c #000000",
".7 c #000000",
".8 c #000000",
"#` c #000000",
"#. c #000000",
"## c #000000",
"#a c #000000",
"#b c #000000",
"#c c #000000",
"#d c #000000",
"#e c #000000",
"#f c #000000",
"#g c #000000",
"#h c #000000",
"#i c #000000",
"#j c #000000",
"#k c #000000",
"#l c #000000",
"#m c #000000",
"#n c #000000",
"#o c #000000",
"#p c #000000",
"#q c #000000",
"#r c #000000",
"#s c #000000",
"#t c #000000",
"#u c #000000",
"#v c #000000",
"#w c #000000",
"#x c #000000",
"#y c #000000",
"#z c #000000",
"#A c #000000",
"#B c #000000",
"#C c #000000",
"#D c #000000",
"#E c #000000",
"#F c #000000",
"#G c #000000",
"#H c #000000",
"#I c #000000",
"#J c #000000",
"#K c #000000",
"#L c #000000",
"#M c #000000",
"#N c #000000",
"#O c #000000",
"#P c #000000",
"#Q c #000000",
"#R c #000000",
"#S c #000000",
"#T c #000000",
"#U c #000000",
"#V c #000000",
"#W c #000000",
"#X c #000000",
"#Y c #000000",
"#Z c #000000",
"#0 c #000000",
"#1 c #000000",
"#2 c #000000",
"#3 c #000000",
"#4 c #000000",
"#5 c #000000",
"#6 c #000000",
"#7 c #000000",
"#8 c #000000",
"a` c #000000",
"a. c #000000",
"a# c #000000",
"aa c #000000",
"ab c #000000",
"ac c #000000",
"ad c #000000",
"ae c #000000",
"af c #000000",
"ag c #000000",
"ah c #000000",
"ai c #000000",
"aj c #000000",
"ak c #000000",
"al c #000000",
"am c #000000",
"an c #000000",
"ao c #000000",
"ap c #000000",
"aq c #000000",
"ar c #000000",
"as c #000000",
"at c #000000",
"au c #000000",
"av c #000000",
"aw c #000000",
"ax c #000000",
"ay c #000000",
"az c #000000",
"aA c #000000",
"aB c #000000",
"aC c #000000",
"aD c #000000",
"aE c #000000",
"aF c #000000",
"aG c #000000",
"aH c #000000",
"aI c #000000",
"aJ c #000000",
"aK c #000000",
"aL c #000000",
"aM c #000000",
"aN c #000000",
"aO c #000000",
"aP c #000000",
"aQ c #000000",
"aR c #000000",
"aS c #000000",
"aT c #000000",
"aU c #000000",
"aV c #000000",
"aW c #000000",
"aX c #000000",
"aY c #000000",
"aZ c #000000",
"a0 c #000000",
"a1 c #000000",
"a2 c #000000",
"a3 c #000000",
"a4 c #000000",
"a5 c #000000",
"a6 c #000000",
"a7 c #000000",
"a8 c #000000",
/* pixels */
"````````````````````````````````````",
"`````.`#`a`b`a`#`.``````````````````",
"```c`d`e`f`g`f`e`d`c````````````````",
"```h`d`i`i`j`i`i`d`h````````````````",
"```k`l`m`m`j`m`m`l`k````````````````",
"```n`o`j`j`j`j`j`o`n````````````````",
"```p`q`r`r`j`r`r`q`p````````````````",
"```s`t`u`u`j`u`u`t`s````````````````",
"```v`t`t`w`x`w`t`t`y`z`A`B`A`z`y````",
"`````c`C`D`E`D`C`y`#`F`y`G`y`#`#`y``",
"`````````````````f`#`H`H`H`H`H`#`f``",
"`````````````````s`I`i`i`i`i`i`I`s``",
"`````````````````t`m`J`J`J`J`J`m`t``",
"`````````````````e`u`K`K`K`L`K`u`e``",
"`````````````````F`M`i`i`i`i`i`M`F``",
"`````````````````N`A`O`I`i`I`O`A`N``",
"```````````````````N`f`C`d`C`f`N````",
"````````````````````````````````````"
};
