/* XPM */
static char *format-region_xpm[] = {
/* width height num_colors chars_per_pixel */
"    18    18      256            2",
/* colors */
"`` c #000000",
"`. c #ffffff",
"`# c #100f10",
"`a c #535253",
"`b c #464546",
"`c c #6a696a",
"`d c #575657",
"`e c #1e1e1f",
"`f c #262627",
"`g c #2f2f30",
"`h c #76a5e3",
"`i c #7ba8e4",
"`j c #80abe6",
"`k c #85b0e8",
"`l c #8cb4e9",
"`m c #92b8ea",
"`n c #98bcec",
"`o c #9ebfed",
"`p c #a2c2ee",
"`q c #a5c4ef",
"`r c #2a2b2b",
"`s c #525353",
"`t c #222322",
"`u c #3c3d3c",
"`v c #696a69",
"`w c #626362",
"`x c #565756",
"`y c #171716",
"`z c #2b2b2a",
"`A c #343433",
"`B c #5f5f5e",
"`C c #1b1a1a",
"`D c #6d6c6c",
"`E c #727272",
"`F c #6f6f6f",
"`G c #666666",
"`H c #626262",
"`I c #5b5b5b",
"`J c #535353",
"`K c #4e4e4e",
"`L c #4a4a4a",
"`M c #464646",
"`N c #454545",
"`O c #414141",
"`P c #3d3d3d",
"`Q c #3c3c3c",
"`R c #383838",
"`S c #2f2f2f",
"`T c #2b2b2b",
"`U c #272727",
"`V c #222222",
"`W c #1e1e1e",
"`X c #131313",
"`Y c #ffffff",
"`Z c #000000",
"`0 c #000000",
"`1 c #000000",
"`2 c #000000",
"`3 c #000000",
"`4 c #000000",
"`5 c #000000",
"`6 c #000000",
"`7 c #000000",
"`8 c #000000",
".` c #000000",
".. c #000000",
".# c #000000",
".a c #000000",
".b c #000000",
".c c #000000",
".d c #000000",
".e c #000000",
".f c #000000",
".g c #000000",
".h c #000000",
".i c #000000",
".j c #000000",
".k c #000000",
".l c #000000",
".m c #000000",
".n c #000000",
".o c #000000",
".p c #000000",
".q c #000000",
".r c #000000",
".s c #000000",
".t c #000000",
".u c #000000",
".v c #000000",
".w c #000000",
".x c #000000",
".y c #000000",
".z c #000000",
".A c #000000",
".B c #000000",
".C c #000000",
".D c #000000",
".E c #000000",
".F c #000000",
".G c #000000",
".H c #000000",
".I c #000000",
".J c #000000",
".K c #000000",
".L c #000000",
".M c #000000",
".N c #000000",
".O c #000000",
".P c #000000",
".Q c #000000",
".R c #000000",
".S c #000000",
".T c #000000",
".U c #000000",
".V c #000000",
".W c #000000",
".X c #000000",
".Y c #000000",
".Z c #000000",
".0 c #000000",
".1 c #000000",
".2 c #000000",
".3 c #000000",
".4 c #000000",
".5 c #000000",
".6 c #000000",
".7 c #000000",
".8 c #000000",
"#` c #000000",
"#. c #000000",
"## c #000000",
"#a c #000000",
"#b c #000000",
"#c c #000000",
"#d c #000000",
"#e c #000000",
"#f c #000000",
"#g c #000000",
"#h c #000000",
"#i c #000000",
"#j c #000000",
"#k c #000000",
"#l c #000000",
"#m c #000000",
"#n c #000000",
"#o c #000000",
"#p c #000000",
"#q c #000000",
"#r c #000000",
"#s c #000000",
"#t c #000000",
"#u c #000000",
"#v c #000000",
"#w c #000000",
"#x c #000000",
"#y c #000000",
"#z c #000000",
"#A c #000000",
"#B c #000000",
"#C c #000000",
"#D c #000000",
"#E c #000000",
"#F c #000000",
"#G c #000000",
"#H c #000000",
"#I c #000000",
"#J c #000000",
"#K c #000000",
"#L c #000000",
"#M c #000000",
"#N c #000000",
"#O c #000000",
"#P c #000000",
"#Q c #000000",
"#R c #000000",
"#S c #000000",
"#T c #000000",
"#U c #000000",
"#V c #000000",
"#W c #000000",
"#X c #000000",
"#Y c #000000",
"#Z c #000000",
"#0 c #000000",
"#1 c #000000",
"#2 c #000000",
"#3 c #000000",
"#4 c #000000",
"#5 c #000000",
"#6 c #000000",
"#7 c #000000",
"#8 c #000000",
"a` c #000000",
"a. c #000000",
"a# c #000000",
"aa c #000000",
"ab c #000000",
"ac c #000000",
"ad c #000000",
"ae c #000000",
"af c #000000",
"ag c #000000",
"ah c #000000",
"ai c #000000",
"aj c #000000",
"ak c #000000",
"al c #000000",
"am c #000000",
"an c #000000",
"ao c #000000",
"ap c #000000",
"aq c #000000",
"ar c #000000",
"as c #000000",
"at c #000000",
"au c #000000",
"av c #000000",
"aw c #000000",
"ax c #000000",
"ay c #000000",
"az c #000000",
"aA c #000000",
"aB c #000000",
"aC c #000000",
"aD c #000000",
"aE c #000000",
"aF c #000000",
"aG c #000000",
"aH c #000000",
"aI c #000000",
"aJ c #000000",
"aK c #000000",
"aL c #000000",
"aM c #000000",
"aN c #000000",
"aO c #000000",
"aP c #000000",
"aQ c #000000",
"aR c #000000",
"aS c #000000",
"aT c #000000",
"aU c #000000",
"aV c #000000",
"aW c #000000",
"aX c #000000",
"aY c #000000",
"aZ c #000000",
"a0 c #000000",
"a1 c #000000",
"a2 c #000000",
"a3 c #000000",
"a4 c #000000",
"a5 c #000000",
"a6 c #000000",
"a7 c #000000",
"a8 c #000000",
/* pixels */
"`.`.`.`.`.`.`.`.`.`.`.`.`.`.`.`.`.`.",
"`.`.`.`.`.`.`.`.`.`.`.`.`.`.`.`.`.`.",
"`.`.`E`F`D`c`G`H`B`I`d`a`K`L`b`O`.`.",
"`.`.`.`.`.`.`.`.`.`.`.`.`.`.`.`.`.`.",
"`.`.`D`v`G`w`B`I`x`s`K`L`b`O`.`.`.`.",
"`.`.`.`.`.`.`.`.`.`.`.`.`.`.`.`.`.`.",
"`.`.`.`.`.`q`.`J`K`L`M`O`P`.`.`.`.`.",
"`.`.`.`.`.`p`.`.`.`.`.`.`.`.`.`.`.`.",
"`.`.`.`.`.`o`.`.`N`O`Q`R`A`g`z`.`.`.",
"`.`.`.`.`.`n`.`.`.`.`.`.`.`.`.`.`.`.",
"`.`.`.`.`.`m`.`.`u`R`A`S`r`f`V`W`.`.",
"`.`.`.`.`.`l`.`.`.`.`.`.`.`.`.`.`.`.",
"`.`.`.`.`.`k`.`.`A`S`T`U`.`.`.`.`.`.",
"`.`.`.`.`.`j`.`.`.`.`.`.`.`.`.`.`.`.",
"`.`.`.`.`.`i`.`S`T`f`t`e`C`y`X`#`.`.",
"`.`.`.`.`.`h`.`.`.`.`.`.`.`.`.`.`.`.",
"`.`.`.`.`.`.`.`.`.`.`.`.`.`.`.`.`.`.",
"`.`.`.`.`.`.`.`.`.`.`.`.`.`.`.`.`.`."
};
