/* XPM */
static char *line-wrap_xpm[] = {
/* width height num_colors chars_per_pixel */
"    18    18      256            2",
/* colors */
"`` c #ffffff",
"`. c #191456",
"`# c #0a0c33",
"`a c #080f46",
"`b c #060e3d",
"`c c #140e66",
"`d c #0f0e50",
"`e c #1b2175",
"`f c #0d1458",
"`g c #0a0468",
"`h c #1d1c79",
"`i c #151b8b",
"`j c #020758",
"`k c #02005f",
"`l c #191785",
"`m c #1b1b4f",
"`n c #1d2355",
"`o c #1f1fa3",
"`p c #17176d",
"`q c #242575",
"`r c #05047c",
"`s c #7a75f3",
"`t c #15125f",
"`u c #0e115e",
"`v c #6d69ff",
"`w c #000088",
"`x c #221d6f",
"`y c #7f85c1",
"`z c #0a0887",
"`A c #1c17a7",
"`B c #211b7f",
"`C c #05046a",
"`D c #160ebb",
"`E c #2217b3",
"`F c #887cc6",
"`G c #181797",
"`H c #03009a",
"`I c #060074",
"`J c #141089",
"`K c #0500af",
"`L c #1a09a7",
"`M c #5e3d07",
"`N c #512500",
"`O c #713746",
"`P c #181580",
"`Q c #12089c",
"`R c #17099a",
"`S c #1a0d9b",
"`T c #120794",
"`U c #1f12aa",
"`V c #1604b0",
"`W c #180592",
"`X c #672b45",
"`Y c #8f86c7",
"`Z c #170a76",
"`0 c #2817b3",
"`1 c #0800a1",
"`2 c #230faf",
"`3 c #1b079c",
"`4 c #1d0b91",
"`5 c #7667ce",
"`6 c #64252e",
"`7 c #1d125e",
"`8 c #0c0181",
".` c #847bff",
".. c #756ced",
".# c #150c79",
".a c #201466",
".b c #522125",
".c c #5c2018",
".d c #7e7baa",
".e c #0c1653",
".f c #0d1c3d",
".g c #5f5e70",
".h c #6c211b",
".i c #892f24",
".j c #7d321b",
".k c #6b311b",
".l c #7a2510",
".m c #791400",
".n c #80210b",
".o c #622207",
".p c #7b2d17",
".q c #5f3421",
".r c #000000",
".s c #000000",
".t c #000000",
".u c #000000",
".v c #000000",
".w c #000000",
".x c #000000",
".y c #000000",
".z c #000000",
".A c #000000",
".B c #000000",
".C c #000000",
".D c #000000",
".E c #000000",
".F c #000000",
".G c #000000",
".H c #000000",
".I c #000000",
".J c #000000",
".K c #000000",
".L c #000000",
".M c #000000",
".N c #000000",
".O c #000000",
".P c #000000",
".Q c #000000",
".R c #000000",
".S c #000000",
".T c #000000",
".U c #000000",
".V c #000000",
".W c #000000",
".X c #000000",
".Y c #000000",
".Z c #000000",
".0 c #000000",
".1 c #000000",
".2 c #000000",
".3 c #000000",
".4 c #000000",
".5 c #000000",
".6 c #000000",
".7 c #000000",
".8 c #000000",
"#` c #000000",
"#. c #000000",
"## c #000000",
"#a c #000000",
"#b c #000000",
"#c c #000000",
"#d c #000000",
"#e c #000000",
"#f c #000000",
"#g c #000000",
"#h c #000000",
"#i c #000000",
"#j c #000000",
"#k c #000000",
"#l c #000000",
"#m c #000000",
"#n c #000000",
"#o c #000000",
"#p c #000000",
"#q c #000000",
"#r c #000000",
"#s c #000000",
"#t c #000000",
"#u c #000000",
"#v c #000000",
"#w c #000000",
"#x c #000000",
"#y c #000000",
"#z c #000000",
"#A c #000000",
"#B c #000000",
"#C c #000000",
"#D c #000000",
"#E c #000000",
"#F c #000000",
"#G c #000000",
"#H c #000000",
"#I c #000000",
"#J c #000000",
"#K c #000000",
"#L c #000000",
"#M c #000000",
"#N c #000000",
"#O c #000000",
"#P c #000000",
"#Q c #000000",
"#R c #000000",
"#S c #000000",
"#T c #000000",
"#U c #000000",
"#V c #000000",
"#W c #000000",
"#X c #000000",
"#Y c #000000",
"#Z c #000000",
"#0 c #000000",
"#1 c #000000",
"#2 c #000000",
"#3 c #000000",
"#4 c #000000",
"#5 c #000000",
"#6 c #000000",
"#7 c #000000",
"#8 c #000000",
"a` c #000000",
"a. c #000000",
"a# c #000000",
"aa c #000000",
"ab c #000000",
"ac c #000000",
"ad c #000000",
"ae c #000000",
"af c #000000",
"ag c #000000",
"ah c #000000",
"ai c #000000",
"aj c #000000",
"ak c #000000",
"al c #000000",
"am c #000000",
"an c #000000",
"ao c #000000",
"ap c #000000",
"aq c #000000",
"ar c #000000",
"as c #000000",
"at c #000000",
"au c #000000",
"av c #000000",
"aw c #000000",
"ax c #000000",
"ay c #000000",
"az c #000000",
"aA c #000000",
"aB c #000000",
"aC c #000000",
"aD c #000000",
"aE c #000000",
"aF c #000000",
"aG c #000000",
"aH c #000000",
"aI c #000000",
"aJ c #000000",
"aK c #000000",
"aL c #000000",
"aM c #000000",
"aN c #000000",
"aO c #000000",
"aP c #000000",
"aQ c #000000",
"aR c #000000",
"aS c #000000",
"aT c #000000",
"aU c #000000",
"aV c #000000",
"aW c #000000",
"aX c #000000",
"aY c #000000",
"aZ c #000000",
"a0 c #000000",
"a1 c #000000",
"a2 c #000000",
"a3 c #000000",
"a4 c #000000",
"a5 c #000000",
"a6 c #000000",
"a7 c #000000",
"a8 c #000000",
/* pixels */
"````````````````````````````````````",
"````````````````````````````````````",
"`````.`#`````````````a`b````````````",
"`````c`d`````````````e`f````````````",
"`````g`h`````````````i`j````````````",
"`````k`l`````m`n`````o`p````````````",
"`````q`r`s```t`u```v`w`x````````````",
"`````y`z`A```B`C```D`E`F````````````",
"```````G`H```I`J```K`L`````M`N`O````",
"```````P`Q`R`S`T`U`V`W```````````X``",
"```````Y`Z`0`1`2`3`4`5```````````6``",
"`````````7`8.`...#.a``````.b````.c``",
"````````.d.e````.f.g````.h.i``.j````",
"``````````````````````.k.l.m.n``````",
"````````````````````````.o.p````````",
"``````````````````````````.q````````",
"````````````````````````````````````",
"````````````````````````````````````"
};
