/* XPM */
static char *recent-forward_xpm[] = {
/* width height num_colors chars_per_pixel */
"    18    18      256            2",
/* colors */
"`` c #ffffff",
"`. c #f9f4e9",
"`# c #f8f4ef",
"`a c #dab86d",
"`b c #bf8e29",
"`c c #f8f8fb",
"`d c #dbbc7b",
"`e c #dfa933",
"`f c #c69e4f",
"`g c #f8f6f8",
"`h c #dbbe80",
"`i c #e9b84e",
"`j c #efc159",
"`k c #c99f4b",
"`l c #f4efeb",
"`m c #f1e5ca",
"`n c #dec288",
"`o c #dfc48c",
"`p c #e1c895",
"`q c #c79b3b",
"`r c #e7b74f",
"`s c #fcd175",
"`t c #e9b94f",
"`u c #c99e49",
"`v c #f9f8fc",
"`w c #d9b973",
"`x c #d69d23",
"`y c #e3b042",
"`z c #e2af40",
"`A c #e3b146",
"`B c #f3c768",
"`C c #f7cd6f",
"`D c #f9d074",
"`E c #ebbb51",
"`F c #c7a054",
"`G c #f9f7fa",
"`H c #dabb7a",
"`I c #e7b448",
"`J c #f6cb6d",
"`K c #f5c96a",
"`L c #f3c767",
"`M c #f2c666",
"`N c #f5cb6c",
"`O c #e9ba50",
"`P c #f5efe7",
"`Q c #dabc7b",
"`R c #e1ac3c",
"`S c #f1c361",
"`T c #efc15e",
"`U c #efc15d",
"`V c #f2c669",
"`W c #e3b95d",
"`X c #c59736",
"`Y c #f5f0e6",
"`Z c #dabd7b",
"`0 c #dea835",
"`1 c #edbe59",
"`2 c #ecbc56",
"`3 c #f0c56a",
"`4 c #e5bc62",
"`5 c #c89835",
"`6 c #edddbe",
"`7 c #dbbd7c",
"`8 c #dca631",
".` c #e9b950",
".. c #e7b74d",
".# c #e7b74c",
".a c #e9bb55",
".b c #efcb78",
".c c #c28911",
".d c #e2c997",
".e c #dbbd7d",
".f c #d9a22a",
".g c #e5b347",
".h c #e4b245",
".i c #e4b244",
".j c #e5b44a",
".k c #e3b858",
".l c #c39023",
".m c #e8d9ba",
".n c #dbbe7d",
".o c #d79e24",
".p c #e1ad3e",
".q c #e1ad3d",
".r c #e1ad3c",
".s c #e1b148",
".t c #c89935",
".u c #e7d6b7",
".v c #dbbc79",
".w c #d19514",
".x c #dca52e",
".y c #dba42d",
".z c #dca632",
".A c #dda836",
".B c #dda835",
".C c #dea836",
".D c #e2b248",
".E c #c69631",
".F c #ebe3d2",
".G c #e7d2a5",
".H c #cb9d3c",
".I c #cda145",
".J c #cea44a",
".K c #c18d1f",
".L c #d19a24",
".M c #daa739",
".N c #d8a635",
".O c #c2922c",
".P c #f1f2fc",
".Q c #dfc488",
".R c #cf9a22",
".S c #d8a633",
".T c #c3973b",
".U c #e2ddd9",
".V c #dcbe7e",
".W c #d1991c",
".X c #c1922e",
".Y c #dedada",
".Z c #dbba73",
".0 c #bd8713",
".1 c #eaedff",
".2 c #eedebb",
".3 c #ebe2d8",
".4 c #000000",
".5 c #000000",
".6 c #000000",
".7 c #000000",
".8 c #000000",
"#` c #000000",
"#. c #000000",
"## c #000000",
"#a c #000000",
"#b c #000000",
"#c c #000000",
"#d c #000000",
"#e c #000000",
"#f c #000000",
"#g c #000000",
"#h c #000000",
"#i c #000000",
"#j c #000000",
"#k c #000000",
"#l c #000000",
"#m c #000000",
"#n c #000000",
"#o c #000000",
"#p c #000000",
"#q c #000000",
"#r c #000000",
"#s c #000000",
"#t c #000000",
"#u c #000000",
"#v c #000000",
"#w c #000000",
"#x c #000000",
"#y c #000000",
"#z c #000000",
"#A c #000000",
"#B c #000000",
"#C c #000000",
"#D c #000000",
"#E c #000000",
"#F c #000000",
"#G c #000000",
"#H c #000000",
"#I c #000000",
"#J c #000000",
"#K c #000000",
"#L c #000000",
"#M c #000000",
"#N c #000000",
"#O c #000000",
"#P c #000000",
"#Q c #000000",
"#R c #000000",
"#S c #000000",
"#T c #000000",
"#U c #000000",
"#V c #000000",
"#W c #000000",
"#X c #000000",
"#Y c #000000",
"#Z c #000000",
"#0 c #000000",
"#1 c #000000",
"#2 c #000000",
"#3 c #000000",
"#4 c #000000",
"#5 c #000000",
"#6 c #000000",
"#7 c #000000",
"#8 c #000000",
"a` c #000000",
"a. c #000000",
"a# c #000000",
"aa c #000000",
"ab c #000000",
"ac c #000000",
"ad c #000000",
"ae c #000000",
"af c #000000",
"ag c #000000",
"ah c #000000",
"ai c #000000",
"aj c #000000",
"ak c #000000",
"al c #000000",
"am c #000000",
"an c #000000",
"ao c #000000",
"ap c #000000",
"aq c #000000",
"ar c #000000",
"as c #000000",
"at c #000000",
"au c #000000",
"av c #000000",
"aw c #000000",
"ax c #000000",
"ay c #000000",
"az c #000000",
"aA c #000000",
"aB c #000000",
"aC c #000000",
"aD c #000000",
"aE c #000000",
"aF c #000000",
"aG c #000000",
"aH c #000000",
"aI c #000000",
"aJ c #000000",
"aK c #000000",
"aL c #000000",
"aM c #000000",
"aN c #000000",
"aO c #000000",
"aP c #000000",
"aQ c #000000",
"aR c #000000",
"aS c #000000",
"aT c #000000",
"aU c #000000",
"aV c #000000",
"aW c #000000",
"aX c #000000",
"aY c #000000",
"aZ c #000000",
"a0 c #000000",
"a1 c #000000",
"a2 c #000000",
"a3 c #000000",
"a4 c #000000",
"a5 c #000000",
"a6 c #000000",
"a7 c #000000",
"a8 c #000000",
/* pixels */
"```````````````.`#``````````````````",
"```````````````a`b`c````````````````",
"```````````````d`e`f`g``````````````",
"```````````````h`i`j`k`l````````````",
"```m`n`o`o`o`p`q`r`s`t`u`v``````````",
"```w`x`y`z`z`z`A`B`C`D`E`F`G````````",
"```H`I`J`K`K`K`K`L`M`M`N`O`k`P``````",
"```Q`R`S`T`T`T`T`T`T`T`U`V`W`X`Y````",
"```Z`0`1`2`2`2`2`2`2`2`2`2`3`4`5`6``",
"```7`8.`.................#.a.b.c.d``",
"``.e.f.g.h.h.h.h.h.h.h.i.j.k.l.m````",
"``.n.o`z.p.p.p.p.p.p.q.r.s.t.u``````",
"``.v.w.x.y.y.y.z.A.B.C.D.E.F````````",
"``.G.H.I.I.I.J.K.L.M.N.O.P``````````",
"``````````````.Q.R.S.T.U````````````",
"``````````````.V.W.X.Y``````````````",
"``````````````.Z.0.1````````````````",
"``````````````.2.3``````````````````"
};
