/* XPM */
static char *remember_xpm[] = {
/* width height num_colors chars_per_pixel */
"    18    18      256            2",
/* colors */
"`` c #ffffff",
"`. c #dededa",
"`# c #bebeba",
"`a c #9f9f9d",
"`b c #a3a39f",
"`c c #a2a29e",
"`d c #b1b3b3",
"`e c #4d4c47",
"`f c #1f1b0f",
"`g c #7d7461",
"`h c #a8aaab",
"`i c #d3d3ce",
"`j c #e2e2de",
"`k c #d8d8d4",
"`l c #e5e5e0",
"`m c #383837",
"`n c #5e5e60",
"`o c #808082",
"`p c #7a7a7b",
"`q c #7b7b7b",
"`r c #7a7a7a",
"`s c #8c8e92",
"`t c #1f1912",
"`u c #cdad57",
"`v c #ffdb5c",
"`w c #472b00",
"`x c #3a3f4c",
"`y c #616160",
"`z c #cececa",
"`A c #e2e2dd",
"`B c #575755",
"`C c #f2f2f2",
"`D c #feffff",
"`E c #422c00",
"`F c #ffee84",
"`G c #8e5b00",
"`H c #4d586b",
"`I c #f5f5f5",
"`J c #787878",
"`K c #3d3d3d",
"`L c #e3e3de",
"`M c #525251",
"`N c #dddddd",
"`O c #fdfdfd",
"`P c #fefefd",
"`Q c #51515a",
"`R c #fcd05e",
"`S c #dca930",
"`T c #3c311f",
"`U c #cfd4de",
"`V c #c9c9c8",
"`W c #696968",
"`X c #000000",
"`Y c #a6a6a3",
"`Z c #525252",
"`0 c #f8f8f8",
"`1 c #b6c0d3",
"`2 c #5a3b02",
"`3 c #ffffa7",
"`4 c #7e4900",
"`5 c #485161",
"`6 c #ebeaeb",
"`7 c #dbdbda",
"`8 c #aaaaa6",
".` c #dcdcdc",
".. c #fcfcfc",
".# c #f9f8f8",
".a c #fbffff",
".b c #756b5b",
".c c #d0c28f",
".d c #f0a216",
".e c #241b08",
".f c #c1c3cc",
".g c #f3f3f2",
".h c #e9e9e7",
".i c #fcfcfa",
".j c #59595a",
".k c #535352",
".l c #dcdcdd",
".m c #f8f8f9",
".n c #fcfcfe",
".o c #d6d6d7",
".p c #766236",
".q c #ffef84",
".r c #783f00",
".s c #495467",
".t c #f8f8f5",
".u c #dcdcdb",
".v c #e0e0dd",
".w c #ededec",
".x c #505050",
".y c #a7a7a3",
".z c #f2f2f0",
".A c #3d424a",
".B c #cbbb86",
".C c #ffd631",
".D c #bfc1c3",
".E c #f0f0ec",
".F c #e0e0de",
".G c #545452",
".H c #d9d9da",
".I c #fcfbfa",
".J c #a3adc0",
".K c #cb9b3b",
".L c #ffa903",
".M c #654000",
".N c #2c374f",
".O c #dededb",
".P c #dcdcd8",
".Q c #dadad7",
".R c #e9e9e5",
".S c #515150",
".T c #d8d8d8",
".U c #555658",
".V c #9da19c",
".W c #787053",
".X c #f0f1ef",
".Y c #c2c2bf",
".Z c #7a7a78",
".0 c #e5e5e1",
".1 c #d5d5d3",
".2 c #e7e7e3",
".3 c #4f4f4e",
".4 c #a7a7a4",
".5 c #545453",
".6 c #d7d7d7",
".7 c #f6f6f4",
".8 c #777777",
"#` c #2a2929",
"#. c #2c2e31",
"## c #6e6d69",
"#a c #e8e9e6",
"#b c #c5c5c1",
"#c c #bdbdb9",
"#d c #d7d7d4",
"#e c #d2d2cf",
"#f c #e3e3e1",
"#g c #515151",
"#h c #555554",
"#i c #d6d6d6",
"#j c #e9e9e6",
"#k c #939392",
"#l c #414141",
"#m c #a3a3a2",
"#n c #cacac9",
"#o c #bebebb",
"#p c #c6c6c3",
"#q c #cdcdca",
"#r c #cacac7",
"#s c #ccccc9",
"#t c #dfdfdc",
"#u c #4d4d4e",
"#v c #d5d5d5",
"#w c #d4d4d0",
"#x c #c7c7c5",
"#y c #b6b6b3",
"#z c #8f8f8d",
"#A c #878784",
"#B c #959592",
"#C c #9f9f9b",
"#D c #ababa8",
"#E c #b4b4b1",
"#F c #b8b8b4",
"#G c #d2d2ce",
"#H c #4c4c4c",
"#I c #a7a7a5",
"#J c #545454",
"#K c #d3d3d4",
"#L c #d5d5d0",
"#M c #d4d4d1",
"#N c #d0d0ce",
"#O c #c1c1be",
"#P c #b0b0ac",
"#Q c #a0a09d",
"#R c #9c9c99",
"#S c #9d9d9a",
"#T c #a1a19f",
"#U c #a6a6a4",
"#V c #c3c3bf",
"#W c #464647",
"#X c #a9a9a6",
"#Y c #5c5c5a",
"#Z c #f7f7f7",
"#0 c #e7e7e4",
"#1 c #e6e6e3",
"#2 c #cacac6",
"#3 c #c5c5c2",
"#4 c #b9b9b5",
"#5 c #d3d3cf",
"#6 c #39393a",
"#7 c #a0a09c",
"#8 c #4a4a48",
"a` c #111111",
"a. c #181819",
"a# c #1a1a18",
"aa c #19191a",
"ab c #1a1a1a",
"ac c #1a1a19",
"ad c #181818",
"ae c #191918",
"af c #181817",
"ag c #151515",
"ah c #0a0a0a",
"ai c #434341",
"aj c #000000",
"ak c #000000",
"al c #000000",
"am c #000000",
"an c #000000",
"ao c #000000",
"ap c #000000",
"aq c #000000",
"ar c #000000",
"as c #000000",
"at c #000000",
"au c #000000",
"av c #000000",
"aw c #000000",
"ax c #000000",
"ay c #000000",
"az c #000000",
"aA c #000000",
"aB c #000000",
"aC c #000000",
"aD c #000000",
"aE c #000000",
"aF c #000000",
"aG c #000000",
"aH c #000000",
"aI c #000000",
"aJ c #000000",
"aK c #000000",
"aL c #000000",
"aM c #000000",
"aN c #000000",
"aO c #000000",
"aP c #000000",
"aQ c #000000",
"aR c #000000",
"aS c #000000",
"aT c #000000",
"aU c #000000",
"aV c #000000",
"aW c #000000",
"aX c #000000",
"aY c #000000",
"aZ c #000000",
"a0 c #000000",
"a1 c #000000",
"a2 c #000000",
"a3 c #000000",
"a4 c #000000",
"a5 c #000000",
"a6 c #000000",
"a7 c #000000",
"a8 c #000000",
/* pixels */
"````````````````````````````````````",
"```.`#`a`b`c`c`c`b`d`e`f`g`h`i`j`k``",
"```l`m`n`o`p`q`r`s`t`u`v`w`x`y`z`A``",
"```j`B`C`````````D`E`F`G`H`I`J`K`k``",
"```L`M`N```O`P```Q`R`S`T`U`V`W`X`Y``",
"```L`Z`N```0```1`2`3`4`5```6`7`K`8``",
"```L`Z.`...#.a.b.c.d.e.f.g.h.i.j`Y``",
"```L.k.l.m.n.o.p.q.r.s.t.u.v.w.x.y``",
"```L`Z.u.z``.A.B.C`X.D.E.F.F.w.k`Y``",
"```L.G.H.I.J.K.L.M.N``.O.P.Q.R.S.y``",
"```L.G.T``.U.V.W`X.X.Y.Z.0.1.2.3.4``",
"```L.5.6.7.8#`#.###a#b#c#d#e#f#g.y``",
"```L#h#i#j#k#l#m#n#o#p#q#r#s#t#u.4``",
"```L#h#v#w#x#y#z#A#B#C#D#E#F#G#H#I``",
"```L#J#K#L#M#N#O#P#Q#R#S#T#U#V#W#X``",
"```j#Y#Z#0#1#1#0`l#e#2#3#c#4#5#6#7``",
"``.2#8a`a.a#aaababacadaeafagahai`.``",
"````````````````````````````````````"
};
