/* XPM */
static char *remember-open_xpm[] = {
/* width height num_colors chars_per_pixel */
"    18    18      256            2",
/* colors */
"`` c #ffffff",
"`. c #515152",
"`# c #0f0f11",
"`a c #121314",
"`b c #111214",
"`c c #272727",
"`d c #101010",
"`e c #0f0f0f",
"`f c #707071",
"`g c #625f5a",
"`h c #f0eadf",
"`i c #fffbf0",
"`j c #8d8d8d",
"`k c #646464",
"`l c #686868",
"`m c #6a6a6a",
"`n c #7b7b7c",
"`o c #86837d",
"`p c #6e6a62",
"`q c #fff7d8",
"`r c #e8dabf",
"`s c #fdedcd",
"`t c #121417",
"`u c #7c7c7c",
"`v c #bdbdbd",
"`w c #c1c1c1",
"`x c #c7c7c8",
"`y c #000000",
"`z c #5b5850",
"`A c #766d5a",
"`B c #413c31",
"`C c #f7e5c0",
"`D c #eddbb6",
"`E c #191b1e",
"`F c #e2e2e2",
"`G c #010101",
"`H c #5b5b5b",
"`I c #595959",
"`J c #bebebe",
"`K c #f3f3f3",
"`L c #d6d6d7",
"`M c #2d2c29",
"`N c #726d64",
"`O c #333028",
"`P c #171612",
"`Q c #7d7461",
"`R c #3c382d",
"`S c #1d1c1b",
"`T c #0c0c0d",
"`U c #c2c2c2",
"`V c #333333",
"`W c #212121",
"`X c #696969",
"`Y c #e4e4e4",
"`Z c #060607",
"`0 c #3a362d",
"`1 c #6e6f71",
"`2 c #8a8b8d",
"`3 c #2b2922",
"`4 c #3e392f",
"`5 c #434039",
"`6 c #c7c8c9",
"`7 c #5c5c5c",
"`8 c #c9c9c9",
".` c #1a1a1a",
".. c #cccccc",
".# c #1e1e1e",
".a c #c0c0c0",
".b c #adadae",
".c c #f6f6f6",
".d c #858687",
".e c #0c0b07",
".f c #c5c6c7",
".g c #f8f8f8",
".h c #fdfdfd",
".i c #131313",
".j c #bababa",
".k c #fafafa",
".l c #dddddd",
".m c #ededed",
".n c #e8e8e8",
".o c #e7e7e7",
".p c #f2f2f2",
".q c #e5e5e5",
".r c #dfdfdf",
".s c #e3e3e3",
".t c #f5f5f5",
".u c #bbbbbb",
".v c #c4c4c4",
".w c #cecece",
".x c #cdcdcd",
".y c #d0d0d0",
".z c #cfcfcf",
".A c #d8d8d8",
".B c #f9f9f9",
".C c #adadad",
".D c #b5b5b5",
".E c #b8b8b8",
".F c #b9b9b9",
".G c #c8c8c8",
".H c #fcfcfc",
".I c #bcbcbc",
".J c #efefef",
".K c #eeeeee",
".L c #e6e6e6",
".M c #e9e9e9",
".N c #ececec",
".O c #fbfbfb",
".P c #fefefe",
".Q c #121212",
".R c #c6c6c6",
".S c #ebebeb",
".T c #d1d1d1",
".U c #dbdbdb",
".V c #5e5e5e",
".W c #888888",
".X c #f7f7f7",
".Y c #4d4d4d",
".Z c #0d0d0d",
".0 c #000000",
".1 c #000000",
".2 c #000000",
".3 c #000000",
".4 c #000000",
".5 c #000000",
".6 c #000000",
".7 c #000000",
".8 c #000000",
"#` c #000000",
"#. c #000000",
"## c #000000",
"#a c #000000",
"#b c #000000",
"#c c #000000",
"#d c #000000",
"#e c #000000",
"#f c #000000",
"#g c #000000",
"#h c #000000",
"#i c #000000",
"#j c #000000",
"#k c #000000",
"#l c #000000",
"#m c #000000",
"#n c #000000",
"#o c #000000",
"#p c #000000",
"#q c #000000",
"#r c #000000",
"#s c #000000",
"#t c #000000",
"#u c #000000",
"#v c #000000",
"#w c #000000",
"#x c #000000",
"#y c #000000",
"#z c #000000",
"#A c #000000",
"#B c #000000",
"#C c #000000",
"#D c #000000",
"#E c #000000",
"#F c #000000",
"#G c #000000",
"#H c #000000",
"#I c #000000",
"#J c #000000",
"#K c #000000",
"#L c #000000",
"#M c #000000",
"#N c #000000",
"#O c #000000",
"#P c #000000",
"#Q c #000000",
"#R c #000000",
"#S c #000000",
"#T c #000000",
"#U c #000000",
"#V c #000000",
"#W c #000000",
"#X c #000000",
"#Y c #000000",
"#Z c #000000",
"#0 c #000000",
"#1 c #000000",
"#2 c #000000",
"#3 c #000000",
"#4 c #000000",
"#5 c #000000",
"#6 c #000000",
"#7 c #000000",
"#8 c #000000",
"a` c #000000",
"a. c #000000",
"a# c #000000",
"aa c #000000",
"ab c #000000",
"ac c #000000",
"ad c #000000",
"ae c #000000",
"af c #000000",
"ag c #000000",
"ah c #000000",
"ai c #000000",
"aj c #000000",
"ak c #000000",
"al c #000000",
"am c #000000",
"an c #000000",
"ao c #000000",
"ap c #000000",
"aq c #000000",
"ar c #000000",
"as c #000000",
"at c #000000",
"au c #000000",
"av c #000000",
"aw c #000000",
"ax c #000000",
"ay c #000000",
"az c #000000",
"aA c #000000",
"aB c #000000",
"aC c #000000",
"aD c #000000",
"aE c #000000",
"aF c #000000",
"aG c #000000",
"aH c #000000",
"aI c #000000",
"aJ c #000000",
"aK c #000000",
"aL c #000000",
"aM c #000000",
"aN c #000000",
"aO c #000000",
"aP c #000000",
"aQ c #000000",
"aR c #000000",
"aS c #000000",
"aT c #000000",
"aU c #000000",
"aV c #000000",
"aW c #000000",
"aX c #000000",
"aY c #000000",
"aZ c #000000",
"a0 c #000000",
"a1 c #000000",
"a2 c #000000",
"a3 c #000000",
"a4 c #000000",
"a5 c #000000",
"a6 c #000000",
"a7 c #000000",
"a8 c #000000",
/* pixels */
"````````````````````````````````````",
"````````````````````````````````````",
"`````````````````.`#`a`b`c`d`e``````",
"```````````````f`g`h`i```a```d``````",
"`````j`k`l`m`n`o`p`q`r`s`t```d``````",
"`````u`v`w`x`y`z`A`B`C`D`E`F`G`H````",
"```I`J`K`L`M`N`O`P`Q`R`S`T`U`V`W````",
"```X`v`Y`Z`0`1`2`3`4`5`6`m`7`8.`````",
"```X...#.a.b`K.c.d.e.f.g````.h.i````",
"```X.j.k.l.m.n.l.o.p.q.r.s.t.g.i````",
"```X.u.o.v.q.o...w.x.y.z.A.B.B.i````",
"```X.u`Y.C.s.q.D.E.F.j.u.G.H.k.i````",
"```l.I.J.r.m.K.L.L.L.n.M.N.O.P.Q````",
"```l`U.K.R.S.K.x.w.z.T.y.U````.Q````",
"``.V.W.h.B.X.g.P.H.H````````.w`y````",
"````.Y.Z.i.i.i.Q.i.i.Q.Q.Q.Q`y``````",
"````````````````````````````````````",
"````````````````````````````````````"
};
