/* XPM */
static char *whitespace_xpm[] = {
/* width height num_colors chars_per_pixel */
"    18    18      256            2",
/* colors */
"`` c #ffffff",
"`. c #9ecff4",
"`# c #82c0f1",
"`a c #85c2f1",
"`b c #84c3f1",
"`c c #87b7f1",
"`d c #c6ddf8",
"`e c #fafcfe",
"`f c #7fc0f2",
"`g c #67b4ef",
"`h c #6cb5f0",
"`i c #6ab6f0",
"`j c #6bb3ee",
"`k c #88c4f2",
"`l c #6bb4ef",
"`m c #65a3ed",
"`n c #b6d4f6",
"`o c #aad4f5",
"`p c #7abdf4",
"`q c #92c8f8",
"`r c #8fc7f7",
"`s c #83c8f8",
"`t c #8fbbf1",
"`u c #91bef2",
"`v c #65a5ed",
"`w c #b9d6f7",
"`x c #aed7f6",
"`y c #85bff4",
"`z c #99c7f7",
"`A c #8dc6f7",
"`B c #81c6f7",
"`C c #8bb9f1",
"`D c #8dbdf2",
"`E c #c9ddf8",
"`F c #74b6f4",
"`G c #79bbf5",
"`H c #85c3f6",
"`I c #7fc4f7",
"`J c #8bbaf1",
"`K c #8ec0f0",
"`L c #67a7eb",
"`M c #6eaff2",
"`N c #78bef8",
"`O c #8cbbf1",
"`P c #65a6ed",
"`Q c #eaf3fc",
"`R c #ebf3fc",
"`S c #a8cff6",
"`T c #61aaef",
"`U c #8dbdf1",
"`V c #8db7f2",
"`W c #669eed",
"`X c #b9d2f7",
"`Y c #bbd7f7",
"`Z c #66a6ed",
"`0 c #8db4f2",
"`1 c #8eb6f2",
"`2 c #5b9ced",
"`3 c #b4d1f7",
"`4 c #b9d4f7",
"`5 c #65a1ed",
"`6 c #8db6f2",
"`7 c #8ab6f2",
"`8 c #5c9ced",
".` c #b5d2f7",
".. c #b9d1f7",
".# c #669ced",
".a c #87b6f2",
".b c #86b6f2",
".c c #5d9ced",
".d c #b8d2f7",
".e c #649ced",
".f c #85b6f2",
".g c #b4d2f7",
".h c #b2d0f6",
".i c #5899ed",
".j c #83b4f1",
".k c #83b5f1",
".l c #589aed",
".m c #c2daf8",
".n c #7caff0",
".o c #9dc4f4",
".p c #9dbdf4",
".q c #7ca6f0",
".r c #c2d6f8",
".s c #000000",
".t c #000000",
".u c #000000",
".v c #000000",
".w c #000000",
".x c #000000",
".y c #000000",
".z c #000000",
".A c #000000",
".B c #000000",
".C c #000000",
".D c #000000",
".E c #000000",
".F c #000000",
".G c #000000",
".H c #000000",
".I c #000000",
".J c #000000",
".K c #000000",
".L c #000000",
".M c #000000",
".N c #000000",
".O c #000000",
".P c #000000",
".Q c #000000",
".R c #000000",
".S c #000000",
".T c #000000",
".U c #000000",
".V c #000000",
".W c #000000",
".X c #000000",
".Y c #000000",
".Z c #000000",
".0 c #000000",
".1 c #000000",
".2 c #000000",
".3 c #000000",
".4 c #000000",
".5 c #000000",
".6 c #000000",
".7 c #000000",
".8 c #000000",
"#` c #000000",
"#. c #000000",
"## c #000000",
"#a c #000000",
"#b c #000000",
"#c c #000000",
"#d c #000000",
"#e c #000000",
"#f c #000000",
"#g c #000000",
"#h c #000000",
"#i c #000000",
"#j c #000000",
"#k c #000000",
"#l c #000000",
"#m c #000000",
"#n c #000000",
"#o c #000000",
"#p c #000000",
"#q c #000000",
"#r c #000000",
"#s c #000000",
"#t c #000000",
"#u c #000000",
"#v c #000000",
"#w c #000000",
"#x c #000000",
"#y c #000000",
"#z c #000000",
"#A c #000000",
"#B c #000000",
"#C c #000000",
"#D c #000000",
"#E c #000000",
"#F c #000000",
"#G c #000000",
"#H c #000000",
"#I c #000000",
"#J c #000000",
"#K c #000000",
"#L c #000000",
"#M c #000000",
"#N c #000000",
"#O c #000000",
"#P c #000000",
"#Q c #000000",
"#R c #000000",
"#S c #000000",
"#T c #000000",
"#U c #000000",
"#V c #000000",
"#W c #000000",
"#X c #000000",
"#Y c #000000",
"#Z c #000000",
"#0 c #000000",
"#1 c #000000",
"#2 c #000000",
"#3 c #000000",
"#4 c #000000",
"#5 c #000000",
"#6 c #000000",
"#7 c #000000",
"#8 c #000000",
"a` c #000000",
"a. c #000000",
"a# c #000000",
"aa c #000000",
"ab c #000000",
"ac c #000000",
"ad c #000000",
"ae c #000000",
"af c #000000",
"ag c #000000",
"ah c #000000",
"ai c #000000",
"aj c #000000",
"ak c #000000",
"al c #000000",
"am c #000000",
"an c #000000",
"ao c #000000",
"ap c #000000",
"aq c #000000",
"ar c #000000",
"as c #000000",
"at c #000000",
"au c #000000",
"av c #000000",
"aw c #000000",
"ax c #000000",
"ay c #000000",
"az c #000000",
"aA c #000000",
"aB c #000000",
"aC c #000000",
"aD c #000000",
"aE c #000000",
"aF c #000000",
"aG c #000000",
"aH c #000000",
"aI c #000000",
"aJ c #000000",
"aK c #000000",
"aL c #000000",
"aM c #000000",
"aN c #000000",
"aO c #000000",
"aP c #000000",
"aQ c #000000",
"aR c #000000",
"aS c #000000",
"aT c #000000",
"aU c #000000",
"aV c #000000",
"aW c #000000",
"aX c #000000",
"aY c #000000",
"aZ c #000000",
"a0 c #000000",
"a1 c #000000",
"a2 c #000000",
"a3 c #000000",
"a4 c #000000",
"a5 c #000000",
"a6 c #000000",
"a7 c #000000",
"a8 c #000000",
/* pixels */
"````````````````````````````````````",
"````````````````````````````````````",
"```````````.`#`a`a`a`#`b`c`d````````",
"`````````e`f`g`h`i`j`k`l`m`n````````",
"`````````o`p`q`r`s`t```u`v`w````````",
"`````````x`y`z`A`B`C```D`v`w````````",
"`````````E`F`G`H`I`J```D`v`w````````",
"```````````K`L`M`N`O```D`P`w````````",
"```````````Q`R`S`T`U```V`W`X````````",
"```````````````Y`Z`0```1`2`3````````",
"```````````````4`5`6```7`8.`````````",
"``````````````...#.a``.b.c.`````````",
"``````````````.d.e.f``.b.c.`````````",
"``````````````.g`8.b``.b.c.`````````",
"``````````````.h.i.j``.k.l.h````````",
"``````````````.m.n.o``.p.q.r````````",
"````````````````````````````````````",
"````````````````````````````````````"
};
