/* XPM */
static char *bm-next_xpm[] = {
/* width height num_colors chars_per_pixel */
"    18    18      256            2",
/* colors */
"`` c #ffffff",
"`. c #dfddd3",
"`# c #37347c",
"`a c #0c0c89",
"`b c #02027d",
"`c c #5858a3",
"`d c #fefefe",
"`e c #e1e1f0",
"`f c #36347c",
"`g c #c7c7e9",
"`h c #9493b5",
"`i c #5455aa",
"`j c #5454aa",
"`k c #6868b4",
"`l c #000188",
"`m c #272794",
"`n c #00006a",
"`o c #8383c5",
"`p c #2d2d2d",
"`q c #939093",
"`r c #4949a0",
"`s c #fcfcfe",
"`t c #8888c4",
"`u c #1c1c8e",
"`v c #2b2b99",
"`w c #9a9ac6",
"`x c #000000",
"`y c #fffffe",
"`z c #9695b6",
"`A c #dbdbef",
"`B c #343462",
"`C c #000075",
"`D c #a9a999",
"`E c #0b0b18",
"`F c #0000f5",
"`G c #0000ff",
"`H c #262603",
"`I c #f3f3f3",
"`J c #00008d",
"`K c #282829",
"`L c #dbdbc8",
"`M c #dcdcdc",
"`N c #434343",
"`O c #868674",
"`P c #00008f",
"`Q c #0000a0",
"`R c #000079",
"`S c #00007a",
"`T c #000067",
"`U c #515169",
"`V c #0e0e0e",
"`W c #dfdfdf",
"`X c #00008c",
"`Y c #000068",
"`Z c #0000fd",
"`0 c #dedede",
"`1 c #0b0b1f",
"`2 c #00004f",
"`3 c #0000fa",
"`4 c #000050",
"`5 c #f2f2de",
"`6 c #dddddd",
"`7 c #3d3d3d",
"`8 c #fbfbf9",
".` c #636144",
".. c #00005b",
".# c #000061",
".a c #d7d7bf",
".b c #efefef",
".c c #d3d3c6",
".d c #d9d9ce",
".e c #000000",
".f c #000000",
".g c #000000",
".h c #000000",
".i c #000000",
".j c #000000",
".k c #000000",
".l c #000000",
".m c #000000",
".n c #000000",
".o c #000000",
".p c #000000",
".q c #000000",
".r c #000000",
".s c #000000",
".t c #000000",
".u c #000000",
".v c #000000",
".w c #000000",
".x c #000000",
".y c #000000",
".z c #000000",
".A c #000000",
".B c #000000",
".C c #000000",
".D c #000000",
".E c #000000",
".F c #000000",
".G c #000000",
".H c #000000",
".I c #000000",
".J c #000000",
".K c #000000",
".L c #000000",
".M c #000000",
".N c #000000",
".O c #000000",
".P c #000000",
".Q c #000000",
".R c #000000",
".S c #000000",
".T c #000000",
".U c #000000",
".V c #000000",
".W c #000000",
".X c #000000",
".Y c #000000",
".Z c #000000",
".0 c #000000",
".1 c #000000",
".2 c #000000",
".3 c #000000",
".4 c #000000",
".5 c #000000",
".6 c #000000",
".7 c #000000",
".8 c #000000",
"#` c #000000",
"#. c #000000",
"## c #000000",
"#a c #000000",
"#b c #000000",
"#c c #000000",
"#d c #000000",
"#e c #000000",
"#f c #000000",
"#g c #000000",
"#h c #000000",
"#i c #000000",
"#j c #000000",
"#k c #000000",
"#l c #000000",
"#m c #000000",
"#n c #000000",
"#o c #000000",
"#p c #000000",
"#q c #000000",
"#r c #000000",
"#s c #000000",
"#t c #000000",
"#u c #000000",
"#v c #000000",
"#w c #000000",
"#x c #000000",
"#y c #000000",
"#z c #000000",
"#A c #000000",
"#B c #000000",
"#C c #000000",
"#D c #000000",
"#E c #000000",
"#F c #000000",
"#G c #000000",
"#H c #000000",
"#I c #000000",
"#J c #000000",
"#K c #000000",
"#L c #000000",
"#M c #000000",
"#N c #000000",
"#O c #000000",
"#P c #000000",
"#Q c #000000",
"#R c #000000",
"#S c #000000",
"#T c #000000",
"#U c #000000",
"#V c #000000",
"#W c #000000",
"#X c #000000",
"#Y c #000000",
"#Z c #000000",
"#0 c #000000",
"#1 c #000000",
"#2 c #000000",
"#3 c #000000",
"#4 c #000000",
"#5 c #000000",
"#6 c #000000",
"#7 c #000000",
"#8 c #000000",
"a` c #000000",
"a. c #000000",
"a# c #000000",
"aa c #000000",
"ab c #000000",
"ac c #000000",
"ad c #000000",
"ae c #000000",
"af c #000000",
"ag c #000000",
"ah c #000000",
"ai c #000000",
"aj c #000000",
"ak c #000000",
"al c #000000",
"am c #000000",
"an c #000000",
"ao c #000000",
"ap c #000000",
"aq c #000000",
"ar c #000000",
"as c #000000",
"at c #000000",
"au c #000000",
"av c #000000",
"aw c #000000",
"ax c #000000",
"ay c #000000",
"az c #000000",
"aA c #000000",
"aB c #000000",
"aC c #000000",
"aD c #000000",
"aE c #000000",
"aF c #000000",
"aG c #000000",
"aH c #000000",
"aI c #000000",
"aJ c #000000",
"aK c #000000",
"aL c #000000",
"aM c #000000",
"aN c #000000",
"aO c #000000",
"aP c #000000",
"aQ c #000000",
"aR c #000000",
"aS c #000000",
"aT c #000000",
"aU c #000000",
"aV c #000000",
"aW c #000000",
"aX c #000000",
"aY c #000000",
"aZ c #000000",
"a0 c #000000",
"a1 c #000000",
"a2 c #000000",
"a3 c #000000",
"a4 c #000000",
"a5 c #000000",
"a6 c #000000",
"a7 c #000000",
"a8 c #000000",
/* pixels */
"````````````````````````````````````",
"````````````````````````````````````",
"````````````````````````````````````",
"```````.`#`a`b`c`d```e``````````````",
"```````f`g`````h`i`j`k``````````````",
"```````l`````````m`n`o```p``````````",
"```````q`r`s```t`u`v`w`x````````````",
"```````y`z`A```````y`B`C`D``````````",
"```````````````````E`F`G`H``````````",
"```````````````I`x`G`G`J`K`L`y``````",
"`````````````M`N`O`P`Q`R`S`T`U``````",
"`````````````V`W```x`X`Y`Z`G`x``````",
"`````````0`V```````1`2`3`G`4`5``````",
"```````6`7`0```````8.`...#.a````````",
"``````.b`6````````````.c.d``````````",
"````````````````````````````````````",
"````````````````````````````````````",
"````````````````````````````````````"
};
