/* XPM */
static char *bm-previous_xpm[] = {
/* width height num_colors chars_per_pixel */
"    18    18      256            2",
/* colors */
"`` c #ffffff",
"`. c #bbbbe0",
"`# c #bfbfdf",
"`a c #b9b9dd",
"`b c #fffff2",
"`c c #8f8fc7",
"`d c #8b8bc7",
"`e c #37357b",
"`f c #6b6bb8",
"`g c #6869b7",
"`h c #524f7f",
"`i c #fefdec",
"`j c #00006e",
"`k c #252592",
"`l c #7777bc",
"`m c #fffff7",
"`n c #9292c8",
"`o c #7d7cb6",
"`p c #000067",
"`q c #00006b",
"`r c #9696cb",
"`s c #8f8ec9",
"`t c #cacac4",
"`u c #292929",
"`v c #6f6fb7",
"`w c #7f7fbf",
"`x c #5d5dae",
"`y c #8787c7",
"`z c #595685",
"`A c #d0ceab",
"`B c #000000",
"`C c #d1d1ef",
"`D c #f1f0c9",
"`E c #000056",
"`F c #0000e0",
"`G c #616149",
"`H c #f9f9e8",
"`I c #000036",
"`J c #0000ff",
"`K c #2e2e0b",
"`L c #bcbcbc",
"`M c #0000eb",
"`N c #000085",
"`O c #18183c",
"`P c #7f7f61",
"`Q c #f8f8f2",
"`R c #bdbdbd",
"`S c #414141",
"`T c #e4e4d9",
"`U c #000091",
"`V c #000077",
"`W c #000086",
"`X c #0000d5",
"`Y c #050530",
"`Z c #bfbfbf",
"`0 c #2a2a2a",
"`1 c #00008f",
"`2 c #000089",
"`3 c #0000fb",
"`4 c #05052c",
"`5 c #acacac",
"`6 c #3f3f3f",
"`7 c #51515d",
"`8 c #000015",
".` c #0000f6",
".. c #0000f8",
".# c #282850",
".a c #c6c6c6",
".b c #3c3c3c",
".c c #f8f8f8",
".d c #aeac96",
".e c #000019",
".f c #08082e",
".g c #fffff3",
".h c #000000",
".i c #000000",
".j c #000000",
".k c #000000",
".l c #000000",
".m c #000000",
".n c #000000",
".o c #000000",
".p c #000000",
".q c #000000",
".r c #000000",
".s c #000000",
".t c #000000",
".u c #000000",
".v c #000000",
".w c #000000",
".x c #000000",
".y c #000000",
".z c #000000",
".A c #000000",
".B c #000000",
".C c #000000",
".D c #000000",
".E c #000000",
".F c #000000",
".G c #000000",
".H c #000000",
".I c #000000",
".J c #000000",
".K c #000000",
".L c #000000",
".M c #000000",
".N c #000000",
".O c #000000",
".P c #000000",
".Q c #000000",
".R c #000000",
".S c #000000",
".T c #000000",
".U c #000000",
".V c #000000",
".W c #000000",
".X c #000000",
".Y c #000000",
".Z c #000000",
".0 c #000000",
".1 c #000000",
".2 c #000000",
".3 c #000000",
".4 c #000000",
".5 c #000000",
".6 c #000000",
".7 c #000000",
".8 c #000000",
"#` c #000000",
"#. c #000000",
"## c #000000",
"#a c #000000",
"#b c #000000",
"#c c #000000",
"#d c #000000",
"#e c #000000",
"#f c #000000",
"#g c #000000",
"#h c #000000",
"#i c #000000",
"#j c #000000",
"#k c #000000",
"#l c #000000",
"#m c #000000",
"#n c #000000",
"#o c #000000",
"#p c #000000",
"#q c #000000",
"#r c #000000",
"#s c #000000",
"#t c #000000",
"#u c #000000",
"#v c #000000",
"#w c #000000",
"#x c #000000",
"#y c #000000",
"#z c #000000",
"#A c #000000",
"#B c #000000",
"#C c #000000",
"#D c #000000",
"#E c #000000",
"#F c #000000",
"#G c #000000",
"#H c #000000",
"#I c #000000",
"#J c #000000",
"#K c #000000",
"#L c #000000",
"#M c #000000",
"#N c #000000",
"#O c #000000",
"#P c #000000",
"#Q c #000000",
"#R c #000000",
"#S c #000000",
"#T c #000000",
"#U c #000000",
"#V c #000000",
"#W c #000000",
"#X c #000000",
"#Y c #000000",
"#Z c #000000",
"#0 c #000000",
"#1 c #000000",
"#2 c #000000",
"#3 c #000000",
"#4 c #000000",
"#5 c #000000",
"#6 c #000000",
"#7 c #000000",
"#8 c #000000",
"a` c #000000",
"a. c #000000",
"a# c #000000",
"aa c #000000",
"ab c #000000",
"ac c #000000",
"ad c #000000",
"ae c #000000",
"af c #000000",
"ag c #000000",
"ah c #000000",
"ai c #000000",
"aj c #000000",
"ak c #000000",
"al c #000000",
"am c #000000",
"an c #000000",
"ao c #000000",
"ap c #000000",
"aq c #000000",
"ar c #000000",
"as c #000000",
"at c #000000",
"au c #000000",
"av c #000000",
"aw c #000000",
"ax c #000000",
"ay c #000000",
"az c #000000",
"aA c #000000",
"aB c #000000",
"aC c #000000",
"aD c #000000",
"aE c #000000",
"aF c #000000",
"aG c #000000",
"aH c #000000",
"aI c #000000",
"aJ c #000000",
"aK c #000000",
"aL c #000000",
"aM c #000000",
"aN c #000000",
"aO c #000000",
"aP c #000000",
"aQ c #000000",
"aR c #000000",
"aS c #000000",
"aT c #000000",
"aU c #000000",
"aV c #000000",
"aW c #000000",
"aX c #000000",
"aY c #000000",
"aZ c #000000",
"a0 c #000000",
"a1 c #000000",
"a2 c #000000",
"a3 c #000000",
"a4 c #000000",
"a5 c #000000",
"a6 c #000000",
"a7 c #000000",
"a8 c #000000",
/* pixels */
"````````````````````````````````````",
"````````````````````````````````````",
"````````````````````````````````````",
"`````````````.`#`a`b````````````````",
"```````c```d`e`f`g`h`i``````````````",
"```````j`k`l`m`````n`o``````````````",
"```````p`q`r```````n`s`t`u``````````",
"```````v`w`x`````y`z`A`B````````````",
"`````````````````C`D`E`F`G``````````",
"`````````````````H`I`J`J`K``````````",
"```````````````L`B`J`M`N`O`P`Q``````",
"`````````````R`S`T`I`U`V`W`X`Y``````",
"```````````Z`0`````B`1`2`J`3`4``````",
"`````````5`6```````7`8.`...#`b``````",
"``````.a.b.c````````.d.e.f.g````````",
"````````````````````````````````````",
"````````````````````````````````````",
"````````````````````````````````````"
};
