/* XPM */
static char *compile_xpm[] = {
/* width height num_colors chars_per_pixel */
"    18    18      256            2",
/* colors */
"`` c #ffffff",
"`. c #eeeef6",
"`# c #d9d9ec",
"`a c #dedeee",
"`b c #bfbfdf",
"`c c #8181c0",
"`d c #eaeaf4",
"`e c #c1c1e0",
"`f c #8282c1",
"`g c #b3b3d9",
"`h c #cccce8",
"`i c #8484c2",
"`j c #d8d8eb",
"`k c #bdbddd",
"`l c #8888c4",
"`m c #e7e7f3",
"`n c #cfcfe7",
"`o c #7b7bbd",
"`p c #d1d1e8",
"`q c #cecee6",
"`r c #8282c3",
"`s c #d5d5d2",
"`t c #00007f",
"`u c #34349a",
"`v c #5d5dae",
"`w c #cbcbe5",
"`x c #edede7",
"`y c #f2f2f2",
"`z c #060602",
"`A c #cbcbf1",
"`B c #7d7dbe",
"`C c #080884",
"`D c #7575ba",
"`E c #6a6ab4",
"`F c #35359a",
"`G c #5b5bad",
"`H c #9999d4",
"`I c #686862",
"`J c #b8b8b8",
"`K c #141412",
"`L c #000082",
"`M c #00006f",
"`N c #4545a5",
"`O c #8c8cc8",
"`P c #00006b",
"`Q c #000063",
"`R c #f5f6ff",
"`S c #6e6e6b",
"`T c #bebebe",
"`U c #121212",
"`V c #ffffee",
"`W c #4e4ca2",
"`X c #fffcee",
"`Y c #9291bb",
"`Z c #d5d3d3",
"`0 c #6b6b6b",
"`1 c #181819",
"`2 c #bbbab4",
"`3 c #dbdadd",
"`4 c #888777",
"`5 c #aaa9a6",
"`6 c #e4e4e1",
"`7 c #78776f",
"`8 c #b5b4ab",
".` c #e1e0e0",
".. c #838178",
".# c #757576",
".a c #141414",
".b c #fdfdfe",
".c c #fcfcfc",
".d c #dcdcdd",
".e c #ececec",
".f c #fbfbfb",
".g c #e7e8e8",
".h c #6e6e6e",
".i c #202020",
".j c #a1a1a1",
".k c #e6e6e6",
".l c #4f4f4f",
".m c #9b9b9b",
".n c #535353",
".o c #828282",
".p c #000000",
".q c #7f7f7f",
".r c #6d6d6d",
".s c #797979",
".t c #737373",
".u c #818181",
".v c #101010",
".w c #c0c0c0",
".x c #c3c3c3",
".y c #bfbfbf",
".z c #c1c1c1",
".A c #f6f6f6",
".B c #000000",
".C c #000000",
".D c #000000",
".E c #000000",
".F c #000000",
".G c #000000",
".H c #000000",
".I c #000000",
".J c #000000",
".K c #000000",
".L c #000000",
".M c #000000",
".N c #000000",
".O c #000000",
".P c #000000",
".Q c #000000",
".R c #000000",
".S c #000000",
".T c #000000",
".U c #000000",
".V c #000000",
".W c #000000",
".X c #000000",
".Y c #000000",
".Z c #000000",
".0 c #000000",
".1 c #000000",
".2 c #000000",
".3 c #000000",
".4 c #000000",
".5 c #000000",
".6 c #000000",
".7 c #000000",
".8 c #000000",
"#` c #000000",
"#. c #000000",
"## c #000000",
"#a c #000000",
"#b c #000000",
"#c c #000000",
"#d c #000000",
"#e c #000000",
"#f c #000000",
"#g c #000000",
"#h c #000000",
"#i c #000000",
"#j c #000000",
"#k c #000000",
"#l c #000000",
"#m c #000000",
"#n c #000000",
"#o c #000000",
"#p c #000000",
"#q c #000000",
"#r c #000000",
"#s c #000000",
"#t c #000000",
"#u c #000000",
"#v c #000000",
"#w c #000000",
"#x c #000000",
"#y c #000000",
"#z c #000000",
"#A c #000000",
"#B c #000000",
"#C c #000000",
"#D c #000000",
"#E c #000000",
"#F c #000000",
"#G c #000000",
"#H c #000000",
"#I c #000000",
"#J c #000000",
"#K c #000000",
"#L c #000000",
"#M c #000000",
"#N c #000000",
"#O c #000000",
"#P c #000000",
"#Q c #000000",
"#R c #000000",
"#S c #000000",
"#T c #000000",
"#U c #000000",
"#V c #000000",
"#W c #000000",
"#X c #000000",
"#Y c #000000",
"#Z c #000000",
"#0 c #000000",
"#1 c #000000",
"#2 c #000000",
"#3 c #000000",
"#4 c #000000",
"#5 c #000000",
"#6 c #000000",
"#7 c #000000",
"#8 c #000000",
"a` c #000000",
"a. c #000000",
"a# c #000000",
"aa c #000000",
"ab c #000000",
"ac c #000000",
"ad c #000000",
"ae c #000000",
"af c #000000",
"ag c #000000",
"ah c #000000",
"ai c #000000",
"aj c #000000",
"ak c #000000",
"al c #000000",
"am c #000000",
"an c #000000",
"ao c #000000",
"ap c #000000",
"aq c #000000",
"ar c #000000",
"as c #000000",
"at c #000000",
"au c #000000",
"av c #000000",
"aw c #000000",
"ax c #000000",
"ay c #000000",
"az c #000000",
"aA c #000000",
"aB c #000000",
"aC c #000000",
"aD c #000000",
"aE c #000000",
"aF c #000000",
"aG c #000000",
"aH c #000000",
"aI c #000000",
"aJ c #000000",
"aK c #000000",
"aL c #000000",
"aM c #000000",
"aN c #000000",
"aO c #000000",
"aP c #000000",
"aQ c #000000",
"aR c #000000",
"aS c #000000",
"aT c #000000",
"aU c #000000",
"aV c #000000",
"aW c #000000",
"aX c #000000",
"aY c #000000",
"aZ c #000000",
"a0 c #000000",
"a1 c #000000",
"a2 c #000000",
"a3 c #000000",
"a4 c #000000",
"a5 c #000000",
"a6 c #000000",
"a7 c #000000",
"a8 c #000000",
/* pixels */
"````````````````````````````````````",
"````````````````````````````````````",
"````````````````````````````````````",
"```````.`#```.`#```.`#```.`#````````",
"```````a`b`c`.`b`c`d`e`f`d`g````````",
"```````h`i`j`k`l`m`n`o`p`q`r````````",
"```````s`````t```u```v`w```x`y``````",
"```````z`A`B`C`D```E`F`G`H`I`J``````",
"```````K```L`M`N```O`P`Q`R`S`T``````",
"```````U```V`W`V```X`Y`Z```0`T``````",
"```````1`2`3`4`5`6`7`8.`...#`T``````",
"``````.a.b.c.d.e.f.d.e.c.g.h`T``````",
"``````.i.j.k.l.m.k.l.m.k.n.o`T``````",
"``````.p.q.r.s.t.r.s.t.r.u.v.w``````",
"``````.x.y.y.y.y.y.y.y.y.y.z.A``````",
"````````````````````````````````````",
"````````````````````````````````````",
"````````````````````````````````````"
};
