/* XPM */
static char *downcase_xpm[] = {
/* width height num_colors chars_per_pixel */
"    18    18      256            2",
/* colors */
"`` c #ffffff",
"`. c #e0e0e0",
"`# c #6c6c6c",
"`a c #000000",
"`b c #676767",
"`c c #161616",
"`d c #202020",
"`e c #0b0b0b",
"`f c #2e2e2e",
"`g c #363636",
"`h c #333333",
"`i c #1c1c1c",
"`j c #040404",
"`k c #fef2a1",
"`l c #feed80",
"`m c #feee84",
"`n c #f7de74",
"`o c #d5d5d5",
"`p c #d7d7d6",
"`q c #cfcfcf",
"`r c #b53d00",
"`s c #a51b00",
"`t c #a21300",
"`u c #e29f00",
"`v c #f6da65",
"`w c #f8f8ff",
"`x c #e1e1f1",
"`y c #fce980",
"`z c #b63f00",
"`A c #ac2b01",
"`B c #a92501",
"`C c #c05600",
"`D c #f7d431",
"`E c #b8b8df",
"`F c #5c5cb6",
"`G c #6767ba",
"`H c #cbcbe8",
"`I c #f8e084",
"`J c #f3c500",
"`K c #c25b03",
"`L c #c35f04",
"`M c #920000",
"`N c #fbde37",
"`O c #bdbde1",
"`P c #6a6abc",
"`Q c #000074",
"`R c #00008b",
"`S c #e0dff2",
"`T c #fdeb84",
"`U c #ae2d00",
"`V c #d68505",
"`W c #e19f06",
"`X c #9d0800",
"`Y c #fadc37",
"`Z c #cccce8",
"`0 c #4b4bae",
"`1 c #d8d8ee",
"`2 c #000081",
"`3 c #00007f",
"`4 c #919ac6",
"`5 c #feef84",
"`6 c #9c0500",
"`7 c #fddb09",
"`8 c #fedf09",
".` c #a21500",
".. c #f9db37",
".# c #ababd8",
".a c #7272bf",
".b c #000088",
".c c #000073",
".d c #3f5b93",
".e c #fbe579",
".f c #c15600",
".g c #b84402",
".h c #910000",
".i c #f9d926",
".j c #00004f",
".k c #5265a2",
".l c #fffef9",
".m c #f1c414",
".n c #d68200",
".o c #d88700",
".p c #d78300",
".q c #ffffef",
".r c #000000",
".s c #000000",
".t c #000000",
".u c #000000",
".v c #000000",
".w c #000000",
".x c #000000",
".y c #000000",
".z c #000000",
".A c #000000",
".B c #000000",
".C c #000000",
".D c #000000",
".E c #000000",
".F c #000000",
".G c #000000",
".H c #000000",
".I c #000000",
".J c #000000",
".K c #000000",
".L c #000000",
".M c #000000",
".N c #000000",
".O c #000000",
".P c #000000",
".Q c #000000",
".R c #000000",
".S c #000000",
".T c #000000",
".U c #000000",
".V c #000000",
".W c #000000",
".X c #000000",
".Y c #000000",
".Z c #000000",
".0 c #000000",
".1 c #000000",
".2 c #000000",
".3 c #000000",
".4 c #000000",
".5 c #000000",
".6 c #000000",
".7 c #000000",
".8 c #000000",
"#` c #000000",
"#. c #000000",
"## c #000000",
"#a c #000000",
"#b c #000000",
"#c c #000000",
"#d c #000000",
"#e c #000000",
"#f c #000000",
"#g c #000000",
"#h c #000000",
"#i c #000000",
"#j c #000000",
"#k c #000000",
"#l c #000000",
"#m c #000000",
"#n c #000000",
"#o c #000000",
"#p c #000000",
"#q c #000000",
"#r c #000000",
"#s c #000000",
"#t c #000000",
"#u c #000000",
"#v c #000000",
"#w c #000000",
"#x c #000000",
"#y c #000000",
"#z c #000000",
"#A c #000000",
"#B c #000000",
"#C c #000000",
"#D c #000000",
"#E c #000000",
"#F c #000000",
"#G c #000000",
"#H c #000000",
"#I c #000000",
"#J c #000000",
"#K c #000000",
"#L c #000000",
"#M c #000000",
"#N c #000000",
"#O c #000000",
"#P c #000000",
"#Q c #000000",
"#R c #000000",
"#S c #000000",
"#T c #000000",
"#U c #000000",
"#V c #000000",
"#W c #000000",
"#X c #000000",
"#Y c #000000",
"#Z c #000000",
"#0 c #000000",
"#1 c #000000",
"#2 c #000000",
"#3 c #000000",
"#4 c #000000",
"#5 c #000000",
"#6 c #000000",
"#7 c #000000",
"#8 c #000000",
"a` c #000000",
"a. c #000000",
"a# c #000000",
"aa c #000000",
"ab c #000000",
"ac c #000000",
"ad c #000000",
"ae c #000000",
"af c #000000",
"ag c #000000",
"ah c #000000",
"ai c #000000",
"aj c #000000",
"ak c #000000",
"al c #000000",
"am c #000000",
"an c #000000",
"ao c #000000",
"ap c #000000",
"aq c #000000",
"ar c #000000",
"as c #000000",
"at c #000000",
"au c #000000",
"av c #000000",
"aw c #000000",
"ax c #000000",
"ay c #000000",
"az c #000000",
"aA c #000000",
"aB c #000000",
"aC c #000000",
"aD c #000000",
"aE c #000000",
"aF c #000000",
"aG c #000000",
"aH c #000000",
"aI c #000000",
"aJ c #000000",
"aK c #000000",
"aL c #000000",
"aM c #000000",
"aN c #000000",
"aO c #000000",
"aP c #000000",
"aQ c #000000",
"aR c #000000",
"aS c #000000",
"aT c #000000",
"aU c #000000",
"aV c #000000",
"aW c #000000",
"aX c #000000",
"aY c #000000",
"aZ c #000000",
"a0 c #000000",
"a1 c #000000",
"a2 c #000000",
"a3 c #000000",
"a4 c #000000",
"a5 c #000000",
"a6 c #000000",
"a7 c #000000",
"a8 c #000000",
/* pixels */
"````````````````````````````````````",
"````````````````````````````````````",
"````````````````````````````````````",
"`````.`#`a`b````````````````````````",
"`````c`d```e````````````````````````",
"`````f`a`g`a````````````````````````",
"`````f`a`h`a````````````````````````",
"`````c`i```j```````````k`l`m`n``````",
"`````o`p```q`````````k`r`s`t`u`v````",
"```````w`x```````````y`z`A`B`C`D````",
"```````E`F```G`H`````I`J`K`L`M`N````",
"```````O`P```Q`R`S```T`U`V`W`X`Y````",
"```````Z`0`1`2`3`4```5`6`7`8.`..````",
"````````.#.a.b.c.d``.e.f.g`K.h.i````",
"````````````.j.k````.l.m.n.o.p.q````",
"````````````````````````````````````",
"````````````````````````````````````",
"````````````````````````````````````"
};
