/* XPM */
static char *ecb_xpm[] = {
/* width height num_colors chars_per_pixel */
"    18    18      256            2",
/* colors */
"`` c #fbfbfb",
"`. c #d0d0d0",
"`# c #d5d5d5",
"`a c #d6d6d6",
"`b c #d8d8d8",
"`c c #e2e2e2",
"`d c #d6dada",
"`e c #d6dede",
"`f c #d7d7d7",
"`g c #cecece",
"`h c #cbcbcb",
"`i c #fafafa",
"`j c #d4d4d4",
"`k c #3e3e3e",
"`l c #94a6a6",
"`m c #9d9d9d",
"`n c #9c9c9c",
"`o c #929292",
"`p c #1b1b1b",
"`q c #a0a0a0",
"`r c #92a8a8",
"`s c #918383",
"`t c #974b4b",
"`u c #9da5a5",
"`v c #9f9f9f",
"`w c #696969",
"`x c #000000",
"`y c #99abab",
"`z c #ff5f5f",
"`A c #86b7b7",
"`B c #a2b6b6",
"`C c #d7dfdf",
"`D c #1a1d1d",
"`E c #ffffff",
"`F c #fb5e5e",
"`G c #ff1616",
"`H c #d53737",
"`I c #91a1a1",
"`J c #979797",
"`K c #959595",
"`L c #ababab",
"`M c #252525",
"`N c #8fa1a1",
"`O c #f24d4d",
"`P c #ff0000",
"`Q c #ff5c5c",
"`R c #ffdada",
"`S c #001616",
"`T c #ff5555",
"`U c #db3e3e",
"`V c #d3f5f5",
"`W c #ececec",
"`X c #ebebeb",
"`Y c #eaeaea",
"`Z c #f2f2f2",
"`0 c #8b8b8b",
"`1 c #dafbfb",
"`2 c #ff8b8b",
"`3 c #ff4040",
"`4 c #8e0000",
"`5 c #f82d2d",
"`6 c #ee6d6d",
"`7 c #caecec",
"`8 c #bfbfbf",
".` c #b9b9b9",
".. c #f6f6f6",
".# c #1c1c1c",
".a c #999999",
".b c #ccd2d2",
".c c #9a8c8c",
".d c #ff1414",
".e c #fa0505",
".f c #c8cbcb",
".g c #aab6b6",
".h c #939393",
".i c #949490",
".j c #a0a09e",
".k c #f9f9f9",
".l c #949494",
".m c #f3ffff",
".n c #ffa2a2",
".o c #f20000",
".p c #ff2626",
".q c #000606",
".r c #ff1515",
".s c #c9b9b9",
".t c #e3e9e9",
".u c #f1f1e9",
".v c #e0e0fe",
".w c #e1e1f1",
".x c #f3f3f1",
".y c #97a3a3",
".z c #c66a6a",
".A c #efc7c7",
".B c #dffefe",
".C c #182626",
".D c #ffd5d5",
".E c #e16161",
".F c #fc0000",
".G c #9ec2c2",
".H c #bebeba",
".I c #a9a9b0",
".J c #4242e5",
".K c #aeaecc",
".L c #f8f8f4",
".M c #91a9a9",
".N c #ff150f",
".O c #806c6c",
".P c #8d9b9b",
".Q c #b2b2b2",
".R c #1f1f1f",
".S c #e8f0f0",
".T c #769292",
".U c #c35757",
".V c #da635f",
".W c #b8ca96",
".X c #0b0bff",
".Y c #3535cb",
".Z c #b3b39f",
".0 c #f8f8f8",
".1 c #979791",
".2 c #def6ff",
".3 c #f9ffed",
".4 c #eeeeee",
".5 c #181818",
".6 c #e5e5e5",
".7 c #ecfffc",
".8 c #f67a78",
"#` c #0500d5",
"#. c #383ee1",
"## c #f4f4d2",
"#a c #a9a991",
"#b c #1414ff",
"#c c #5454ad",
"#d c #bdbda5",
"#e c #b5b5b5",
"#f c #bfbfbb",
"#g c #b1b1af",
"#h c #0003e7",
"#i c #4b51ff",
"#j c #f1f1cb",
"#k c #bdbdbd",
"#l c #f5f5f5",
"#m c #a0a09a",
"#n c #9292a4",
"#o c #0000ff",
"#p c #6e6ec2",
"#q c #bcbca2",
"#r c #1b1c1a",
"#s c #e7e7e0",
"#t c #b9b985",
"#u c #1e1eff",
"#v c #70709c",
"#w c #989890",
"#x c #919191",
"#y c #a5a5a5",
"#z c #969696",
"#A c #ffffe7",
"#B c #0000e2",
"#C c #8687ef",
"#D c #180f00",
"#E c #b4b5d9",
"#F c #0e0eff",
"#G c #0000fa",
"#H c #8b8bdc",
"#I c #fcfce8",
"#J c #d8d8d6",
"#K c #dadac5",
"#L c #5656ff",
"#M c #110089",
"#N c #aaaafb",
"#O c #d1d1b9",
"#P c #c7c7c7",
"#Q c #93938e",
"#R c #828284",
"#S c #0000ec",
"#T c #5757bf",
"#U c #a2a288",
"#V c #a1a1a1",
"#W c #1e1e1e",
"#X c #fffffc",
"#Y c #ffffe1",
"#Z c #0000d6",
"#0 c #a9a9ff",
"#1 c #fffff7",
"#2 c #fefefe",
"#3 c #fcfcfc",
"#4 c #b1b1b1",
"#5 c #272727",
"#6 c #262626",
"#7 c #282828",
"#8 c #1a1a1a",
"a` c #353535",
"a. c #4f4f43",
"a# c #202020",
"aa c #242424",
"ab c #2a2a2a",
"ac c #313131",
"ad c #cccccc",
"ae c #cdcdcd",
"af c #cfcfcf",
"ag c #000000",
"ah c #000000",
"ai c #000000",
"aj c #000000",
"ak c #000000",
"al c #000000",
"am c #000000",
"an c #000000",
"ao c #000000",
"ap c #000000",
"aq c #000000",
"ar c #000000",
"as c #000000",
"at c #000000",
"au c #000000",
"av c #000000",
"aw c #000000",
"ax c #000000",
"ay c #000000",
"az c #000000",
"aA c #000000",
"aB c #000000",
"aC c #000000",
"aD c #000000",
"aE c #000000",
"aF c #000000",
"aG c #000000",
"aH c #000000",
"aI c #000000",
"aJ c #000000",
"aK c #000000",
"aL c #000000",
"aM c #000000",
"aN c #000000",
"aO c #000000",
"aP c #000000",
"aQ c #000000",
"aR c #000000",
"aS c #000000",
"aT c #000000",
"aU c #000000",
"aV c #000000",
"aW c #000000",
"aX c #000000",
"aY c #000000",
"aZ c #000000",
"a0 c #000000",
"a1 c #000000",
"a2 c #000000",
"a3 c #000000",
"a4 c #000000",
"a5 c #000000",
"a6 c #000000",
"a7 c #000000",
"a8 c #000000",
/* pixels */
"```.`#`a`a`b`c`a`a`d`e`a`a`a`f`g`h`i",
"`j`k`l`m`n`o`p`q`r`s`t`u`m`m`v`w`x`h",
"`f`y`z`A`B`C`D`E`F`G`H`I`J`K`L`E`M`g",
"`f`N`O`P`Q`R`S`T`P`U`V`W`X`Y`Z`Z`p`g",
"`f`0`1`2`3`P`4`5`6`7`8`8`8`8.`...#`g",
"`a.a.b.c.d`P`P.e.f.g`o.h.h.i.j.k.#`g",
"`a.l.m.n.o.p.q.r`P.s.t`W.u.v.w.x.#`g",
"`a.y.z`P.A.B.C.D.E.F.G.H.I.J.K.L.#`g",
"`a.M.N.O.P.Q.R.S.T.U.V.W.X.Y.Z.0.#`g",
"`a.1.2.3.4.4.5`E.6.7.8#`#.##`Z`Z.#`g",
"`a#a#b#c#d#e.R.0#f#g#h#i#j#k`h#l.#`g",
"`a#m#n#o#p#q#r#s#t#u#o#v#w#x#y.0.#`g",
"`a#z#A#B#o#C#D#E#F#G#H#I`X`Y`Z`Z.#`g",
"`a`J#J#K#L#o#M#o#o#N#O`8`8`8.`.k.#`g",
"`a.a#P#Q#R#S#o#o#T#U.h`o.h`o#V.6#W`g",
"`b#z`E`i#X#Y#Z#0#1#2`E`E`E#3`E#4#5`g",
"`f#6#7#8#8a``xa.a#aaabac#7.R`p#5`xad",
"``aeaeafafae`jad`g`gaeaeae`gafafae`i"
};
