/* XPM */
static char *ecb_xpm[] = {
/* width height num_colors chars_per_pixel */
"    18    18      256            2",
/* colors */
"`` c #ffffff",
"`. c #3e3e3e",
"`# c #94a6a6",
"`a c #9d9d9d",
"`b c #9c9c9c",
"`c c #929292",
"`d c #1b1b1b",
"`e c #a0a0a0",
"`f c #92a8a8",
"`g c #918383",
"`h c #974b4b",
"`i c #9da5a5",
"`j c #9f9f9f",
"`k c #696969",
"`l c #99abab",
"`m c #ff5f5f",
"`n c #86b7b7",
"`o c #a2b6b6",
"`p c #d7dfdf",
"`q c #1a1d1d",
"`r c #fb5e5e",
"`s c #ff1616",
"`t c #d53737",
"`u c #91a1a1",
"`v c #979797",
"`w c #959595",
"`x c #ababab",
"`y c #8fa1a1",
"`z c #f24d4d",
"`A c #ff0000",
"`B c #ff5c5c",
"`C c #ffdada",
"`D c #001616",
"`E c #ff5555",
"`F c #db3e3e",
"`G c #d3f5f5",
"`H c #ececec",
"`I c #ebebeb",
"`J c #eaeaea",
"`K c #f2f2f2",
"`L c #8b8b8b",
"`M c #dafbfb",
"`N c #ff8b8b",
"`O c #ff4040",
"`P c #8e0000",
"`Q c #f82d2d",
"`R c #ee6d6d",
"`S c #caecec",
"`T c #bfbfbf",
"`U c #b9b9b9",
"`V c #999999",
"`W c #ccd2d2",
"`X c #9a8c8c",
"`Y c #ff1414",
"`Z c #fa0505",
"`0 c #c8cbcb",
"`1 c #aab6b6",
"`2 c #939393",
"`3 c #949490",
"`4 c #a0a09e",
"`5 c #949494",
"`6 c #f3ffff",
"`7 c #ffa2a2",
"`8 c #f20000",
".` c #ff2626",
".. c #000606",
".# c #ff1515",
".a c #c9b9b9",
".b c #e3e9e9",
".c c #f1f1e9",
".d c #e0e0fe",
".e c #e1e1f1",
".f c #f3f3f1",
".g c #97a3a3",
".h c #c66a6a",
".i c #efc7c7",
".j c #dffefe",
".k c #182626",
".l c #ffd5d5",
".m c #e16161",
".n c #fc0000",
".o c #9ec2c2",
".p c #bebeba",
".q c #a9a9b0",
".r c #4242e5",
".s c #aeaecc",
".t c #91a9a9",
".u c #ff150f",
".v c #806c6c",
".w c #8d9b9b",
".x c #b2b2b2",
".y c #1f1f1f",
".z c #e8f0f0",
".A c #769292",
".B c #c35757",
".C c #da635f",
".D c #b8ca96",
".E c #0b0bff",
".F c #3535cb",
".G c #b3b39f",
".H c #979791",
".I c #def6ff",
".J c #f9ffed",
".K c #eeeeee",
".L c #181818",
".M c #e5e5e5",
".N c #ecfffc",
".O c #f67a78",
".P c #0500d5",
".Q c #383ee1",
".R c #f4f4d2",
".S c #a9a991",
".T c #1414ff",
".U c #5454ad",
".V c #bdbda5",
".W c #b5b5b5",
".X c #f8f8f8",
".Y c #bfbfbb",
".Z c #b1b1af",
".0 c #0003e7",
".1 c #4b51ff",
".2 c #f1f1cb",
".3 c #bdbdbd",
".4 c #cbcbcb",
".5 c #a0a09a",
".6 c #9292a4",
".7 c #0000ff",
".8 c #6e6ec2",
"#` c #bcbca2",
"#. c #1b1c1a",
"## c #e7e7e0",
"#a c #b9b985",
"#b c #1e1eff",
"#c c #70709c",
"#d c #989890",
"#e c #919191",
"#f c #a5a5a5",
"#g c #969696",
"#h c #ffffe7",
"#i c #0000e2",
"#j c #8687ef",
"#k c #180f00",
"#l c #b4b5d9",
"#m c #0e0eff",
"#n c #0000fa",
"#o c #8b8bdc",
"#p c #fcfce8",
"#q c #d8d8d6",
"#r c #dadac5",
"#s c #5656ff",
"#t c #110089",
"#u c #aaaafb",
"#v c #d1d1b9",
"#w c #c7c7c7",
"#x c #93938e",
"#y c #828284",
"#z c #0000ec",
"#A c #5757bf",
"#B c #a2a288",
"#C c #a1a1a1",
"#D c #fafafa",
"#E c #fffffc",
"#F c #ffffe1",
"#G c #0000d6",
"#H c #a9a9ff",
"#I c #fffff7",
"#J c #fefefe",
"#K c #fcfcfc",
"#L c #b1b1b1",
"#M c #000000",
"#N c #000000",
"#O c #000000",
"#P c #000000",
"#Q c #000000",
"#R c #000000",
"#S c #000000",
"#T c #000000",
"#U c #000000",
"#V c #000000",
"#W c #000000",
"#X c #000000",
"#Y c #000000",
"#Z c #000000",
"#0 c #000000",
"#1 c #000000",
"#2 c #000000",
"#3 c #000000",
"#4 c #000000",
"#5 c #000000",
"#6 c #000000",
"#7 c #000000",
"#8 c #000000",
"a` c #000000",
"a. c #000000",
"a# c #000000",
"aa c #000000",
"ab c #000000",
"ac c #000000",
"ad c #000000",
"ae c #000000",
"af c #000000",
"ag c #000000",
"ah c #000000",
"ai c #000000",
"aj c #000000",
"ak c #000000",
"al c #000000",
"am c #000000",
"an c #000000",
"ao c #000000",
"ap c #000000",
"aq c #000000",
"ar c #000000",
"as c #000000",
"at c #000000",
"au c #000000",
"av c #000000",
"aw c #000000",
"ax c #000000",
"ay c #000000",
"az c #000000",
"aA c #000000",
"aB c #000000",
"aC c #000000",
"aD c #000000",
"aE c #000000",
"aF c #000000",
"aG c #000000",
"aH c #000000",
"aI c #000000",
"aJ c #000000",
"aK c #000000",
"aL c #000000",
"aM c #000000",
"aN c #000000",
"aO c #000000",
"aP c #000000",
"aQ c #000000",
"aR c #000000",
"aS c #000000",
"aT c #000000",
"aU c #000000",
"aV c #000000",
"aW c #000000",
"aX c #000000",
"aY c #000000",
"aZ c #000000",
"a0 c #000000",
"a1 c #000000",
"a2 c #000000",
"a3 c #000000",
"a4 c #000000",
"a5 c #000000",
"a6 c #000000",
"a7 c #000000",
"a8 c #000000",
/* pixels */
"````````````````````````````````````",
"```.`#`a`b`c`d`e`f`g`h`i`a`a`j`k`.``",
"```l`m`n`o`p`q```r`s`t`u`v`w`x`x`l``",
"```y`z`A`B`C`D`E`A`F`G`H`I`J`K`K`y``",
"```L`M`N`O`A`P`Q`R`S`T`T`T`T`U`U`L``",
"```V`W`X`Y`A`A`Z`0`1`c`2`2`3`4`4`V``",
"```5`6`7`8.`...#`A.a.b`H.c.d.e.f`5``",
"``.g.h`A.i.j.k.l.m.n.o.p.q.r.s.s.g``",
"``.t.u.v.w.x.y.z.A.B.C.D.E.F.G.G.t``",
"``.H.I.J.K.K.L``.M.N.O.P.Q.R`K`K.H``",
"``.S.T.U.V.W.y.X.Y.Z.0.1.2.3.4.4.S``",
"``.5.6.7.8#`#.###a#b.7#c#d#e#f#f.5``",
"``#g#h#i.7#j#k#l#m#n#o#p`I`J`K`K#g``",
"```v#q#r#s.7#t.7.7#u#v`T`T`T`U`U`v``",
"```V#w#x#y#z.7.7#A#B`2`c`2`c#C#C`V``",
"``#g``#D#E#F#G#H#I#J``````#K``#L#g``",
"```.`#`a`b`c`d`e`f`g`h`i`a`a`j`k`.``",
"````````````````````````````````````"
};
