/* XPM */
static char *ecb_xpm[] = {
/* width height num_colors chars_per_pixel */
"    18    18      256            2",
/* colors */
"`` c #ffffff",
"`. c #ff6161",
"`# c #fe9999",
"`a c #ffa5a5",
"`b c #fc9999",
"`c c #ff7777",
"`d c #ffe6e6",
"`e c #ff9e9e",
"`f c #fd2a2a",
"`g c #ffc2c2",
"`h c #feaeae",
"`i c #ff0000",
"`j c #ffc9c9",
"`k c #ffe4e4",
"`l c #ff3434",
"`m c #fff9f9",
"`n c #ffd5d5",
"`o c #ff5a5a",
"`p c #ffcdcd",
"`q c #ffe1e1",
"`r c #ff2d2d",
"`s c #ff6d6d",
"`t c #ff6868",
"`u c #ffdfdf",
"`v c #ff3333",
"`w c #ffbebe",
"`x c #ffb6b6",
"`y c #ffdede",
"`z c #ff3131",
"`A c #ffebeb",
"`B c #ffeded",
"`C c #ff4b4b",
"`D c #fff4f4",
"`E c #fff1f1",
"`F c #fe3535",
"`G c #ffeeee",
"`H c #fd1111",
"`I c #fec4c4",
"`J c #ff1515",
"`K c #ff2626",
"`L c #ff6666",
"`M c #fb4b4b",
"`N c #8f8f8f",
"`O c #000000",
"`P c #141313",
"`Q c #0b2e2e",
"`R c #e0ffff",
"`S c #8eacac",
"`T c #191919",
"`U c #ededed",
"`V c #a3a3a3",
"`W c #d7d7d7",
"`X c #4d4c4c",
"`Y c #5c5b5b",
"`Z c #2e2e2e",
"`0 c #2d2d2d",
"`1 c #040404",
"`2 c #1c1c1c",
"`3 c #2c2c2c",
"`4 c #f8f8f8",
"`5 c #e1e1e1",
"`6 c #282828",
"`7 c #323232",
"`8 c #070707",
".` c #e9e9e9",
".. c #202020",
".# c #f0f0f0",
".a c #b3b3b3",
".b c #222222",
".c c #9f9f9f",
".d c #101010",
".e c #2a2a2a",
".f c #626262",
".g c #161616",
".h c #474747",
".i c #dfdfdf",
".j c #f1f1f1",
".k c #0e0e0e",
".l c #1e1e1e",
".m c #545454",
".n c #060606",
".o c #5a5a5a",
".p c #f7f7f7",
".q c #737373",
".r c #7a7a7a",
".s c #717171",
".t c #797979",
".u c #686868",
".v c #f2f2f2",
".w c #000000",
".x c #000000",
".y c #000000",
".z c #000000",
".A c #000000",
".B c #000000",
".C c #000000",
".D c #000000",
".E c #000000",
".F c #000000",
".G c #000000",
".H c #000000",
".I c #000000",
".J c #000000",
".K c #000000",
".L c #000000",
".M c #000000",
".N c #000000",
".O c #000000",
".P c #000000",
".Q c #000000",
".R c #000000",
".S c #000000",
".T c #000000",
".U c #000000",
".V c #000000",
".W c #000000",
".X c #000000",
".Y c #000000",
".Z c #000000",
".0 c #000000",
".1 c #000000",
".2 c #000000",
".3 c #000000",
".4 c #000000",
".5 c #000000",
".6 c #000000",
".7 c #000000",
".8 c #000000",
"#` c #000000",
"#. c #000000",
"## c #000000",
"#a c #000000",
"#b c #000000",
"#c c #000000",
"#d c #000000",
"#e c #000000",
"#f c #000000",
"#g c #000000",
"#h c #000000",
"#i c #000000",
"#j c #000000",
"#k c #000000",
"#l c #000000",
"#m c #000000",
"#n c #000000",
"#o c #000000",
"#p c #000000",
"#q c #000000",
"#r c #000000",
"#s c #000000",
"#t c #000000",
"#u c #000000",
"#v c #000000",
"#w c #000000",
"#x c #000000",
"#y c #000000",
"#z c #000000",
"#A c #000000",
"#B c #000000",
"#C c #000000",
"#D c #000000",
"#E c #000000",
"#F c #000000",
"#G c #000000",
"#H c #000000",
"#I c #000000",
"#J c #000000",
"#K c #000000",
"#L c #000000",
"#M c #000000",
"#N c #000000",
"#O c #000000",
"#P c #000000",
"#Q c #000000",
"#R c #000000",
"#S c #000000",
"#T c #000000",
"#U c #000000",
"#V c #000000",
"#W c #000000",
"#X c #000000",
"#Y c #000000",
"#Z c #000000",
"#0 c #000000",
"#1 c #000000",
"#2 c #000000",
"#3 c #000000",
"#4 c #000000",
"#5 c #000000",
"#6 c #000000",
"#7 c #000000",
"#8 c #000000",
"a` c #000000",
"a. c #000000",
"a# c #000000",
"aa c #000000",
"ab c #000000",
"ac c #000000",
"ad c #000000",
"ae c #000000",
"af c #000000",
"ag c #000000",
"ah c #000000",
"ai c #000000",
"aj c #000000",
"ak c #000000",
"al c #000000",
"am c #000000",
"an c #000000",
"ao c #000000",
"ap c #000000",
"aq c #000000",
"ar c #000000",
"as c #000000",
"at c #000000",
"au c #000000",
"av c #000000",
"aw c #000000",
"ax c #000000",
"ay c #000000",
"az c #000000",
"aA c #000000",
"aB c #000000",
"aC c #000000",
"aD c #000000",
"aE c #000000",
"aF c #000000",
"aG c #000000",
"aH c #000000",
"aI c #000000",
"aJ c #000000",
"aK c #000000",
"aL c #000000",
"aM c #000000",
"aN c #000000",
"aO c #000000",
"aP c #000000",
"aQ c #000000",
"aR c #000000",
"aS c #000000",
"aT c #000000",
"aU c #000000",
"aV c #000000",
"aW c #000000",
"aX c #000000",
"aY c #000000",
"aZ c #000000",
"a0 c #000000",
"a1 c #000000",
"a2 c #000000",
"a3 c #000000",
"a4 c #000000",
"a5 c #000000",
"a6 c #000000",
"a7 c #000000",
"a8 c #000000",
/* pixels */
"````````````````````````````````````",
"`````````````.`#`a`b`c`d````````````",
"`````````````e`f`g`h`i`j````````````",
"`````````````k`l`m`n`o`p````````````",
"`````````````q`r`s`i`t``````````````",
"`````````````u`v`w`i`x``````````````",
"`````````````y`z`A`B`C`D````````````",
"`````````````E`F`G```H`I````````````",
"`````````````J`K`L`M`i`k````````````",
"```````N`O`P`Q`R`````S`O`O`T`O`U````",
"`````V`O`W```X`Y```````Z`Z```0`1````",
"`````2`3`````4`5```````6`7```8.`````",
"`````6`6```````````````Z`O..`O``````",
"`````6`6````.#.a```````6`Z``.b.c````",
"````.d.e`````O.f``````.e.e``.e.g````",
"```````O.h.i.h``````.j.k.l.m.n.o````",
"``````.p.q.r````````.a.s.t.u.v``````",
"````````````````````````````````````"
};
