/* XPM */
static char *find_xpm[] = {
/* width height num_colors chars_per_pixel */
"    18    18      256            2",
/* colors */
"`` c #ffffff",
"`. c #d2d4e6",
"`# c #97a2c8",
"`a c #93a4ce",
"`b c #86a1d1",
"`c c #a8b1d4",
"`d c #e8e8f3",
"`e c #c6cde4",
"`f c #7b96c9",
"`g c #c0e6f3",
"`h c #c4f1fa",
"`i c #d1ffff",
"`j c #a2cae1",
"`k c #778dc0",
"`l c #e9ebf3",
"`m c #fcfbfd",
"`n c #acb8d9",
"`o c #bac8e2",
"`p c #e4eef8",
"`q c #d5f3fb",
"`r c #b5edff",
"`s c #b4e0f1",
"`t c #97b3d8",
"`u c #bcc4df",
"`v c #d7dceb",
"`w c #e9ebf4",
"`x c #98b0d4",
"`y c #e2f3fe",
"`z c #caf2ff",
"`A c #c3efff",
"`B c #b9eeff",
"`C c #c6faff",
"`D c #bae8f3",
"`E c #7c9ccb",
"`F c #91aad3",
"`G c #e0e5f2",
"`H c #95c4e4",
"`I c #baf2ff",
"`J c #c3f6ff",
"`K c #cdfbff",
"`L c #dcffff",
"`M c #dbffff",
"`N c #84aad6",
"`O c #8fabd5",
"`P c #e4e8f3",
"`Q c #96bcdb",
"`R c #b1e8ff",
"`S c #c1f3ff",
"`T c #caf8ff",
"`U c #e5ffff",
"`V c #f4ffff",
"`W c #e5fbff",
"`X c #8aa6d1",
"`Y c #98acd2",
"`Z c #f0f2f9",
"`0 c #94a5cf",
"`1 c #bdecf9",
"`2 c #c7faff",
"`3 c #ccfbff",
"`4 c #e9ffff",
"`5 c #d7e2f0",
"`6 c #8d98bd",
"`7 c #a4abc8",
"`8 c #edeae5",
".` c #95a4cf",
".. c #b1daf0",
".# c #c5f6fd",
".a c #ccfcff",
".b c #edffff",
".c c #f2fdfe",
".d c #c4cde4",
".e c #a0a7c6",
".f c #b9bed3",
".g c #f5ead9",
".h c #f2ba56",
".i c #b39f8d",
".j c #8597c4",
".k c #84add5",
".l c #8bb6da",
".m c #99bde4",
".n c #94aed3",
".o c #a6b0d4",
".p c #feffff",
".q c #fcfbf9",
".r c #e7c897",
".s c #ffc958",
".t c #d1783e",
".u c #9f8589",
".v c #dde2ea",
".w c #e4eaf6",
".x c #e2e7f3",
".y c #e0e6f2",
".z c #e7eaf3",
".A c #f7f8fb",
".B c #fffefd",
".C c #edb04b",
".D c #ffb137",
".E c #cf7b42",
".F c #947ea2",
".G c #e0e2f2",
".H c #d0c39d",
".I c #e08f40",
".J c #b27064",
".K c #9d7d91",
".L c #e1e4f3",
".M c #b5b79b",
".N c #c86a40",
".O c #9b707e",
".P c #8f80a5",
".Q c #cccdc9",
".R c #939aa5",
".S c #b1adcf",
".T c #f9f9fd",
".U c #000000",
".V c #000000",
".W c #000000",
".X c #000000",
".Y c #000000",
".Z c #000000",
".0 c #000000",
".1 c #000000",
".2 c #000000",
".3 c #000000",
".4 c #000000",
".5 c #000000",
".6 c #000000",
".7 c #000000",
".8 c #000000",
"#` c #000000",
"#. c #000000",
"## c #000000",
"#a c #000000",
"#b c #000000",
"#c c #000000",
"#d c #000000",
"#e c #000000",
"#f c #000000",
"#g c #000000",
"#h c #000000",
"#i c #000000",
"#j c #000000",
"#k c #000000",
"#l c #000000",
"#m c #000000",
"#n c #000000",
"#o c #000000",
"#p c #000000",
"#q c #000000",
"#r c #000000",
"#s c #000000",
"#t c #000000",
"#u c #000000",
"#v c #000000",
"#w c #000000",
"#x c #000000",
"#y c #000000",
"#z c #000000",
"#A c #000000",
"#B c #000000",
"#C c #000000",
"#D c #000000",
"#E c #000000",
"#F c #000000",
"#G c #000000",
"#H c #000000",
"#I c #000000",
"#J c #000000",
"#K c #000000",
"#L c #000000",
"#M c #000000",
"#N c #000000",
"#O c #000000",
"#P c #000000",
"#Q c #000000",
"#R c #000000",
"#S c #000000",
"#T c #000000",
"#U c #000000",
"#V c #000000",
"#W c #000000",
"#X c #000000",
"#Y c #000000",
"#Z c #000000",
"#0 c #000000",
"#1 c #000000",
"#2 c #000000",
"#3 c #000000",
"#4 c #000000",
"#5 c #000000",
"#6 c #000000",
"#7 c #000000",
"#8 c #000000",
"a` c #000000",
"a. c #000000",
"a# c #000000",
"aa c #000000",
"ab c #000000",
"ac c #000000",
"ad c #000000",
"ae c #000000",
"af c #000000",
"ag c #000000",
"ah c #000000",
"ai c #000000",
"aj c #000000",
"ak c #000000",
"al c #000000",
"am c #000000",
"an c #000000",
"ao c #000000",
"ap c #000000",
"aq c #000000",
"ar c #000000",
"as c #000000",
"at c #000000",
"au c #000000",
"av c #000000",
"aw c #000000",
"ax c #000000",
"ay c #000000",
"az c #000000",
"aA c #000000",
"aB c #000000",
"aC c #000000",
"aD c #000000",
"aE c #000000",
"aF c #000000",
"aG c #000000",
"aH c #000000",
"aI c #000000",
"aJ c #000000",
"aK c #000000",
"aL c #000000",
"aM c #000000",
"aN c #000000",
"aO c #000000",
"aP c #000000",
"aQ c #000000",
"aR c #000000",
"aS c #000000",
"aT c #000000",
"aU c #000000",
"aV c #000000",
"aW c #000000",
"aX c #000000",
"aY c #000000",
"aZ c #000000",
"a0 c #000000",
"a1 c #000000",
"a2 c #000000",
"a3 c #000000",
"a4 c #000000",
"a5 c #000000",
"a6 c #000000",
"a7 c #000000",
"a8 c #000000",
/* pixels */
"````````````````````````````````````",
"````````````````````````````````````",
"`````````````````.`#`a`b`c`d````````",
"```````````````e`f`g`h`i`j`k`l``````",
"`````````````m`n`o`p`q`r`s`t`u`v````",
"`````````````w`x`y`z`A`B`C`D`E`F````",
"`````````````G`H`I`J`K`L`M`M`N`O````",
"`````````````P`Q`R`S`T`U`V`W`X`Y````",
"`````````````Z`0`1`2`3`4```5`6`7````",
"`````````````8.`...#.a.b.c.d.e.f````",
"``````````.g.h.i.j.k.l.m.n.o.p``````",
"``````.q.r.s.t.u.v.w.x.y.z.A````````",
"````.B.C.D.E.F.G````````````````````",
"````.H.I.J.K.L``````````````````````",
"````.M.N.O.P````````````````````````",
"````.Q.R.S.T````````````````````````",
"````````````````````````````````````",
"````````````````````````````````````"
};
