/* XPM */
static char *flymake-prev_xpm[] = {
/* width height num_colors chars_per_pixel */
"    18    18      256            2",
/* colors */
"`` c #ffffff",
"`. c #c80000",
"`# c #efeb00",
"`a c #ddd700",
"`b c #e85d5d",
"`c c #ea5d5d",
"`d c #fff75c",
"`e c #fff65d",
"`f c #ef0000",
"`g c #f56666",
"`h c #fff86b",
"`i c #fff609",
"`j c #fff409",
"`k c #fff40a",
"`l c #e50000",
"`m c #ef6666",
"`n c #096400",
"`o c #f5f466",
"`p c #efec00",
"`q c #c90000",
"`r c #df6666",
"`s c #09d001",
"`t c #ebe766",
"`u c #f8fef2",
"`v c #ebfcdf",
"`w c #ebfcde",
"`x c #cbf8ab",
"`y c #d8fac6",
"`z c #d8f9c6",
"`A c #d8fac7",
"`B c #bcf69c",
"`C c #7eec42",
"`D c #6ae924",
"`E c #c0f5aa",
"`F c #bff5a9",
"`G c #7deb50",
"`H c #57e51d",
"`I c #58e41e",
"`J c #44df16",
"`K c #44e017",
"`L c #a2ef8b",
"`M c #a2f08b",
"`N c #88eb6c",
"`O c #45e016",
"`P c #45df16",
"`Q c #32db0f",
"`R c #7fe96a",
"`S c #58e23c",
"`T c #32da10",
"`U c #31db10",
"`V c #32db10",
"`W c #21d60a",
"`X c #5ae149",
"`Y c #32d91c",
"`Z c #21d609",
"`0 c #21d709",
"`1 c #21d70a",
"`2 c #13d305",
"`3 c #37d92a",
"`4 c #19d40a",
"`5 c #13d304",
"`6 c #000000",
"`7 c #000000",
"`8 c #000000",
".` c #000000",
".. c #000000",
".# c #000000",
".a c #000000",
".b c #000000",
".c c #000000",
".d c #000000",
".e c #000000",
".f c #000000",
".g c #000000",
".h c #000000",
".i c #000000",
".j c #000000",
".k c #000000",
".l c #000000",
".m c #000000",
".n c #000000",
".o c #000000",
".p c #000000",
".q c #000000",
".r c #000000",
".s c #000000",
".t c #000000",
".u c #000000",
".v c #000000",
".w c #000000",
".x c #000000",
".y c #000000",
".z c #000000",
".A c #000000",
".B c #000000",
".C c #000000",
".D c #000000",
".E c #000000",
".F c #000000",
".G c #000000",
".H c #000000",
".I c #000000",
".J c #000000",
".K c #000000",
".L c #000000",
".M c #000000",
".N c #000000",
".O c #000000",
".P c #000000",
".Q c #000000",
".R c #000000",
".S c #000000",
".T c #000000",
".U c #000000",
".V c #000000",
".W c #000000",
".X c #000000",
".Y c #000000",
".Z c #000000",
".0 c #000000",
".1 c #000000",
".2 c #000000",
".3 c #000000",
".4 c #000000",
".5 c #000000",
".6 c #000000",
".7 c #000000",
".8 c #000000",
"#` c #000000",
"#. c #000000",
"## c #000000",
"#a c #000000",
"#b c #000000",
"#c c #000000",
"#d c #000000",
"#e c #000000",
"#f c #000000",
"#g c #000000",
"#h c #000000",
"#i c #000000",
"#j c #000000",
"#k c #000000",
"#l c #000000",
"#m c #000000",
"#n c #000000",
"#o c #000000",
"#p c #000000",
"#q c #000000",
"#r c #000000",
"#s c #000000",
"#t c #000000",
"#u c #000000",
"#v c #000000",
"#w c #000000",
"#x c #000000",
"#y c #000000",
"#z c #000000",
"#A c #000000",
"#B c #000000",
"#C c #000000",
"#D c #000000",
"#E c #000000",
"#F c #000000",
"#G c #000000",
"#H c #000000",
"#I c #000000",
"#J c #000000",
"#K c #000000",
"#L c #000000",
"#M c #000000",
"#N c #000000",
"#O c #000000",
"#P c #000000",
"#Q c #000000",
"#R c #000000",
"#S c #000000",
"#T c #000000",
"#U c #000000",
"#V c #000000",
"#W c #000000",
"#X c #000000",
"#Y c #000000",
"#Z c #000000",
"#0 c #000000",
"#1 c #000000",
"#2 c #000000",
"#3 c #000000",
"#4 c #000000",
"#5 c #000000",
"#6 c #000000",
"#7 c #000000",
"#8 c #000000",
"a` c #000000",
"a. c #000000",
"a# c #000000",
"aa c #000000",
"ab c #000000",
"ac c #000000",
"ad c #000000",
"ae c #000000",
"af c #000000",
"ag c #000000",
"ah c #000000",
"ai c #000000",
"aj c #000000",
"ak c #000000",
"al c #000000",
"am c #000000",
"an c #000000",
"ao c #000000",
"ap c #000000",
"aq c #000000",
"ar c #000000",
"as c #000000",
"at c #000000",
"au c #000000",
"av c #000000",
"aw c #000000",
"ax c #000000",
"ay c #000000",
"az c #000000",
"aA c #000000",
"aB c #000000",
"aC c #000000",
"aD c #000000",
"aE c #000000",
"aF c #000000",
"aG c #000000",
"aH c #000000",
"aI c #000000",
"aJ c #000000",
"aK c #000000",
"aL c #000000",
"aM c #000000",
"aN c #000000",
"aO c #000000",
"aP c #000000",
"aQ c #000000",
"aR c #000000",
"aS c #000000",
"aT c #000000",
"aU c #000000",
"aV c #000000",
"aW c #000000",
"aX c #000000",
"aY c #000000",
"aZ c #000000",
"a0 c #000000",
"a1 c #000000",
"a2 c #000000",
"a3 c #000000",
"a4 c #000000",
"a5 c #000000",
"a6 c #000000",
"a7 c #000000",
"a8 c #000000",
/* pixels */
"````````````````````````````````````",
"````````````````````````````````````",
"```.`.`.`.`.`.`.`.`#`a`a`a`a`a`a`a``",
"```b`b`b`c`b`b`b`b`d`d`d`d`d`d`e`e``",
"```f`f`f`f`f`f`f`g`h`i`j`k`i`i`i`k``",
"```l`l`l`l`l`l`m`n`n`o`p`p`p`p`p`p``",
"```q`q`q`q`q`r`n`s`s`n`t`a`a`a`a`a``",
"`````````````n`s`u`u`s`n````````````",
"```````````n`s`v`w`w`x`s`n``````````",
"`````````n`s`y`z`A`B`C`D`s`n````````",
"```````n`s`E`E`E`F`G`H`H`I`s`n``````",
"`````n`s`J`K`L`M`N`J`O`P`P`O`s`n````",
"`````n`n`n`n`Q`R`S`T`U`V`n`n`n`n````",
"```````````n`W`X`Y`Z`0`1`n``````````",
"```````````n`2`3`4`5`5`2`n``````````",
"```````````n`s`s`s`s`s`s`n``````````",
"```````````n`n`n`n`n`n`n`n``````````",
"````````````````````````````````````"
};
