/* XPM */
static char *flymake-next_xpm[] = {
/* width height num_colors chars_per_pixel */
"    18    18      256            2",
/* colors */
"`` c #ffffff",
"`. c #f3f3f3",
"`# c #f3f4f3",
"`a c #096400",
"`b c #f2f4f3",
"`c c #09d001",
"`d c #13d305",
"`e c #edfcec",
"`f c #21d70a",
"`g c #d9f8d5",
"`h c #cdf6c7",
"`i c #88e97b",
"`j c #4edf3c",
"`k c #21d60a",
"`l c #32db10",
"`m c #b7f2ac",
"`n c #6fe557",
"`o c #32db0f",
"`p c #45e016",
"`q c #45df16",
"`r c #aff19a",
"`s c #7de95c",
"`t c #44df16",
"`u c #44e017",
"`v c #a0f07f",
"`w c #93ee6e",
"`x c #62e72b",
"`y c #58e51d",
"`z c #58e41d",
"`A c #58e51e",
"`B c #57e51e",
"`C c #83ed49",
"`D c #6ae924",
"`E c #6aea24",
"`F c #6aea25",
"`G c #7bee2a",
"`H c #7bed2a",
"`I c #7bed2b",
"`J c #89f130",
"`K c #89f22f",
"`L c #c80000",
"`M c #de6666",
"`N c #ebe766",
"`O c #ddd700",
"`P c #e85d5d",
"`Q c #ea5d5d",
"`R c #f19e9e",
"`S c #fffa9d",
"`T c #fff75c",
"`U c #fff65d",
"`V c #ef0000",
"`W c #f56666",
"`X c #fff86b",
"`Y c #fff609",
"`Z c #fff409",
"`0 c #fff40a",
"`1 c #e50000",
"`2 c #efec00",
"`3 c #c90000",
"`4 c #000000",
"`5 c #000000",
"`6 c #000000",
"`7 c #000000",
"`8 c #000000",
".` c #000000",
".. c #000000",
".# c #000000",
".a c #000000",
".b c #000000",
".c c #000000",
".d c #000000",
".e c #000000",
".f c #000000",
".g c #000000",
".h c #000000",
".i c #000000",
".j c #000000",
".k c #000000",
".l c #000000",
".m c #000000",
".n c #000000",
".o c #000000",
".p c #000000",
".q c #000000",
".r c #000000",
".s c #000000",
".t c #000000",
".u c #000000",
".v c #000000",
".w c #000000",
".x c #000000",
".y c #000000",
".z c #000000",
".A c #000000",
".B c #000000",
".C c #000000",
".D c #000000",
".E c #000000",
".F c #000000",
".G c #000000",
".H c #000000",
".I c #000000",
".J c #000000",
".K c #000000",
".L c #000000",
".M c #000000",
".N c #000000",
".O c #000000",
".P c #000000",
".Q c #000000",
".R c #000000",
".S c #000000",
".T c #000000",
".U c #000000",
".V c #000000",
".W c #000000",
".X c #000000",
".Y c #000000",
".Z c #000000",
".0 c #000000",
".1 c #000000",
".2 c #000000",
".3 c #000000",
".4 c #000000",
".5 c #000000",
".6 c #000000",
".7 c #000000",
".8 c #000000",
"#` c #000000",
"#. c #000000",
"## c #000000",
"#a c #000000",
"#b c #000000",
"#c c #000000",
"#d c #000000",
"#e c #000000",
"#f c #000000",
"#g c #000000",
"#h c #000000",
"#i c #000000",
"#j c #000000",
"#k c #000000",
"#l c #000000",
"#m c #000000",
"#n c #000000",
"#o c #000000",
"#p c #000000",
"#q c #000000",
"#r c #000000",
"#s c #000000",
"#t c #000000",
"#u c #000000",
"#v c #000000",
"#w c #000000",
"#x c #000000",
"#y c #000000",
"#z c #000000",
"#A c #000000",
"#B c #000000",
"#C c #000000",
"#D c #000000",
"#E c #000000",
"#F c #000000",
"#G c #000000",
"#H c #000000",
"#I c #000000",
"#J c #000000",
"#K c #000000",
"#L c #000000",
"#M c #000000",
"#N c #000000",
"#O c #000000",
"#P c #000000",
"#Q c #000000",
"#R c #000000",
"#S c #000000",
"#T c #000000",
"#U c #000000",
"#V c #000000",
"#W c #000000",
"#X c #000000",
"#Y c #000000",
"#Z c #000000",
"#0 c #000000",
"#1 c #000000",
"#2 c #000000",
"#3 c #000000",
"#4 c #000000",
"#5 c #000000",
"#6 c #000000",
"#7 c #000000",
"#8 c #000000",
"a` c #000000",
"a. c #000000",
"a# c #000000",
"aa c #000000",
"ab c #000000",
"ac c #000000",
"ad c #000000",
"ae c #000000",
"af c #000000",
"ag c #000000",
"ah c #000000",
"ai c #000000",
"aj c #000000",
"ak c #000000",
"al c #000000",
"am c #000000",
"an c #000000",
"ao c #000000",
"ap c #000000",
"aq c #000000",
"ar c #000000",
"as c #000000",
"at c #000000",
"au c #000000",
"av c #000000",
"aw c #000000",
"ax c #000000",
"ay c #000000",
"az c #000000",
"aA c #000000",
"aB c #000000",
"aC c #000000",
"aD c #000000",
"aE c #000000",
"aF c #000000",
"aG c #000000",
"aH c #000000",
"aI c #000000",
"aJ c #000000",
"aK c #000000",
"aL c #000000",
"aM c #000000",
"aN c #000000",
"aO c #000000",
"aP c #000000",
"aQ c #000000",
"aR c #000000",
"aS c #000000",
"aT c #000000",
"aU c #000000",
"aV c #000000",
"aW c #000000",
"aX c #000000",
"aY c #000000",
"aZ c #000000",
"a0 c #000000",
"a1 c #000000",
"a2 c #000000",
"a3 c #000000",
"a4 c #000000",
"a5 c #000000",
"a6 c #000000",
"a7 c #000000",
"a8 c #000000",
/* pixels */
"````````````````````````````````````",
"````````````````````````````````````",
"`````.`.`#`a`a`a`a`a`a`a`a``````````",
"`````b`b`b`a`c`c`c`c`c`c`a``````````",
"`````b`b`b`a`d`e`e`e`e`d`a``````````",
"`````b`b`b`a`f`g`h`i`j`k`a``````````",
"`````a`a`a`a`l`m`n`l`l`o`a`a`a`a````",
"`````a`c`p`q`r`s`t`u`u`q`u`t`c`a````",
"```````a`c`v`w`x`y`z`A`B`z`c`a``````",
"`````````a`c`C`D`E`F`D`E`c`a````````",
"```````````a`c`G`H`G`I`c`a``````````",
"`````````````a`c`J`K`c`a````````````",
"```L`L`L`L`L`M`a`c`c`a`N`O`O`O`O`O``",
"```P`P`P`Q`P`P`R`a`a`S`T`T`T`T`U`U``",
"```V`V`V`V`V`V`V`W`X`Y`Z`0`Y`Y`Y`0``",
"```1`1`1`1`1`1`1`1`2`2`2`2`2`2`2`2``",
"```3`3`3`3`3`3`3`3`O`O`O`O`O`O`O`O``",
"````````````````````````````````````"
};
