/* XPM */
static char *folding_xpm[] = {
/* width height num_colors chars_per_pixel */
"    18    18      256            2",
/* colors */
"`` c #ffffff",
"`. c #f8f9fc",
"`# c #e3e7f2",
"`a c #d4dbea",
"`b c #cbd3e3",
"`c c #c6cede",
"`d c #c2cada",
"`e c #bdc5d6",
"`f c #b8c0d1",
"`g c #b5bdcd",
"`h c #b0b8c9",
"`i c #acb4c5",
"`j c #a6afc0",
"`k c #a2aabc",
"`l c #adb2bf",
"`m c #ebecf0",
"`n c #f3f6fa",
"`o c #d3dbeb",
"`p c #b7c3dc",
"`q c #aab7d2",
"`r c #a1aec9",
"`s c #99a7c2",
"`t c #929fbb",
"`u c #8a98b4",
"`v c #8290ad",
"`w c #7c89a6",
"`x c #74819f",
"`y c #6c7a98",
"`z c #647290",
"`A c #5d6b89",
"`B c #3c4a67",
"`C c #6c768b",
"`D c #dbdde2",
"`E c #d4dbeb",
"`F c #b6c2db",
"`G c #bfc9dd",
"`H c #d5dbe7",
"`I c #dfe3ec",
"`J c #dce1ea",
"`K c #dadee7",
"`L c #d7dce5",
"`M c #d5d9e3",
"`N c #d3d7e0",
"`O c #d0d4de",
"`P c #cdd2dc",
"`Q c #cbcfd9",
"`R c #c9cdd7",
"`S c #515c75",
"`T c #253454",
"`U c #7b849a",
"`V c #eeeff2",
"`W c #c1cbe1",
"`X c #b2bed6",
"`Y c #e5e9f1",
"`Z c #fdfffe",
"`0 c #afb5c1",
"`1 c #465372",
"`2 c #38496d",
"`3 c #d6d9e1",
"`4 c #b8c2d9",
"`5 c #bdc6d9",
"`6 c #f7f9fb",
"`7 c #f3f3f6",
"`8 c #66738f",
".` c #243965",
".. c #cfd4df",
".# c #a3aec6",
".a c #b4bdcf",
".b c #f5f6f9",
".c c #fafbfc",
".d c #6f7fa3",
".e c #28417c",
".f c #d0d6e3",
".g c #9ca8c0",
".h c #afb8ca",
".i c #f5f6f8",
".j c #fafafc",
".k c #7082a8",
".l c #294683",
".m c #d0d7e5",
".n c #96a1b9",
".o c #aab3c5",
".p c #f4f5f7",
".q c #fffefb",
".r c #f6f2f2",
".s c #f3f9fc",
".t c #feffff",
".u c #fdfaf8",
".v c #f3f2f3",
".w c #f5fbfe",
".x c #fbfbfb",
".y c #7184ad",
".z c #2a498b",
".A c #d0d7e7",
".B c #909bb3",
".C c #a6aec1",
".D c #f3f5f8",
".E c #f8ddb4",
".F c #5f2526",
".G c #2991c6",
".H c #dfac83",
".I c #332238",
".J c #55bcea",
".K c #d68562",
".L c #341751",
".M c #7bbfef",
".N c #fcfbfc",
".O c #7186b3",
".P c #2b4c93",
".Q c #d1d8e8",
".R c #8995ad",
".S c #a1aabd",
".T c #f3f4f7",
".U c #f9deb7",
".V c #652e2f",
".W c #3296c8",
".X c #e0af88",
".Y c #3b2b40",
".Z c #5cbfeb",
".0 c #d88a69",
".1 c #3c2058",
".2 c #80c2ef",
".3 c #fdfcfc",
".4 c #7389b9",
".5 c #2d4f9a",
".6 c #d1d9ea",
".7 c #838fa8",
".8 c #99a3b7",
"#` c #f4f4f7",
"#. c #fffffd",
"## c #faf8f8",
"#a c #f8fcfd",
"#b c #fefcfb",
"#c c #f9f8f9",
"#d c #fafefe",
"#e c #738abd",
"#f c #2e52a1",
"#g c #d1d9eb",
"#h c #838da6",
"#i c #7d89a0",
"#j c #e7e9ee",
"#k c #dce2ee",
"#l c #627db9",
"#m c #385dad",
"#n c #d3dcee",
"#o c #8c95aa",
"#p c #606d89",
"#q c #a3acbb",
"#r c #dee1e6",
"#s c #e6e8ec",
"#t c #e5e7eb",
"#u c #e4e6ea",
"#v c #e3e5e9",
"#w c #e2e4e9",
"#x c #e3e5ea",
"#y c #e3e5eb",
"#z c #e3e6eb",
"#A c #e3e6ed",
"#B c #8a9dcb",
"#C c #3e61b0",
"#D c #6483c5",
"#E c #e4eaf6",
"#F c #c0c6d0",
"#G c #6f7b94",
"#H c #505e7b",
"#I c #576480",
"#J c #646f88",
"#K c #606b84",
"#L c #59657e",
"#M c #535f78",
"#N c #505b76",
"#O c #4f5b79",
"#P c #505f7f",
"#Q c #506285",
"#R c #52648b",
"#S c #536792",
"#T c #3359ac",
"#U c #4b6fbc",
"#V c #bccae8",
"#W c #fcfcfd",
"#X c #bfc5d0",
"#Y c #80899f",
"#Z c #68738b",
"#0 c #616b84",
"#1 c #5b667f",
"#2 c #566179",
"#3 c #515d76",
"#4 c #505c78",
"#5 c #515f7f",
"#6 c #526385",
"#7 c #53648b",
"#8 c #546791",
"a` c #556a97",
"a. c #6f8cc9",
"a# c #b8c7e6",
"aa c #fbfcfe",
"ab c #dcdee3",
"ac c #d4d7de",
"ad c #d4d7dd",
"ae c #d3d6dc",
"af c #d3d5dd",
"ag c #d3d6de",
"ah c #d3d8e2",
"ai c #d3d8e3",
"aj c #d4d9e5",
"ak c #d4dae6",
"al c #f6f8fc",
"am c #000000",
"an c #000000",
"ao c #000000",
"ap c #000000",
"aq c #000000",
"ar c #000000",
"as c #000000",
"at c #000000",
"au c #000000",
"av c #000000",
"aw c #000000",
"ax c #000000",
"ay c #000000",
"az c #000000",
"aA c #000000",
"aB c #000000",
"aC c #000000",
"aD c #000000",
"aE c #000000",
"aF c #000000",
"aG c #000000",
"aH c #000000",
"aI c #000000",
"aJ c #000000",
"aK c #000000",
"aL c #000000",
"aM c #000000",
"aN c #000000",
"aO c #000000",
"aP c #000000",
"aQ c #000000",
"aR c #000000",
"aS c #000000",
"aT c #000000",
"aU c #000000",
"aV c #000000",
"aW c #000000",
"aX c #000000",
"aY c #000000",
"aZ c #000000",
"a0 c #000000",
"a1 c #000000",
"a2 c #000000",
"a3 c #000000",
"a4 c #000000",
"a5 c #000000",
"a6 c #000000",
"a7 c #000000",
"a8 c #000000",
/* pixels */
"````````````````````````````````````",
"````````````````````````````````````",
"```.`#`a`b`c`d`e`f`g`h`i`j`k`l`m````",
"`n`o`p`q`r`s`t`u`v`w`x`y`z`A`B`C`D``",
"`E`F`G`H`I`J`K`L`M`N`O`P`Q`R`S`T`U`V",
"`W`X`Y`Z`````````````````````0`1`2`3",
"`4`5`6```````````````````````7`8.`..",
".#.a.b``````````````````````.c.d.e.f",
".g.h.i``````````````````````.j.k.l.m",
".n.o.p``.q.r.s.t````.u.v.w``.x.y.z.A",
".B.C.D.E.F.G``.H.I.J``.K.L.M.N.O.P.Q",
".R.S.T.U.V.W``.X.Y.Z``.0.1.2.3.4.5.6",
".7.8#```#.###a``````#b#c#d``.c#e#f#g",
"#h#i#j``````````````````````#k#l#m#n",
"#o#p#q#r#s#s#t#u#v#w#x#y#z#A#B#C#D#E",
"#F#G#H#I#J#K#L#M#N#O#P#Q#R#S#T#U#V.t",
"#W#X#Y#Z#0#1#2#3#4#5#6#7#8a`a.a#aa``",
"````.pabacadaeafag`Nahaiajakal``````"
};
