/* XPM */
static char *debug_xpm[] = {
/* width height num_colors chars_per_pixel */
"    18    18      256            2",
/* colors */
"`` c #808080",
"`. c #7f7f7f",
"`# c #87877f",
"`a c #909080",
"`b c #828282",
"`c c #929282",
"`d c #424086",
"`e c #00007d",
"`f c #8b8c8b",
"`g c #666866",
"`h c #6a6a6a",
"`i c #828280",
"`j c #87867d",
"`k c #92927e",
"`l c #2a268c",
"`m c #121592",
"`n c #8b8b7e",
"`o c #848484",
"`p c #7b7b7b",
"`q c #777776",
"`r c #828389",
"`s c #3d4193",
"`t c #16167d",
"`u c #00007f",
"`v c #686988",
"`w c #84847f",
"`x c #7f7e7f",
"`y c #8d918d",
"`z c #3a3a3a",
"`A c #8c8c88",
"`B c #61607d",
"`C c #000081",
"`D c #000080",
"`E c #50507f",
"`F c #8d8d80",
"`G c #8a8b8a",
"`H c #6c6e6c",
"`I c #6d6d6a",
"`J c #6e6e85",
"`K c #4a51a6",
"`L c #181989",
"`M c #00007e",
"`N c #575780",
"`O c #8c8c80",
"`P c #858584",
"`Q c #7d7e74",
"`R c #878776",
"`S c #8a8a82",
"`T c #494b89",
"`U c #272a94",
"`V c #7a7a85",
"`W c #48487e",
"`X c #868680",
"`Y c #80807f",
"`Z c #878781",
"`0 c #323386",
"`1 c #808081",
"`2 c #404184",
"`3 c #0d0f88",
"`4 c #000079",
"`5 c #32369d",
"`6 c #909085",
"`7 c #717494",
"`8 c #81817e",
".` c #82827f",
".. c #6a6b84",
".# c #353796",
".a c #060682",
".b c #000082",
".c c #181b8d",
".d c #00007c",
".e c #767a98",
".f c #0d0f8a",
".g c #90907f",
".h c #818180",
".i c #78787f",
".j c #797882",
".k c #77767f",
".l c #2d329e",
".m c #4b4b7f",
".n c #9b9a87",
".o c #525393",
".p c #00007b",
".q c #81817f",
".r c #89897d",
".s c #8b8b80",
".t c #67677e",
".u c #585da2",
".v c #85857d",
".w c #8a8a80",
".x c #25257f",
".y c #2e3082",
".z c #8f8f7d",
".A c #00007a",
".B c #8e8e80",
".C c #000000",
".D c #000000",
".E c #000000",
".F c #000000",
".G c #000000",
".H c #000000",
".I c #000000",
".J c #000000",
".K c #000000",
".L c #000000",
".M c #000000",
".N c #000000",
".O c #000000",
".P c #000000",
".Q c #000000",
".R c #000000",
".S c #000000",
".T c #000000",
".U c #000000",
".V c #000000",
".W c #000000",
".X c #000000",
".Y c #000000",
".Z c #000000",
".0 c #000000",
".1 c #000000",
".2 c #000000",
".3 c #000000",
".4 c #000000",
".5 c #000000",
".6 c #000000",
".7 c #000000",
".8 c #000000",
"#` c #000000",
"#. c #000000",
"## c #000000",
"#a c #000000",
"#b c #000000",
"#c c #000000",
"#d c #000000",
"#e c #000000",
"#f c #000000",
"#g c #000000",
"#h c #000000",
"#i c #000000",
"#j c #000000",
"#k c #000000",
"#l c #000000",
"#m c #000000",
"#n c #000000",
"#o c #000000",
"#p c #000000",
"#q c #000000",
"#r c #000000",
"#s c #000000",
"#t c #000000",
"#u c #000000",
"#v c #000000",
"#w c #000000",
"#x c #000000",
"#y c #000000",
"#z c #000000",
"#A c #000000",
"#B c #000000",
"#C c #000000",
"#D c #000000",
"#E c #000000",
"#F c #000000",
"#G c #000000",
"#H c #000000",
"#I c #000000",
"#J c #000000",
"#K c #000000",
"#L c #000000",
"#M c #000000",
"#N c #000000",
"#O c #000000",
"#P c #000000",
"#Q c #000000",
"#R c #000000",
"#S c #000000",
"#T c #000000",
"#U c #000000",
"#V c #000000",
"#W c #000000",
"#X c #000000",
"#Y c #000000",
"#Z c #000000",
"#0 c #000000",
"#1 c #000000",
"#2 c #000000",
"#3 c #000000",
"#4 c #000000",
"#5 c #000000",
"#6 c #000000",
"#7 c #000000",
"#8 c #000000",
"a` c #000000",
"a. c #000000",
"a# c #000000",
"aa c #000000",
"ab c #000000",
"ac c #000000",
"ad c #000000",
"ae c #000000",
"af c #000000",
"ag c #000000",
"ah c #000000",
"ai c #000000",
"aj c #000000",
"ak c #000000",
"al c #000000",
"am c #000000",
"an c #000000",
"ao c #000000",
"ap c #000000",
"aq c #000000",
"ar c #000000",
"as c #000000",
"at c #000000",
"au c #000000",
"av c #000000",
"aw c #000000",
"ax c #000000",
"ay c #000000",
"az c #000000",
"aA c #000000",
"aB c #000000",
"aC c #000000",
"aD c #000000",
"aE c #000000",
"aF c #000000",
"aG c #000000",
"aH c #000000",
"aI c #000000",
"aJ c #000000",
"aK c #000000",
"aL c #000000",
"aM c #000000",
"aN c #000000",
"aO c #000000",
"aP c #000000",
"aQ c #000000",
"aR c #000000",
"aS c #000000",
"aT c #000000",
"aU c #000000",
"aV c #000000",
"aW c #000000",
"aX c #000000",
"aY c #000000",
"aZ c #000000",
"a0 c #000000",
"a1 c #000000",
"a2 c #000000",
"a3 c #000000",
"a4 c #000000",
"a5 c #000000",
"a6 c #000000",
"a7 c #000000",
"a8 c #000000",
/* pixels */
"````````````````````````````````````",
"````````````````````````````````````",
"```````````````````.`#`a````````````",
"```````.`b`b`````.`c`d`e`a``````````",
"`````.`f`g`h`i`j`k`d`l`m`n``````````",
"`````.`o`p`q`r`s`t`u`e`v`w``````````",
"`````x`y`z`A`B`C`C`u`D`E`F``````````",
"`````.`G`H`I`J`K`L`M`M`u`N`O````````",
"`````.`P`Q`R`S`T`C`e`U`V`M`W`X``````",
"`````Y`Z`0`u`1`2`M`3`4`5`6`7`8``````",
"````.`...#.a.b.c.d.e.f.d.g`8````````",
"````.h.i.j.k.l.d.m.n.o.p`a``````````",
"``````.h.q.`.r`a.s.t.b.u.v``````````",
"````````````````.w.x.y.z.q``````````",
"`````````````````a`D.A`e`O``````````",
"```````````````````a.B`O````````````",
"````````````````````````````````````",
"````````````````````````````````````"
};
