/* XPM */
static char *recent-backward_xpm[] = {
/* width height num_colors chars_per_pixel */
"    18    18      256            2",
/* colors */
"`` c #ffffff",
"`. c #faf8f7",
"`# c #f9f3e6",
"`a c #fcffff",
"`b c #c09031",
"`c c #dab76d",
"`d c #c69d4e",
"`e c #e0a933",
"`f c #dbbc7b",
"`g c #f5f4f5",
"`h c #c99e4a",
"`i c #f1c25b",
"`j c #e9b951",
"`k c #dbbf80",
"`l c #fafcff",
"`m c #c89c45",
"`n c #eaba4f",
"`o c #fad278",
"`p c #e8b852",
"`q c #c49531",
"`r c #dbbe80",
"`s c #d9ba79",
"`t c #d9b873",
"`u c #efe0c1",
"`v c #f8f7fa",
"`w c #c1953b",
"`x c #f2cc77",
"`y c #f9cf73",
"`z c #f6cc6e",
"`A c #f4ca6e",
"`B c #e8b953",
"`C c #e8b74e",
"`D c #e9b950",
"`E c #dba42e",
"`F c #d9b973",
"`G c #efe6d6",
"`H c #c4922e",
"`I c #efc770",
"`J c #f4c866",
"`K c #f2c565",
"`L c #f2c665",
"`M c #f4c868",
"`N c #f5ca6b",
"`O c #e6b346",
"`P c #dabb7a",
"`Q c #e9d6ac",
"`R c #c3902b",
"`S c #e5bb61",
"`T c #f2c566",
"`U c #efc05d",
"`V c #efc15e",
"`W c #f1c260",
"`X c #e2ad3e",
"`Y c #dabc7a",
"`Z c #e7cfa0",
"`0 c #b87900",
"`1 c #ebc572",
"`2 c #efc365",
"`3 c #ecbb55",
"`4 c #ebbb55",
"`5 c #ebbc55",
"`6 c #edbd58",
"`7 c #dfa937",
"`8 c #dabc7b",
".` c #e6cf9f",
".. c #bc820a",
".# c #e9c168",
".a c #eabd5a",
".b c #e7b64b",
".c c #e7b64c",
".d c #e7b74c",
".e c #e8b84e",
".f c #dca52f",
".g c #dbbd7c",
".h c #f1e7d4",
".i c #c08c20",
".j c #dfb04c",
".k c #e5b54b",
".l c #e3b144",
".m c #e4b245",
".n c #e5b346",
".o c #d9a129",
".p c #dbbd7d",
".q c #efe5d2",
".r c #c3912b",
".s c #e0ae44",
".t c #e1ad3d",
".u c #e0ac3c",
".v c #e0ad3d",
".w c #e1ad3e",
".x c #e1ae3e",
".y c #e2af40",
".z c #d79e25",
".A c #dbbe7d",
".B c #f7f7f9",
".C c #c4963e",
".D c #ddaa3d",
".E c #deaa3a",
".F c #dca633",
".G c #dba532",
".H c #d49b23",
".I c #d2981c",
".J c #d3991d",
".K c #ca8b05",
".L c #dabb77",
".M c #f8f6f8",
".N c #c19743",
".O c #d7a027",
".P c #daa937",
".Q c #d29d26",
".R c #c99c3c",
".S c #dec186",
".T c #dcbe7e",
".U c #ebebed",
".V c #bd923e",
".W c #d9a125",
".X c #ce9720",
".Y c #dec286",
".Z c #eff3ff",
".0 c #c09a4f",
".1 c #cd8f08",
".2 c #dcbf7f",
".3 c #f4f8ff",
".4 c #c09033",
".5 c #dab86d",
".6 c #f8f7f6",
".7 c #000000",
".8 c #000000",
"#` c #000000",
"#. c #000000",
"## c #000000",
"#a c #000000",
"#b c #000000",
"#c c #000000",
"#d c #000000",
"#e c #000000",
"#f c #000000",
"#g c #000000",
"#h c #000000",
"#i c #000000",
"#j c #000000",
"#k c #000000",
"#l c #000000",
"#m c #000000",
"#n c #000000",
"#o c #000000",
"#p c #000000",
"#q c #000000",
"#r c #000000",
"#s c #000000",
"#t c #000000",
"#u c #000000",
"#v c #000000",
"#w c #000000",
"#x c #000000",
"#y c #000000",
"#z c #000000",
"#A c #000000",
"#B c #000000",
"#C c #000000",
"#D c #000000",
"#E c #000000",
"#F c #000000",
"#G c #000000",
"#H c #000000",
"#I c #000000",
"#J c #000000",
"#K c #000000",
"#L c #000000",
"#M c #000000",
"#N c #000000",
"#O c #000000",
"#P c #000000",
"#Q c #000000",
"#R c #000000",
"#S c #000000",
"#T c #000000",
"#U c #000000",
"#V c #000000",
"#W c #000000",
"#X c #000000",
"#Y c #000000",
"#Z c #000000",
"#0 c #000000",
"#1 c #000000",
"#2 c #000000",
"#3 c #000000",
"#4 c #000000",
"#5 c #000000",
"#6 c #000000",
"#7 c #000000",
"#8 c #000000",
"a` c #000000",
"a. c #000000",
"a# c #000000",
"aa c #000000",
"ab c #000000",
"ac c #000000",
"ad c #000000",
"ae c #000000",
"af c #000000",
"ag c #000000",
"ah c #000000",
"ai c #000000",
"aj c #000000",
"ak c #000000",
"al c #000000",
"am c #000000",
"an c #000000",
"ao c #000000",
"ap c #000000",
"aq c #000000",
"ar c #000000",
"as c #000000",
"at c #000000",
"au c #000000",
"av c #000000",
"aw c #000000",
"ax c #000000",
"ay c #000000",
"az c #000000",
"aA c #000000",
"aB c #000000",
"aC c #000000",
"aD c #000000",
"aE c #000000",
"aF c #000000",
"aG c #000000",
"aH c #000000",
"aI c #000000",
"aJ c #000000",
"aK c #000000",
"aL c #000000",
"aM c #000000",
"aN c #000000",
"aO c #000000",
"aP c #000000",
"aQ c #000000",
"aR c #000000",
"aS c #000000",
"aT c #000000",
"aU c #000000",
"aV c #000000",
"aW c #000000",
"aX c #000000",
"aY c #000000",
"aZ c #000000",
"a0 c #000000",
"a1 c #000000",
"a2 c #000000",
"a3 c #000000",
"a4 c #000000",
"a5 c #000000",
"a6 c #000000",
"a7 c #000000",
"a8 c #000000",
/* pixels */
"```````````````````.`#``````````````",
"`````````````````a`b`c``````````````",
"```````````````a`d`e`f``````````````",
"`````````````g`h`i`j`k``````````````",
"```````````l`m`n`o`p`q`r`s`s`s`t`u``",
"`````````v`w`x`y`z`A`B`C`C`C`D`E`F``",
"```````G`H`I`J`K`K`L`M`M`M`M`N`O`P``",
"`````Q`R`S`T`U`V`V`V`V`V`V`V`W`X`Y``",
"```Z`0`1`2`3`4`5`5`5`5`5`5`5`6`7`8``",
"``.`...#.a.b.c.d.d.d.d.d.d.d.e.f.g``",
"````.h.i.j.k.l.m.m.m.m.m.m.m.n.o.p``",
"``````.q.r.s.t.u.v.w.x.x.x.x.y.z.A``",
"````````.B.C.D.E.F.G.H.I.I.I.J.K.L``",
"``````````.M.N.O.P.Q.R.S.T.T.T.L`u``",
"````````````.U.V.W.X.Y``````````````",
"``````````````.Z.0.1.2``````````````",
"````````````````.3.4.5``````````````",
"``````````````````.6`#``````````````"
};
