/* XPM */
static char *replace_xpm[] = {
/* width height num_colors chars_per_pixel */
"    18    18      256            2",
/* colors */
"`` c #ffffff",
"`. c #576bab",
"`# c #6e7fb6",
"`a c #bb5751",
"`b c #a1150d",
"`c c #a21710",
"`d c #eed6d5",
"`e c #f6f6fa",
"`f c #5c6fae",
"`g c #dde1ef",
"`h c #394f9b",
"`i c #fffffe",
"`j c #f3ffff",
"`k c #ba4941",
"`l c #bc5752",
"`m c #eacdcb",
"`n c #c6cde2",
"`o c #7888bc",
"`p c #3e539e",
"`q c #dde1ee",
"`r c #909dc7",
"`s c #7484b9",
"`t c #4057a0",
"`u c #ba4e46",
"`v c #ddaba7",
"`w c #cad0e3",
"`x c #8a99c5",
"`y c #4459a1",
"`z c #93a1ca",
"`A c #001279",
"`B c #092584",
"`C c #001e81",
"`D c #cfdaed",
"`E c #a20d02",
"`F c #d4d8e8",
"`G c #1b368d",
"`H c #39509c",
"`I c #4b5fa5",
"`J c #e8eaf2",
"`K c #afc8eb",
"`L c #ab1103",
"`M c #eacdca",
"`N c #b03a34",
"`O c #e2b9b6",
"`P c #c5cbe1",
"`Q c #7f8fc0",
"`R c #284093",
"`S c #e3a6a0",
"`T c #cb7169",
"`U c #c46c67",
"`V c #f5e7e6",
"`W c #f5f6f9",
"`X c #e5e8f2",
"`Y c #d7dbeb",
"`Z c #d8e2ef",
"`0 c #8c9cb9",
"`1 c #8484af",
"`2 c #8694b0",
"`3 c #c7e2fc",
"`4 c #d3deea",
"`5 c #8698c1",
"`6 c #d5dbe9",
"`7 c #dfedf6",
"`8 c #cde5f3",
".` c #6c83ac",
".. c #acc0d4",
".# c #afafcb",
".a c #c0c6dd",
".b c #f2f8ff",
".c c #e0edfe",
".d c #e9ffff",
".e c #93a9d4",
".f c #a3acc7",
".g c #b2bace",
".h c #adbcd6",
".i c #def5ff",
".j c #d2ebff",
".k c #939ec9",
".l c #a2afcd",
".m c #fffffc",
".n c #c9bdb4",
".o c #6d7b9e",
".p c #94aedf",
".q c #9fbbe0",
".r c #87a3d2",
".s c #7990a3",
".t c #e0dcd7",
".u c #fff6e3",
".v c #ea8004",
".w c #505070",
".x c #4e6ca7",
".y c #42568e",
".z c #3f5a98",
".A c #b4afa7",
".B c #fda62f",
".C c #a56d10",
".D c #cbc8cd",
".E c #e4eaf5",
".F c #dfe3ec",
".G c #dee3ee",
".H c #f1f0ef",
".I c #ffbf66",
".J c #b38b36",
".K c #b0b1b1",
".L c #fcffff",
".M c #000000",
".N c #000000",
".O c #000000",
".P c #000000",
".Q c #000000",
".R c #000000",
".S c #000000",
".T c #000000",
".U c #000000",
".V c #000000",
".W c #000000",
".X c #000000",
".Y c #000000",
".Z c #000000",
".0 c #000000",
".1 c #000000",
".2 c #000000",
".3 c #000000",
".4 c #000000",
".5 c #000000",
".6 c #000000",
".7 c #000000",
".8 c #000000",
"#` c #000000",
"#. c #000000",
"## c #000000",
"#a c #000000",
"#b c #000000",
"#c c #000000",
"#d c #000000",
"#e c #000000",
"#f c #000000",
"#g c #000000",
"#h c #000000",
"#i c #000000",
"#j c #000000",
"#k c #000000",
"#l c #000000",
"#m c #000000",
"#n c #000000",
"#o c #000000",
"#p c #000000",
"#q c #000000",
"#r c #000000",
"#s c #000000",
"#t c #000000",
"#u c #000000",
"#v c #000000",
"#w c #000000",
"#x c #000000",
"#y c #000000",
"#z c #000000",
"#A c #000000",
"#B c #000000",
"#C c #000000",
"#D c #000000",
"#E c #000000",
"#F c #000000",
"#G c #000000",
"#H c #000000",
"#I c #000000",
"#J c #000000",
"#K c #000000",
"#L c #000000",
"#M c #000000",
"#N c #000000",
"#O c #000000",
"#P c #000000",
"#Q c #000000",
"#R c #000000",
"#S c #000000",
"#T c #000000",
"#U c #000000",
"#V c #000000",
"#W c #000000",
"#X c #000000",
"#Y c #000000",
"#Z c #000000",
"#0 c #000000",
"#1 c #000000",
"#2 c #000000",
"#3 c #000000",
"#4 c #000000",
"#5 c #000000",
"#6 c #000000",
"#7 c #000000",
"#8 c #000000",
"a` c #000000",
"a. c #000000",
"a# c #000000",
"aa c #000000",
"ab c #000000",
"ac c #000000",
"ad c #000000",
"ae c #000000",
"af c #000000",
"ag c #000000",
"ah c #000000",
"ai c #000000",
"aj c #000000",
"ak c #000000",
"al c #000000",
"am c #000000",
"an c #000000",
"ao c #000000",
"ap c #000000",
"aq c #000000",
"ar c #000000",
"as c #000000",
"at c #000000",
"au c #000000",
"av c #000000",
"aw c #000000",
"ax c #000000",
"ay c #000000",
"az c #000000",
"aA c #000000",
"aB c #000000",
"aC c #000000",
"aD c #000000",
"aE c #000000",
"aF c #000000",
"aG c #000000",
"aH c #000000",
"aI c #000000",
"aJ c #000000",
"aK c #000000",
"aL c #000000",
"aM c #000000",
"aN c #000000",
"aO c #000000",
"aP c #000000",
"aQ c #000000",
"aR c #000000",
"aS c #000000",
"aT c #000000",
"aU c #000000",
"aV c #000000",
"aW c #000000",
"aX c #000000",
"aY c #000000",
"aZ c #000000",
"a0 c #000000",
"a1 c #000000",
"a2 c #000000",
"a3 c #000000",
"a4 c #000000",
"a5 c #000000",
"a6 c #000000",
"a7 c #000000",
"a8 c #000000",
/* pixels */
"````````````````````````````````````",
"````````````````````````````````````",
"```````````.`#`````````a`b`c`d``````",
"```````e`f`g`h`````i`j`k```l`m``````",
"```````n`o```p`q`r`s`t```u`v````````",
"```````w`x```y`z`A`B`C`D`E``````````",
"```````F`G`H`I`````J`K`L`M`N`O``````",
"```````P`Q```R`````````S`T`U`V``````",
"```````W`X```Y```Z`0`1`2`3``````````",
"```````````````4`5`6`7`8.`..````````",
"``````````````.#.a.b.c.d.e.f````````",
"``````````````.g.h.i.j``.k.l````````",
"````````````.m.n.o.p.q.r.s.t````````",
"````````````.u.v.w.x.y.z.A``````````",
"````````````.B.C.D.E.F.G.H``````````",
"``````````.I.J.K.L``````````````````",
"````````````````````````````````````",
"````````````````````````````````````"
};
