/* XPM */
static char *semantic-impl-toggle_xpm[] = {
/* width height num_colors chars_per_pixel */
"    18    18      256            2",
/* colors */
"`` c #ffffff",
"`. c #5f5fff",
"`# c #474747",
"`a c #737373",
"`b c #5e5e5e",
"`c c #dbdbdb",
"`d c #4141ff",
"`e c #6b6b6b",
"`f c #b6b6b6",
"`g c #000000",
"`h c #696969",
"`i c #afafaf",
"`j c #383838",
"`k c #bbbbbb",
"`l c #4c4c4c",
"`m c #b2b2b2",
"`n c #282828",
"`o c #bcbcbc",
"`p c #cbcbcb",
"`q c #ececec",
"`r c #bfbfbf",
"`s c #b3b3b3",
"`t c #686868",
"`u c #b7b7b7",
"`v c #030303",
"`w c #929292",
"`x c #fcfcfc",
"`y c #959595",
"`z c #c6c6c6",
"`A c #fcfcf8",
"`B c #848484",
"`C c #6c6c6c",
"`D c #f3f3f3",
"`E c #a7a7a7",
"`F c #ababa7",
"`G c #deded5",
"`H c #4646ff",
"`I c #4144ff",
"`J c #fffde8",
"`K c #ff8f8d",
"`L c #ff1111",
"`M c #ffafaf",
"`N c #fffdfd",
"`O c #ff2424",
"`P c #fff4f4",
"`Q c #ff2323",
"`R c #ff9191",
"`S c #ff8888",
"`T c #ffdede",
"`U c #ff7a7a",
"`V c #ffbbbb",
"`W c #fffcfc",
"`X c #ff1b1b",
"`Y c #ff8989",
"`Z c #ff6b6b",
"`0 c #ffb4b4",
"`1 c #ff9797",
"`2 c #ff8a8a",
"`3 c #ffe6e6",
"`4 c #ff9494",
"`5 c #ff7979",
"`6 c #ffb9b9",
"`7 c #ffbcbc",
"`8 c #ffa8a8",
".` c #ffe1e1",
".. c #ff6262",
".# c #ffd8d8",
".a c #6262ff",
".b c #ffe7e7",
".c c #000000",
".d c #000000",
".e c #000000",
".f c #000000",
".g c #000000",
".h c #000000",
".i c #000000",
".j c #000000",
".k c #000000",
".l c #000000",
".m c #000000",
".n c #000000",
".o c #000000",
".p c #000000",
".q c #000000",
".r c #000000",
".s c #000000",
".t c #000000",
".u c #000000",
".v c #000000",
".w c #000000",
".x c #000000",
".y c #000000",
".z c #000000",
".A c #000000",
".B c #000000",
".C c #000000",
".D c #000000",
".E c #000000",
".F c #000000",
".G c #000000",
".H c #000000",
".I c #000000",
".J c #000000",
".K c #000000",
".L c #000000",
".M c #000000",
".N c #000000",
".O c #000000",
".P c #000000",
".Q c #000000",
".R c #000000",
".S c #000000",
".T c #000000",
".U c #000000",
".V c #000000",
".W c #000000",
".X c #000000",
".Y c #000000",
".Z c #000000",
".0 c #000000",
".1 c #000000",
".2 c #000000",
".3 c #000000",
".4 c #000000",
".5 c #000000",
".6 c #000000",
".7 c #000000",
".8 c #000000",
"#` c #000000",
"#. c #000000",
"## c #000000",
"#a c #000000",
"#b c #000000",
"#c c #000000",
"#d c #000000",
"#e c #000000",
"#f c #000000",
"#g c #000000",
"#h c #000000",
"#i c #000000",
"#j c #000000",
"#k c #000000",
"#l c #000000",
"#m c #000000",
"#n c #000000",
"#o c #000000",
"#p c #000000",
"#q c #000000",
"#r c #000000",
"#s c #000000",
"#t c #000000",
"#u c #000000",
"#v c #000000",
"#w c #000000",
"#x c #000000",
"#y c #000000",
"#z c #000000",
"#A c #000000",
"#B c #000000",
"#C c #000000",
"#D c #000000",
"#E c #000000",
"#F c #000000",
"#G c #000000",
"#H c #000000",
"#I c #000000",
"#J c #000000",
"#K c #000000",
"#L c #000000",
"#M c #000000",
"#N c #000000",
"#O c #000000",
"#P c #000000",
"#Q c #000000",
"#R c #000000",
"#S c #000000",
"#T c #000000",
"#U c #000000",
"#V c #000000",
"#W c #000000",
"#X c #000000",
"#Y c #000000",
"#Z c #000000",
"#0 c #000000",
"#1 c #000000",
"#2 c #000000",
"#3 c #000000",
"#4 c #000000",
"#5 c #000000",
"#6 c #000000",
"#7 c #000000",
"#8 c #000000",
"a` c #000000",
"a. c #000000",
"a# c #000000",
"aa c #000000",
"ab c #000000",
"ac c #000000",
"ad c #000000",
"ae c #000000",
"af c #000000",
"ag c #000000",
"ah c #000000",
"ai c #000000",
"aj c #000000",
"ak c #000000",
"al c #000000",
"am c #000000",
"an c #000000",
"ao c #000000",
"ap c #000000",
"aq c #000000",
"ar c #000000",
"as c #000000",
"at c #000000",
"au c #000000",
"av c #000000",
"aw c #000000",
"ax c #000000",
"ay c #000000",
"az c #000000",
"aA c #000000",
"aB c #000000",
"aC c #000000",
"aD c #000000",
"aE c #000000",
"aF c #000000",
"aG c #000000",
"aH c #000000",
"aI c #000000",
"aJ c #000000",
"aK c #000000",
"aL c #000000",
"aM c #000000",
"aN c #000000",
"aO c #000000",
"aP c #000000",
"aQ c #000000",
"aR c #000000",
"aS c #000000",
"aT c #000000",
"aU c #000000",
"aV c #000000",
"aW c #000000",
"aX c #000000",
"aY c #000000",
"aZ c #000000",
"a0 c #000000",
"a1 c #000000",
"a2 c #000000",
"a3 c #000000",
"a4 c #000000",
"a5 c #000000",
"a6 c #000000",
"a7 c #000000",
"a8 c #000000",
/* pixels */
"```````````````````````````````````.",
"```#`a`b`c```````````````````````d``",
"```e`f```g`````````````````````d````",
"```h`i```j`k`````````````````d``````",
"```h`i```l`m```````````````d````````",
"```h`i```n`o`p`q`r`s`````d``````````",
"```t`u```v`w`x`y`z`A```d````````````",
"```e`B`C```D`E```F`G`H``````````````",
"```````````````````H````````````````",
"`````````````````I``````````````````",
"```````````````I`J`K`L`M````````````",
"`````````````d`````N`O``````````````",
"```````````d```````P`Q``````````````",
"`````````d`````````P`Q``````````````",
"```````d```````````P`Q```R`S`T`U`V``",
"`````d`````````````W`X```Y`Z`0`1`2``",
"```d`````````````3`4`5`6`7`8.`...#``",
".a```````````````````````````W.b````"
};
