/* XPM */
static char *semantic-jump-back_xpm[] = {
/* width height num_colors chars_per_pixel */
"    18    18      256            2",
/* colors */
"`` c #ffffff",
"`. c #e9f6e6",
"`# c #80cb71",
"`a c #80c678",
"`b c #7ec578",
"`c c #7ac174",
"`d c #77be6f",
"`e c #77bf70",
"`f c #7bba6f",
"`g c #8bbd83",
"`h c #b2c8ab",
"`i c #e2e9df",
"`j c #e0f2dc",
"`k c #82cc74",
"`l c #b4e1ac",
"`m c #b0e0a8",
"`n c #b2e1a9",
"`o c #aad9a0",
"`p c #a8d89f",
"`q c #a5d49c",
"`r c #90c988",
"`s c #64ae5c",
"`t c #63a655",
"`u c #9ab38d",
"`v c #e0f2dd",
"`w c #84cc79",
"`x c #b7e3b0",
"`y c #b4e2ad",
"`z c #b2e0aa",
"`A c #acdaa3",
"`B c #addaa4",
"`C c #a8d59e",
"`D c #93cb8b",
"`E c #87c17f",
"`F c #7eb874",
"`G c #82aa78",
"`H c #dbefda",
"`I c #48a93d",
"`J c #5eb455",
"`K c #5dab4b",
"`L c #58ab4a",
"`M c #53a44a",
"`N c #49a240",
"`O c #5eab55",
"`P c #93cf8b",
"`Q c #9bd293",
"`R c #99d191",
"`S c #5da254",
"`T c #c6cec1",
"`U c #e1e4df",
"`V c #5f9757",
"`W c #86c27e",
"`X c #85c47c",
"`Y c #77bc6f",
"`Z c #6f9c68",
"`0 c #a4c09c",
"`1 c #5fa757",
"`2 c #76ba6d",
"`3 c #89c480",
"`4 c #5b9354",
"`5 c #bdd2b1",
"`6 c #a6bc9f",
"`7 c #609f58",
"`8 c #78b76e",
".` c #84bf7a",
".. c #538b53",
".# c #accca5",
".a c #4e9545",
".b c #e5efe4",
".c c #d9e6d7",
".d c #d7e5d5",
".e c #dce7db",
".f c #a4bd9e",
".g c #48873e",
".h c #80be7a",
".i c #7abd77",
".j c #5faa59",
".k c #7d9f7c",
".l c #d2e2cf",
".m c #b2cead",
".n c #70af67",
".o c #81c079",
".p c #57a14e",
".q c #5aa051",
".r c #529e4d",
".s c #509845",
".t c #5da454",
".u c #78ba6f",
".v c #7cc07a",
".w c #75b871",
".x c #428842",
".y c #e1e3dd",
".z c #9abe93",
".A c #77a96e",
".B c #7ebf76",
".C c #9cd594",
".D c #91ca89",
".E c #93cb8a",
".F c #8ccb8d",
".G c #8acc80",
".H c #8bcd82",
".I c #77c46f",
".J c #81b777",
".K c #69af65",
".L c #387a39",
".M c #b5cfb0",
".N c #93bb8b",
".O c #70b167",
".P c #83c27d",
".Q c #72b169",
".R c #6db064",
".S c #69af5e",
".T c #67ae5e",
".U c #65a85d",
".V c #579850",
".W c #458b44",
".X c #5b925b",
".Y c #b1c0ab",
".Z c #8db586",
".0 c #448b3f",
".1 c #a2c09d",
".2 c #97b992",
".3 c #95b691",
".4 c #8fb08b",
".5 c #91b38f",
".6 c #a4bfa6",
".7 c #cbd2c6",
".8 c #edeeeb",
"#` c #819e79",
"#. c #abbda5",
"## c #000000",
"#a c #000000",
"#b c #000000",
"#c c #000000",
"#d c #000000",
"#e c #000000",
"#f c #000000",
"#g c #000000",
"#h c #000000",
"#i c #000000",
"#j c #000000",
"#k c #000000",
"#l c #000000",
"#m c #000000",
"#n c #000000",
"#o c #000000",
"#p c #000000",
"#q c #000000",
"#r c #000000",
"#s c #000000",
"#t c #000000",
"#u c #000000",
"#v c #000000",
"#w c #000000",
"#x c #000000",
"#y c #000000",
"#z c #000000",
"#A c #000000",
"#B c #000000",
"#C c #000000",
"#D c #000000",
"#E c #000000",
"#F c #000000",
"#G c #000000",
"#H c #000000",
"#I c #000000",
"#J c #000000",
"#K c #000000",
"#L c #000000",
"#M c #000000",
"#N c #000000",
"#O c #000000",
"#P c #000000",
"#Q c #000000",
"#R c #000000",
"#S c #000000",
"#T c #000000",
"#U c #000000",
"#V c #000000",
"#W c #000000",
"#X c #000000",
"#Y c #000000",
"#Z c #000000",
"#0 c #000000",
"#1 c #000000",
"#2 c #000000",
"#3 c #000000",
"#4 c #000000",
"#5 c #000000",
"#6 c #000000",
"#7 c #000000",
"#8 c #000000",
"a` c #000000",
"a. c #000000",
"a# c #000000",
"aa c #000000",
"ab c #000000",
"ac c #000000",
"ad c #000000",
"ae c #000000",
"af c #000000",
"ag c #000000",
"ah c #000000",
"ai c #000000",
"aj c #000000",
"ak c #000000",
"al c #000000",
"am c #000000",
"an c #000000",
"ao c #000000",
"ap c #000000",
"aq c #000000",
"ar c #000000",
"as c #000000",
"at c #000000",
"au c #000000",
"av c #000000",
"aw c #000000",
"ax c #000000",
"ay c #000000",
"az c #000000",
"aA c #000000",
"aB c #000000",
"aC c #000000",
"aD c #000000",
"aE c #000000",
"aF c #000000",
"aG c #000000",
"aH c #000000",
"aI c #000000",
"aJ c #000000",
"aK c #000000",
"aL c #000000",
"aM c #000000",
"aN c #000000",
"aO c #000000",
"aP c #000000",
"aQ c #000000",
"aR c #000000",
"aS c #000000",
"aT c #000000",
"aU c #000000",
"aV c #000000",
"aW c #000000",
"aX c #000000",
"aY c #000000",
"aZ c #000000",
"a0 c #000000",
"a1 c #000000",
"a2 c #000000",
"a3 c #000000",
"a4 c #000000",
"a5 c #000000",
"a6 c #000000",
"a7 c #000000",
"a8 c #000000",
/* pixels */
"````````````````````````````````````",
"````````````````````````````````````",
"```````.`#`a`b`c`d`e`f`g`h`i````````",
"```````j`k`l`m`n`o`p`q`r`s`t`u``````",
"```````v`w`x`y`z`A`B`C`D`E`F`G``````",
"```````H`I`J`K`L`M`N`O`P`Q`R`S`T````",
"`````````````````````U`V`W`X`Y`Z````",
"```````````````````````0`1`2`3`4````",
"```````````5```````````6`7`8.`..````",
"````````.#.a.b.c.d.e.f.g.h.i.j.k````",
"````.l.m.n.o.p.q.r.s.t.u.v.w.x.y````",
"````.z.A.B.C.D.E.F.G.H.I.J.K.L``````",
"````.M.N.O.P.Q.R.S.T.U.V.W.X.Y``````",
"````````.Z.0.1.2.3.4.5.6.7.8````````",
"``````````#`````````````````````````",
"``````````#.````````````````````````",
"````````````````````````````````````",
"````````````````````````````````````"
};
