/* XPM */
static char *semantic-jump_xpm[] = {
/* width height num_colors chars_per_pixel */
"    18    18      256            2",
/* colors */
"`` c #ffffff",
"`. c #9797cb",
"`# c #0b0b85",
"`a c #0f0f87",
"`b c #1f1f8f",
"`c c #17178b",
"`d c #6464b2",
"`e c #cecee6",
"`f c #8888c4",
"`g c #000064",
"`h c #6868b4",
"`i c #c1c1e1",
"`j c #f0f0ec",
"`k c #b0b0bc",
"`l c #eaeaf0",
"`m c #ececec",
"`n c #d6d6d6",
"`o c #f1f1e9",
"`p c #8383c3",
"`q c #00006e",
"`r c #e3e3d3",
"`s c #c1c1e2",
"`t c #e2e2ea",
"`u c #b0b036",
"`v c #474713",
"`w c #58585e",
"`x c #f2f2f2",
"`y c #fffffe",
"`z c #8181c1",
"`A c #000074",
"`B c #a2a292",
"`C c #8d8dca",
"`D c #d5d5ef",
"`E c #f1f1fe",
"`F c #cece32",
"`G c #303000",
"`H c #000006",
"`I c #c9c9c9",
"`J c #dbdbdb",
"`K c #e2e2da",
"`L c #8484c4",
"`M c #a8a898",
"`N c #78788a",
"`O c #bcbcc2",
"`P c #d6d6d9",
"`Q c #5c5c7e",
"`R c #d8d840",
"`S c #343400",
"`T c #080810",
"`U c #cfcfcf",
"`V c #f4f4ec",
"`W c #c8c8da",
"`X c #b5b500",
"`Y c #9292b0",
"`Z c #91916f",
"`0 c #afaf06",
"`1 c #d2d24c",
"`2 c #070711",
"`3 c #cfcfd3",
"`4 c #fbfbfb",
"`5 c #fffff9",
"`6 c #b2b2ca",
"`7 c #f3f300",
"`8 c #686890",
".` c #94946a",
".. c #f0f014",
".# c #cccc4c",
".a c #333300",
".b c #12120e",
".c c #bdbd9f",
".d c #fdfdff",
".e c #8080c0",
".f c #b4b4cc",
".g c #eeee00",
".h c #7878a0",
".i c #d2d23a",
".j c #9d9d75",
".k c #eded17",
".l c #d2d252",
".m c #3b3b00",
".n c #7d7d00",
".o c #9b9bab",
".p c #fbfb07",
".q c #000007",
".r c #919100",
".s c #252505",
".t c #d1d100",
".u c #7f7f00",
".v c #1e1e00",
".w c #212100",
".x c #868600",
".y c #848491",
".z c #8484c2",
".A c #b1b1c5",
".B c #dede20",
".C c #ffffc4",
".D c #ffffac",
".E c #ffff93",
".F c #ffff8b",
".G c #ffff8e",
".H c #ffffb8",
".I c #ffffc2",
".J c #6e6e00",
".K c #626288",
".L c #dcdcf7",
".M c #6060b4",
".N c #000076",
".O c #d8d8d5",
".P c #a3a3b8",
".Q c #ffff00",
".R c #ffff16",
".S c #ffff38",
".T c #ffff29",
".U c #cece2a",
".V c #aaaa39",
".W c #a0a0b2",
".X c #8c8cc9",
".Y c #1e1e6c",
".Z c #34347a",
".0 c #34347c",
".1 c #a0a098",
".2 c #8080a2",
".3 c #fffff6",
".4 c #929264",
".5 c #67677b",
".6 c #bcbcbc",
".7 c #686860",
".8 c #787870",
"#` c #74746c",
"#. c #8c8c8c",
"## c #acacac",
"#a c #8484a4",
"#b c #8787a7",
"#c c #87878f",
"#d c #909098",
"#e c #afafaf",
"#f c #000000",
"#g c #000000",
"#h c #000000",
"#i c #000000",
"#j c #000000",
"#k c #000000",
"#l c #000000",
"#m c #000000",
"#n c #000000",
"#o c #000000",
"#p c #000000",
"#q c #000000",
"#r c #000000",
"#s c #000000",
"#t c #000000",
"#u c #000000",
"#v c #000000",
"#w c #000000",
"#x c #000000",
"#y c #000000",
"#z c #000000",
"#A c #000000",
"#B c #000000",
"#C c #000000",
"#D c #000000",
"#E c #000000",
"#F c #000000",
"#G c #000000",
"#H c #000000",
"#I c #000000",
"#J c #000000",
"#K c #000000",
"#L c #000000",
"#M c #000000",
"#N c #000000",
"#O c #000000",
"#P c #000000",
"#Q c #000000",
"#R c #000000",
"#S c #000000",
"#T c #000000",
"#U c #000000",
"#V c #000000",
"#W c #000000",
"#X c #000000",
"#Y c #000000",
"#Z c #000000",
"#0 c #000000",
"#1 c #000000",
"#2 c #000000",
"#3 c #000000",
"#4 c #000000",
"#5 c #000000",
"#6 c #000000",
"#7 c #000000",
"#8 c #000000",
"a` c #000000",
"a. c #000000",
"a# c #000000",
"aa c #000000",
"ab c #000000",
"ac c #000000",
"ad c #000000",
"ae c #000000",
"af c #000000",
"ag c #000000",
"ah c #000000",
"ai c #000000",
"aj c #000000",
"ak c #000000",
"al c #000000",
"am c #000000",
"an c #000000",
"ao c #000000",
"ap c #000000",
"aq c #000000",
"ar c #000000",
"as c #000000",
"at c #000000",
"au c #000000",
"av c #000000",
"aw c #000000",
"ax c #000000",
"ay c #000000",
"az c #000000",
"aA c #000000",
"aB c #000000",
"aC c #000000",
"aD c #000000",
"aE c #000000",
"aF c #000000",
"aG c #000000",
"aH c #000000",
"aI c #000000",
"aJ c #000000",
"aK c #000000",
"aL c #000000",
"aM c #000000",
"aN c #000000",
"aO c #000000",
"aP c #000000",
"aQ c #000000",
"aR c #000000",
"aS c #000000",
"aT c #000000",
"aU c #000000",
"aV c #000000",
"aW c #000000",
"aX c #000000",
"aY c #000000",
"aZ c #000000",
"a0 c #000000",
"a1 c #000000",
"a2 c #000000",
"a3 c #000000",
"a4 c #000000",
"a5 c #000000",
"a6 c #000000",
"a7 c #000000",
"a8 c #000000",
/* pixels */
"````````````````````````````````````",
"````````````````````````````````````",
"`````````.`#`a`a`a`a`a`a`a`b`c``````",
"`````````d`e```````````````f`g``````",
"`````````h`i`j`k`l```m`n`o`p`q`r````",
"`````````d`s`t`u`v`w```x`y`z`A`B````",
"`````````C`D`E`F`G`H`I`J`K`L`A`M````",
"`````N```O`P`Q`R`S`T`U`m`V`p`A`M````",
"```W`X`Y`u`Z`0`1`S`2`3`4`5`z`A`M````",
"```6`7`8`F.`...#.a.b.c.d``.e`A`M````",
"``.f.g.h.i.j.k.l`G.m.n.o``.e`A`M````",
"``.f.p.q.r.s.t.u.v.w.x.y``.z`A`M````",
"``.A.B.C.D.E.F.G.H.I.J.K.L.M.N`M````",
"``.O.P.Q.R.S.H.T.U.V.W.X.Y.Z.0.1````",
"````.2.Q.Q.Q.3.Q.4.5.6``.7.8#`#.````",
"````###a#b#b#c#b#d#e````````````````",
"````````````````````````````````````",
"````````````````````````````````````"
};
