/* XPM */
static char *semantic-jump-back_xpm[] = {
/* width height num_colors chars_per_pixel */
"    24    24      256            2",
/* colors */
"`` c #ffffff",
"`. c #73c663",
"`# c #6bbd63",
"`a c #63b55a",
"`b c #6bad5a",
"`c c #7bb573",
"`d c #9cbd94",
"`e c #addea5",
"`f c #a5d69c",
"`g c #9cce94",
"`h c #8cc684",
"`i c #73b56b",
"`j c #7bad6b",
"`k c #b5c6ad",
"`l c #94ce8c",
"`m c #73a56b",
"`n c #63ad52",
"`o c #5aad52",
"`p c #5aa552",
"`q c #52a54a",
"`r c #63a55a",
"`s c #94ad8c",
"`t c #8cad84",
"`u c #5a9c52",
"`v c #84c67b",
"`w c #63945a",
"`x c #84ad7b",
"`y c #6bad63",
"`z c #84bd7b",
"`A c #428439",
"`B c #9cbd8c",
"`C c #84a57b",
"`D c #6ba563",
"`E c #397b39",
"`F c #84b57b",
"`G c #4a8c42",
"`H c #73bd73",
"`I c #5a8c5a",
"`J c #8cb584",
"`K c #4a9442",
"`L c #428c39",
"`M c #7bc67b",
"`N c #4a944a",
"`O c #8ca584",
"`P c #84c684",
"`Q c #73bd6b",
"`R c #5aa55a",
"`S c #adbda5",
"`T c #397b31",
"`U c #317329",
"`V c #7ba573",
"`W c #5a8c52",
"`X c #000000",
"`Y c #000000",
"`Z c #000000",
"`0 c #000000",
"`1 c #000000",
"`2 c #000000",
"`3 c #000000",
"`4 c #000000",
"`5 c #000000",
"`6 c #000000",
"`7 c #000000",
"`8 c #000000",
".` c #000000",
".. c #000000",
".# c #000000",
".a c #000000",
".b c #000000",
".c c #000000",
".d c #000000",
".e c #000000",
".f c #000000",
".g c #000000",
".h c #000000",
".i c #000000",
".j c #000000",
".k c #000000",
".l c #000000",
".m c #000000",
".n c #000000",
".o c #000000",
".p c #000000",
".q c #000000",
".r c #000000",
".s c #000000",
".t c #000000",
".u c #000000",
".v c #000000",
".w c #000000",
".x c #000000",
".y c #000000",
".z c #000000",
".A c #000000",
".B c #000000",
".C c #000000",
".D c #000000",
".E c #000000",
".F c #000000",
".G c #000000",
".H c #000000",
".I c #000000",
".J c #000000",
".K c #000000",
".L c #000000",
".M c #000000",
".N c #000000",
".O c #000000",
".P c #000000",
".Q c #000000",
".R c #000000",
".S c #000000",
".T c #000000",
".U c #000000",
".V c #000000",
".W c #000000",
".X c #000000",
".Y c #000000",
".Z c #000000",
".0 c #000000",
".1 c #000000",
".2 c #000000",
".3 c #000000",
".4 c #000000",
".5 c #000000",
".6 c #000000",
".7 c #000000",
".8 c #000000",
"#` c #000000",
"#. c #000000",
"## c #000000",
"#a c #000000",
"#b c #000000",
"#c c #000000",
"#d c #000000",
"#e c #000000",
"#f c #000000",
"#g c #000000",
"#h c #000000",
"#i c #000000",
"#j c #000000",
"#k c #000000",
"#l c #000000",
"#m c #000000",
"#n c #000000",
"#o c #000000",
"#p c #000000",
"#q c #000000",
"#r c #000000",
"#s c #000000",
"#t c #000000",
"#u c #000000",
"#v c #000000",
"#w c #000000",
"#x c #000000",
"#y c #000000",
"#z c #000000",
"#A c #000000",
"#B c #000000",
"#C c #000000",
"#D c #000000",
"#E c #000000",
"#F c #000000",
"#G c #000000",
"#H c #000000",
"#I c #000000",
"#J c #000000",
"#K c #000000",
"#L c #000000",
"#M c #000000",
"#N c #000000",
"#O c #000000",
"#P c #000000",
"#Q c #000000",
"#R c #000000",
"#S c #000000",
"#T c #000000",
"#U c #000000",
"#V c #000000",
"#W c #000000",
"#X c #000000",
"#Y c #000000",
"#Z c #000000",
"#0 c #000000",
"#1 c #000000",
"#2 c #000000",
"#3 c #000000",
"#4 c #000000",
"#5 c #000000",
"#6 c #000000",
"#7 c #000000",
"#8 c #000000",
"a` c #000000",
"a. c #000000",
"a# c #000000",
"aa c #000000",
"ab c #000000",
"ac c #000000",
"ad c #000000",
"ae c #000000",
"af c #000000",
"ag c #000000",
"ah c #000000",
"ai c #000000",
"aj c #000000",
"ak c #000000",
"al c #000000",
"am c #000000",
"an c #000000",
"ao c #000000",
"ap c #000000",
"aq c #000000",
"ar c #000000",
"as c #000000",
"at c #000000",
"au c #000000",
"av c #000000",
"aw c #000000",
"ax c #000000",
"ay c #000000",
"az c #000000",
"aA c #000000",
"aB c #000000",
"aC c #000000",
"aD c #000000",
"aE c #000000",
"aF c #000000",
"aG c #000000",
"aH c #000000",
"aI c #000000",
"aJ c #000000",
"aK c #000000",
"aL c #000000",
"aM c #000000",
"aN c #000000",
"aO c #000000",
"aP c #000000",
"aQ c #000000",
"aR c #000000",
"aS c #000000",
"aT c #000000",
"aU c #000000",
"aV c #000000",
"aW c #000000",
"aX c #000000",
"aY c #000000",
"aZ c #000000",
"a0 c #000000",
"a1 c #000000",
"a2 c #000000",
"a3 c #000000",
"a4 c #000000",
"a5 c #000000",
"a6 c #000000",
"a7 c #000000",
"a8 c #000000",
/* pixels */
"````````````````````````````````````````````````",
"````````````````````````````````````````````````",
"````````````````````````````````````````````````",
"```````````.`.`#`#`#`a`a`a`a`b`c`d`d````````````",
"```````````.`e`e`e`e`e`f`f`f`g`h`i`i`j`k````````",
"```````````.`e`e`e`e`e`f`f`f`g`h`i`i`j`k````````",
"```````````#`e`e`e`e`f`f`f`f`g`l`g`g`c`m````````",
"```````````a`a`a`n`n`o`p`q`q`i`l`l`l`l`r`s``````",
"`````````````````````````````t`u`h`h`v`i`w``````",
"```````````````````````````````x`y`y`v`z`A``````",
"```````````````````````````````x`y`y`v`z`A``````",
"```````````````B```````````````C`D`D`v`c`E``````",
"`````````````F`D`````````````C`G`c`c`H`y`I``````",
"```````````J`y`y`K`K`G`L`A`A`u`c`M`M`c`N`O``````",
"```````J`J`y`l`l`h`h`h`P`v`v`v`Q`c`c`R`I````````",
"```````J`J`y`l`l`h`h`h`P`v`v`v`Q`c`c`R`I````````",
"```````J`J`y`h`h`h`h`v`v`v`v`c`r`N`N`I`S````````",
"```````````x`r`R`A`A`T`T`U`U`E`I`O`O````````````",
"`````````````V`W````````````````````````````````",
"```````````````O````````````````````````````````",
"```````````````O````````````````````````````````",
"````````````````````````````````````````````````",
"````````````````````````````````````````````````",
"````````````````````````````````````````````````"
};
