/* XPM */
static char *source-pair_xpm[] = {
/* width height num_colors chars_per_pixel */
"    24    24      256            2",
/* colors */
"`` c #ffffff",
"`. c #727272",
"`# c #ff8b8b",
"`a c #ffa0a0",
"`b c #ffe9e9",
"`c c #ff6a6a",
"`d c #ffebeb",
"`e c #7f7f7f",
"`f c #ff8787",
"`g c #ff8888",
"`h c #ff9898",
"`i c #ffcaca",
"`j c #ff7e7e",
"`k c #ff9292",
"`l c #ffb4b4",
"`m c #ff7474",
"`n c #ffa1a1",
"`o c #ff7a7a",
"`p c #ffadad",
"`q c #ff1919",
"`r c #ff7272",
"`s c #ffafaf",
"`t c #ff3939",
"`u c #ff3d3d",
"`v c #ff3232",
"`w c #ffe6e6",
"`x c #ff1d1d",
"`y c #ffcece",
"`z c #ff3838",
"`A c #ff8989",
"`B c #ffb3b3",
"`C c #ff2121",
"`D c #ff0000",
"`E c #fff1f1",
"`F c #ff4646",
"`G c #ff4141",
"`H c #ffdada",
"`I c #ff2626",
"`J c #ffdddd",
"`K c #ff2d2d",
"`L c #ff8f8f",
"`M c #ff6565",
"`N c #ff1e1e",
"`O c #fff5f5",
"`P c #ff2020",
"`Q c #ff9999",
"`R c #ff9393",
"`S c #ff2828",
"`T c #ff6161",
"`U c #ff8a8a",
"`V c #ffb5b5",
"`W c #ff2323",
"`X c #ffc1c1",
"`Y c #fffafa",
"`Z c #ff4848",
"`0 c #ff6c6c",
"`1 c #ff5f5f",
"`2 c #ffd6d6",
"`3 c #ff6e6e",
"`4 c #ffeaea",
"`5 c #ff2424",
"`6 c #ff0202",
"`7 c #ffcdcd",
"`8 c #ffd5d5",
".` c #ffeded",
".. c #ffefef",
".# c #777777",
".a c #ffa9a9",
".b c #ffdcdc",
".c c #ffcbcb",
".d c #fffefe",
".e c #fff6f6",
".f c #ffe1e1",
".g c #cecece",
".h c #000000",
".i c #000000",
".j c #000000",
".k c #000000",
".l c #000000",
".m c #000000",
".n c #000000",
".o c #000000",
".p c #000000",
".q c #000000",
".r c #000000",
".s c #000000",
".t c #000000",
".u c #000000",
".v c #000000",
".w c #000000",
".x c #000000",
".y c #000000",
".z c #000000",
".A c #000000",
".B c #000000",
".C c #000000",
".D c #000000",
".E c #000000",
".F c #000000",
".G c #000000",
".H c #000000",
".I c #000000",
".J c #000000",
".K c #000000",
".L c #000000",
".M c #000000",
".N c #000000",
".O c #000000",
".P c #000000",
".Q c #000000",
".R c #000000",
".S c #000000",
".T c #000000",
".U c #000000",
".V c #000000",
".W c #000000",
".X c #000000",
".Y c #000000",
".Z c #000000",
".0 c #000000",
".1 c #000000",
".2 c #000000",
".3 c #000000",
".4 c #000000",
".5 c #000000",
".6 c #000000",
".7 c #000000",
".8 c #000000",
"#` c #000000",
"#. c #000000",
"## c #000000",
"#a c #000000",
"#b c #000000",
"#c c #000000",
"#d c #000000",
"#e c #000000",
"#f c #000000",
"#g c #000000",
"#h c #000000",
"#i c #000000",
"#j c #000000",
"#k c #000000",
"#l c #000000",
"#m c #000000",
"#n c #000000",
"#o c #000000",
"#p c #000000",
"#q c #000000",
"#r c #000000",
"#s c #000000",
"#t c #000000",
"#u c #000000",
"#v c #000000",
"#w c #000000",
"#x c #000000",
"#y c #000000",
"#z c #000000",
"#A c #000000",
"#B c #000000",
"#C c #000000",
"#D c #000000",
"#E c #000000",
"#F c #000000",
"#G c #000000",
"#H c #000000",
"#I c #000000",
"#J c #000000",
"#K c #000000",
"#L c #000000",
"#M c #000000",
"#N c #000000",
"#O c #000000",
"#P c #000000",
"#Q c #000000",
"#R c #000000",
"#S c #000000",
"#T c #000000",
"#U c #000000",
"#V c #000000",
"#W c #000000",
"#X c #000000",
"#Y c #000000",
"#Z c #000000",
"#0 c #000000",
"#1 c #000000",
"#2 c #000000",
"#3 c #000000",
"#4 c #000000",
"#5 c #000000",
"#6 c #000000",
"#7 c #000000",
"#8 c #000000",
"a` c #000000",
"a. c #000000",
"a# c #000000",
"aa c #000000",
"ab c #000000",
"ac c #000000",
"ad c #000000",
"ae c #000000",
"af c #000000",
"ag c #000000",
"ah c #000000",
"ai c #000000",
"aj c #000000",
"ak c #000000",
"al c #000000",
"am c #000000",
"an c #000000",
"ao c #000000",
"ap c #000000",
"aq c #000000",
"ar c #000000",
"as c #000000",
"at c #000000",
"au c #000000",
"av c #000000",
"aw c #000000",
"ax c #000000",
"ay c #000000",
"az c #000000",
"aA c #000000",
"aB c #000000",
"aC c #000000",
"aD c #000000",
"aE c #000000",
"aF c #000000",
"aG c #000000",
"aH c #000000",
"aI c #000000",
"aJ c #000000",
"aK c #000000",
"aL c #000000",
"aM c #000000",
"aN c #000000",
"aO c #000000",
"aP c #000000",
"aQ c #000000",
"aR c #000000",
"aS c #000000",
"aT c #000000",
"aU c #000000",
"aV c #000000",
"aW c #000000",
"aX c #000000",
"aY c #000000",
"aZ c #000000",
"a0 c #000000",
"a1 c #000000",
"a2 c #000000",
"a3 c #000000",
"a4 c #000000",
"a5 c #000000",
"a6 c #000000",
"a7 c #000000",
"a8 c #000000",
/* pixels */
"````````````````````````````````````````````````",
"````````````````````````````````````````````````",
"````````````````````````````````````````````````",
"````````````````````````````````````````````````",
"````````````````````````````````````````````````",
"````````````````````````````````````````````````",
"````````````````````````````````````````````````",
"```````````````.````````````````````````````````",
"```#`a`b`c`d```e```````f`g`h`i`j`k`l```m`n`o````",
"```f`p```q`````e`````r`s```t```u```v`w`x```y`z``",
"```A`B```C`````e`````D```````E`F```G`H`I```J`K``",
"```L`M`B`N`````e`````D```````O`P`Q`R```S`s`T````",
"```U`V```W`````e`````D`````X`Y`Z```````P````````",
"```0`R```D`````e`````k`1`2`3`4`5```````6````````",
"```7`8.``y..``.#```````y.a``.b.c.d``.e`y.f``````",
"``````````````.g````````````````````````````````",
"````````````````````````````````````````````````",
"````````````````````````````````````````````````",
"````````````````````````````````````````````````",
"````````````````````````````````````````````````",
"````````````````````````````````````````````````",
"````````````````````````````````````````````````",
"````````````````````````````````````````````````",
"````````````````````````````````````````````````"
};
