/* XPM */
static char *sourcepair_xpm[] = {
/* width height num_colors chars_per_pixel */
"    18    18      256            2",
/* colors */
"`` c #ffffff",
"`. c #939393",
"`# c #ffe7e7",
"`a c #ff7777",
"`b c #ffeaea",
"`c c #ff5555",
"`d c #848585",
"`e c #fffcfc",
"`f c #ff8e8e",
"`g c #ff8484",
"`h c #ffa3a3",
"`i c #ff7474",
"`j c #ff9797",
"`k c #ffd2d2",
"`l c #ff6e6e",
"`m c #ffa0a0",
"`n c #ffa1a1",
"`o c #fffefe",
"`p c #ff8d8d",
"`q c #ff2929",
"`r c #878787",
"`s c #ff8787",
"`t c #ffaaaa",
"`u c #fff7f7",
"`v c #ffcfcf",
"`w c #ff5757",
"`x c #ffebeb",
"`y c #ff7f7f",
"`z c #ff2d2d",
"`A c #ff6363",
"`B c #ffcbcb",
"`C c #ffefef",
"`D c #ff6b6b",
"`E c #ffb6b6",
"`F c #ff3636",
"`G c #ff6262",
"`H c #ffc3c3",
"`I c #ff3a3a",
"`J c #ff9c9c",
"`K c #ffc5c5",
"`L c #ff4646",
"`M c #ffadad",
"`N c #ff9292",
"`O c #ff8585",
"`P c #ff2323",
"`Q c #ff7979",
"`R c #ffa4a4",
"`S c #ffeded",
"`T c #ffd7d7",
"`U c #ff4c4c",
"`V c #ff1e1e",
"`W c #ffecec",
"`X c #ff9191",
"`Y c #fff5f5",
"`Z c #7d7d7d",
"`0 c #ff8c8c",
"`1 c #ffb4b4",
"`2 c #ff7676",
"`3 c #fffdfd",
"`4 c #fff9f9",
"`5 c #fffbfb",
"`6 c #bbbbbb",
"`7 c #fff0f0",
"`8 c #000000",
".` c #000000",
".. c #000000",
".# c #000000",
".a c #000000",
".b c #000000",
".c c #000000",
".d c #000000",
".e c #000000",
".f c #000000",
".g c #000000",
".h c #000000",
".i c #000000",
".j c #000000",
".k c #000000",
".l c #000000",
".m c #000000",
".n c #000000",
".o c #000000",
".p c #000000",
".q c #000000",
".r c #000000",
".s c #000000",
".t c #000000",
".u c #000000",
".v c #000000",
".w c #000000",
".x c #000000",
".y c #000000",
".z c #000000",
".A c #000000",
".B c #000000",
".C c #000000",
".D c #000000",
".E c #000000",
".F c #000000",
".G c #000000",
".H c #000000",
".I c #000000",
".J c #000000",
".K c #000000",
".L c #000000",
".M c #000000",
".N c #000000",
".O c #000000",
".P c #000000",
".Q c #000000",
".R c #000000",
".S c #000000",
".T c #000000",
".U c #000000",
".V c #000000",
".W c #000000",
".X c #000000",
".Y c #000000",
".Z c #000000",
".0 c #000000",
".1 c #000000",
".2 c #000000",
".3 c #000000",
".4 c #000000",
".5 c #000000",
".6 c #000000",
".7 c #000000",
".8 c #000000",
"#` c #000000",
"#. c #000000",
"## c #000000",
"#a c #000000",
"#b c #000000",
"#c c #000000",
"#d c #000000",
"#e c #000000",
"#f c #000000",
"#g c #000000",
"#h c #000000",
"#i c #000000",
"#j c #000000",
"#k c #000000",
"#l c #000000",
"#m c #000000",
"#n c #000000",
"#o c #000000",
"#p c #000000",
"#q c #000000",
"#r c #000000",
"#s c #000000",
"#t c #000000",
"#u c #000000",
"#v c #000000",
"#w c #000000",
"#x c #000000",
"#y c #000000",
"#z c #000000",
"#A c #000000",
"#B c #000000",
"#C c #000000",
"#D c #000000",
"#E c #000000",
"#F c #000000",
"#G c #000000",
"#H c #000000",
"#I c #000000",
"#J c #000000",
"#K c #000000",
"#L c #000000",
"#M c #000000",
"#N c #000000",
"#O c #000000",
"#P c #000000",
"#Q c #000000",
"#R c #000000",
"#S c #000000",
"#T c #000000",
"#U c #000000",
"#V c #000000",
"#W c #000000",
"#X c #000000",
"#Y c #000000",
"#Z c #000000",
"#0 c #000000",
"#1 c #000000",
"#2 c #000000",
"#3 c #000000",
"#4 c #000000",
"#5 c #000000",
"#6 c #000000",
"#7 c #000000",
"#8 c #000000",
"a` c #000000",
"a. c #000000",
"a# c #000000",
"aa c #000000",
"ab c #000000",
"ac c #000000",
"ad c #000000",
"ae c #000000",
"af c #000000",
"ag c #000000",
"ah c #000000",
"ai c #000000",
"aj c #000000",
"ak c #000000",
"al c #000000",
"am c #000000",
"an c #000000",
"ao c #000000",
"ap c #000000",
"aq c #000000",
"ar c #000000",
"as c #000000",
"at c #000000",
"au c #000000",
"av c #000000",
"aw c #000000",
"ax c #000000",
"ay c #000000",
"az c #000000",
"aA c #000000",
"aB c #000000",
"aC c #000000",
"aD c #000000",
"aE c #000000",
"aF c #000000",
"aG c #000000",
"aH c #000000",
"aI c #000000",
"aJ c #000000",
"aK c #000000",
"aL c #000000",
"aM c #000000",
"aN c #000000",
"aO c #000000",
"aP c #000000",
"aQ c #000000",
"aR c #000000",
"aS c #000000",
"aT c #000000",
"aU c #000000",
"aV c #000000",
"aW c #000000",
"aX c #000000",
"aY c #000000",
"aZ c #000000",
"a0 c #000000",
"a1 c #000000",
"a2 c #000000",
"a3 c #000000",
"a4 c #000000",
"a5 c #000000",
"a6 c #000000",
"a7 c #000000",
"a8 c #000000",
/* pixels */
"````````````````````````````````````",
"````````````````````````````````````",
"````````````````````````````````````",
"````````````````````````````````````",
"````````````````````````````````````",
"```````````.````````````````````````",
"`#`a`b`c```d```e`f`g`h`i`j`k`l`m`n`o",
"`b`p```q```r```s`t`u`v`w`x`y`z```A`B",
"`C`D`E`F```r```G`H`````I`J`K`L`M`N`o",
"`#`O```P```r```Q`R`S`T`U`````V``````",
"`W`X`Y`D```Z```C`0`1`v`2`````D`3````",
"```4`5`````6`````o`7```5```````4````",
"````````````````````````````````````",
"````````````````````````````````````",
"````````````````````````````````````",
"````````````````````````````````````",
"````````````````````````````````````",
"````````````````````````````````````"
};
