/* XPM */
static char *upcase_xpm[] = {
/* width height num_colors chars_per_pixel */
"    18    18      256            2",
/* colors */
"`` c #ffffff",
"`. c #000000",
"`# c #101010",
"`a c #b1b1b1",
"`b c #040404",
"`c c #111111",
"`d c #282828",
"`e c #464646",
"`f c #737373",
"`g c #888888",
"`h c #202020",
"`i c #fbeec1",
"`j c #f6db7b",
"`k c #f7de83",
"`l c #f6da77",
"`m c #fdf9e7",
"`n c #c6c6c3",
"`o c #181818",
"`p c #f9e48c",
"`q c #f4c400",
"`r c #f5ca00",
"`s c #f2c000",
"`t c #fefae3",
"`u c #d8d8f3",
"`v c #fdf6c8",
"`w c #de9300",
"`x c #a61d01",
"`y c #9e0d00",
"`z c #b13702",
"`A c #e6a400",
"`B c #00008b",
"`C c #8d8dcb",
"`D c #fffed0",
"`E c #ba4600",
"`F c #df9a06",
"`G c #ffed0a",
"`H c #bf5403",
"`I c #d68500",
"`J c #0e0e92",
"`K c #000076",
"`L c #a1a0d6",
"`M c #c25800",
"`N c #a21500",
"`O c #ab2801",
"`P c #9b0600",
"`Q c #db9000",
"`R c #1d1d99",
"`S c #bbbbe0",
"`T c #d8d8ed",
"`U c #00007a",
"`V c #5c64af",
"`W c #c3cee4",
"`X c #ffffd5",
"`Y c #a11400",
"`Z c #aa2801",
"`0 c #9a0500",
"`1 c #d1d1ea",
"`2 c #6060b7",
"`3 c #7776c2",
"`4 c #284885",
"`5 c #6076af",
"`6 c #ffffd3",
"`7 c #b84000",
"`8 c #dd9806",
".` c #fede09",
".. c #be5203",
".# c #d47e00",
".a c #00096c",
".b c #eabd56",
".c c #e8a900",
".d c #eeb800",
".e c #e29a00",
".f c #f4dc9a",
".g c #000000",
".h c #000000",
".i c #000000",
".j c #000000",
".k c #000000",
".l c #000000",
".m c #000000",
".n c #000000",
".o c #000000",
".p c #000000",
".q c #000000",
".r c #000000",
".s c #000000",
".t c #000000",
".u c #000000",
".v c #000000",
".w c #000000",
".x c #000000",
".y c #000000",
".z c #000000",
".A c #000000",
".B c #000000",
".C c #000000",
".D c #000000",
".E c #000000",
".F c #000000",
".G c #000000",
".H c #000000",
".I c #000000",
".J c #000000",
".K c #000000",
".L c #000000",
".M c #000000",
".N c #000000",
".O c #000000",
".P c #000000",
".Q c #000000",
".R c #000000",
".S c #000000",
".T c #000000",
".U c #000000",
".V c #000000",
".W c #000000",
".X c #000000",
".Y c #000000",
".Z c #000000",
".0 c #000000",
".1 c #000000",
".2 c #000000",
".3 c #000000",
".4 c #000000",
".5 c #000000",
".6 c #000000",
".7 c #000000",
".8 c #000000",
"#` c #000000",
"#. c #000000",
"## c #000000",
"#a c #000000",
"#b c #000000",
"#c c #000000",
"#d c #000000",
"#e c #000000",
"#f c #000000",
"#g c #000000",
"#h c #000000",
"#i c #000000",
"#j c #000000",
"#k c #000000",
"#l c #000000",
"#m c #000000",
"#n c #000000",
"#o c #000000",
"#p c #000000",
"#q c #000000",
"#r c #000000",
"#s c #000000",
"#t c #000000",
"#u c #000000",
"#v c #000000",
"#w c #000000",
"#x c #000000",
"#y c #000000",
"#z c #000000",
"#A c #000000",
"#B c #000000",
"#C c #000000",
"#D c #000000",
"#E c #000000",
"#F c #000000",
"#G c #000000",
"#H c #000000",
"#I c #000000",
"#J c #000000",
"#K c #000000",
"#L c #000000",
"#M c #000000",
"#N c #000000",
"#O c #000000",
"#P c #000000",
"#Q c #000000",
"#R c #000000",
"#S c #000000",
"#T c #000000",
"#U c #000000",
"#V c #000000",
"#W c #000000",
"#X c #000000",
"#Y c #000000",
"#Z c #000000",
"#0 c #000000",
"#1 c #000000",
"#2 c #000000",
"#3 c #000000",
"#4 c #000000",
"#5 c #000000",
"#6 c #000000",
"#7 c #000000",
"#8 c #000000",
"a` c #000000",
"a. c #000000",
"a# c #000000",
"aa c #000000",
"ab c #000000",
"ac c #000000",
"ad c #000000",
"ae c #000000",
"af c #000000",
"ag c #000000",
"ah c #000000",
"ai c #000000",
"aj c #000000",
"ak c #000000",
"al c #000000",
"am c #000000",
"an c #000000",
"ao c #000000",
"ap c #000000",
"aq c #000000",
"ar c #000000",
"as c #000000",
"at c #000000",
"au c #000000",
"av c #000000",
"aw c #000000",
"ax c #000000",
"ay c #000000",
"az c #000000",
"aA c #000000",
"aB c #000000",
"aC c #000000",
"aD c #000000",
"aE c #000000",
"aF c #000000",
"aG c #000000",
"aH c #000000",
"aI c #000000",
"aJ c #000000",
"aK c #000000",
"aL c #000000",
"aM c #000000",
"aN c #000000",
"aO c #000000",
"aP c #000000",
"aQ c #000000",
"aR c #000000",
"aS c #000000",
"aT c #000000",
"aU c #000000",
"aV c #000000",
"aW c #000000",
"aX c #000000",
"aY c #000000",
"aZ c #000000",
"a0 c #000000",
"a1 c #000000",
"a2 c #000000",
"a3 c #000000",
"a4 c #000000",
"a5 c #000000",
"a6 c #000000",
"a7 c #000000",
"a8 c #000000",
/* pixels */
"````````````````````````````````````",
"````````````````````````````````````",
"````````````````````````````````````",
"```````.`#`.`a``````````````````````",
"`````````````b``````````````````````",
"```````a`b`c`d``````````````````````",
"```````.`````#``````````````````````",
"```````e`f`g`h```````i`j`k`l`m``````",
"```````n`.`.`o```````p`q`r`s`t``````",
"```````u```````````v`w`x`y`z`A``````",
"```````B`````C`````D`E`F`G`H`I``````",
"```````J`````K`L```D`M`N`O`P`Q``````",
"```````R`S`T`U`V`W`X`M`Y`Z`0`Q``````",
"```````1`2`3`U`4`5`6`7`8.`...#``````",
"````````````.a``````.b.c.d.e.f``````",
"````````````````````````````````````",
"````````````````````````````````````",
"````````````````````````````````````"
};
